<svg xmlns="http://www.w3.org/2000/svg" xmlns:xlink="http://www.w3.org/1999/xlink" version="1.1" width="716" height="1475"><defs/><g><g transform="translate(-310,-102) scale(1,1)"><path fill="none" stroke="#000000" d="M 368 264 L 952 264 L 952 1456 L 368 1456 L 368 264" stroke-miterlimit="10"/></g><g transform="translate(-310,-102) scale(1,1)"><path fill="#ffebd8" stroke="none" d="M 368 264 L 368 286 L 493.83984375 286 L 504.83984375 275 L 504.83984375 264 L 368 264"/></g><g transform="translate(-310,-102) scale(1,1)"><path fill="none" stroke="#000000" d="M 368 264 L 368 286 L 493.83984375 286 L 504.83984375 275 L 504.83984375 264 L 368 264 L 368 264" stroke-miterlimit="10"/></g><g transform="translate(-310,-102) scale(1,1)"><g><path fill="none" stroke="none"/><text fill="#000000" stroke="none" font-family="Arial" font-size="13px" font-style="normal" font-weight="normal" text-decoration="none" x="408.6181640625" y="280">SaleActuation</text></g></g><g transform="translate(-310,-102) scale(1,1)"><g><path fill="none" stroke="none"/><text fill="#000000" stroke="none" font-family="Arial" font-size="13px" font-style="normal" font-weight="bold" text-decoration="none" x="371.543212890625" y="280">class</text></g></g><g transform="translate(-310,-102) scale(1,1)"><path fill="none" stroke="#000000" d="M 403 840 L 931 840 L 931 1248 L 403 1248 L 403 840" stroke-miterlimit="10"/></g><g transform="translate(-310,-102) scale(1,1)"><path fill="#ffd8ff" stroke="none" d="M 403 840 L 403 862 L 505.20751953125 862 L 516.20751953125 851 L 516.20751953125 840 L 403 840"/></g><g transform="translate(-310,-102) scale(1,1)"><path fill="none" stroke="#000000" d="M 403 840 L 403 862 L 505.20751953125 862 L 516.20751953125 851 L 516.20751953125 840 L 403 840 L 403 840" stroke-miterlimit="10"/></g><g transform="translate(-310,-102) scale(1,1)"><g><path fill="none" stroke="none"/><text fill="#000000" stroke="none" font-family="Arial" font-size="13px" font-style="normal" font-weight="normal" text-decoration="none" x="443.6181640625" y="856">PayTicket</text></g></g><g transform="translate(-310,-102) scale(1,1)"><g><path fill="none" stroke="none"/><text fill="#000000" stroke="none" font-family="Arial" font-size="13px" font-style="normal" font-weight="bold" text-decoration="none" x="406.543212890625" y="856">class</text></g></g><g transform="translate(-310,-102) scale(1,1)"><rect fill="#ffffff" stroke="none" x="320" y="112" width="696" height="1455"/></g><g transform="translate(-310,-102) scale(1,1)"><path fill="none" stroke="#000000" d="M 320 112 L 1016 112 L 1016 1567 L 320 1567 L 320 112 Z Z" stroke-miterlimit="10"/></g><g transform="translate(-310,-102) scale(1,1)"><path fill="none" stroke="#000000" d="M 528 1402 L 528 1410 L 616 1410" stroke-miterlimit="10"/></g><g transform="translate(-310,-102) scale(1,1)"><path fill="none" stroke="#000000" d="M 605.8373251423759 1414.2095177560159 L 616 1410 L 605.8373251423758 1405.7904822439841" stroke-miterlimit="10"/></g><g transform="translate(-310,-102) scale(1,1)"><rect fill="#C0C0C0" stroke="none" x="383" y="1247" width="160" height="24" opacity="0.2"/></g><g transform="translate(-310,-102) scale(1,1)"><rect fill="#ffffd8" stroke="none" x="376" y="1240" width="160" height="24"/></g><g transform="translate(-310,-102) scale(1,1)"><path fill="none" stroke="#000000" d="M 376 1240 L 536 1240 L 536 1264 L 376 1264 L 376 1240 Z Z" stroke-miterlimit="10"/></g><g transform="translate(-310,-102) scale(1,1)"><rect fill="#ffffd8" stroke="none" x="376" y="1240" width="160" height="24"/></g><g transform="translate(-310,-102) scale(1,1)"><path fill="none" stroke="#000000" d="M 376 1240 L 536 1240 L 536 1264 L 376 1264 L 376 1240 Z Z" stroke-miterlimit="10"/></g><g transform="translate(-310,-102) scale(1,1)"><g><path fill="none" stroke="none"/><text fill="#000000" stroke="none" font-family="Arial" font-size="13px" font-style="normal" font-weight="bold" text-decoration="none" x="382.421142578125" y="1258">TheaterTicketDispenser</text></g></g><g transform="translate(-310,-102) scale(1,1)"><rect fill="#C0C0C0" stroke="none" x="447" y="151" width="160" height="24" opacity="0.2"/></g><g transform="translate(-310,-102) scale(1,1)"><rect fill="#ffffd8" stroke="none" x="440" y="144" width="160" height="24"/></g><g transform="translate(-310,-102) scale(1,1)"><path fill="none" stroke="#000000" d="M 440 144 L 600 144 L 600 168 L 440 168 L 440 144 Z Z" stroke-miterlimit="10"/></g><g transform="translate(-310,-102) scale(1,1)"><rect fill="#ffffd8" stroke="none" x="440" y="144" width="160" height="24"/></g><g transform="translate(-310,-102) scale(1,1)"><path fill="none" stroke="#000000" d="M 440 144 L 600 144 L 600 168 L 440 168 L 440 144 Z Z" stroke-miterlimit="10"/></g><g transform="translate(-310,-102) scale(1,1)"><g><path fill="none" stroke="none"/><text fill="#000000" stroke="none" font-family="Arial" font-size="13px" font-style="normal" font-weight="bold" text-decoration="none" x="446.421142578125" y="162">TheaterTicketDispenser</text></g></g><g transform="translate(-310,-102) scale(1,1)"><path fill="#C0C0C0" stroke="none" d="M 664 160.5 C 664 155.2532944 668.2532944 151 673.5 151 C 678.7467056 151 683 155.2532944 683 160.5 C 683 165.7467056 678.7467056 170 673.5 170 C 668.2532944 170 664 165.7467056 664 160.5 Z" opacity="0.2"/></g><g transform="translate(-310,-102) scale(1,1)"><path fill="#000000" stroke="none" d="M 657 153.5 C 657 148.2532944 661.2532944 144 666.5 144 C 671.7467056 144 676 148.2532944 676 153.5 C 676 158.7467056 671.7467056 163 666.5 163 C 661.2532944 163 657 158.7467056 657 153.5 Z"/></g><g transform="translate(-310,-102) scale(1,1)"><path fill="#C0C0C0" stroke="none" d="M 655 1519 C 655 1510.1634432 662.1634432 1503 671 1503 C 679.8365568 1503 687 1510.1634432 687 1519 C 687 1527.8365568 679.8365568 1535 671 1535 C 662.1634432 1535 655 1527.8365568 655 1519 Z" opacity="0.2"/></g><g transform="translate(-310,-102) scale(1,1)"><path fill="none" stroke="#000000" d="M 648 1512 C 648 1503.1634432 655.1634432 1496 664 1496 C 672.8365568 1496 680 1503.1634432 680 1512 C 680 1520.8365568 672.8365568 1528 664 1528 C 655.1634432 1528 648 1520.8365568 648 1512 Z" stroke-miterlimit="10"/></g><g transform="translate(-310,-102) scale(1,1)"><path fill="#000000" stroke="none" d="M 653 1512 C 653 1505.9248672 657.9248672 1501 664 1501 C 670.0751328 1501 675 1505.9248672 675 1512 C 675 1518.0751328 670.0751328 1523 664 1523 C 657.9248672 1523 653 1518.0751328 653 1512 Z"/></g><g transform="translate(-310,-102) scale(1,1)"><path fill="#C0C0C0" stroke="none" d="M 627 295 L 719 295 Q 729 295 729 305 L 729 351 Q 729 361 719 361 L 627 361 Q 617 361 617 351 L 617 305 Q 617 295 627 295 Z" opacity="0.2"/></g><g transform="translate(-310,-102) scale(1,1)"><path fill="#d8d8ff" stroke="none" d="M 620 288 L 712 288 Q 722 288 722 298 L 722 344 Q 722 354 712 354 L 620 354 Q 610 354 610 344 L 610 298 Q 610 288 620 288 Z"/></g><g transform="translate(-310,-102) scale(1,1)"><path fill="none" stroke="#000000" d="M 620 288 L 712 288 Q 722 288 722 298 L 722 344 Q 722 354 712 354 L 620 354 Q 610 354 610 344 L 610 298 Q 610 288 620 288 Z" stroke-miterlimit="10"/></g><g transform="translate(-310,-102) scale(1,1)"><g><path fill="none" stroke="none"/><text fill="#000000" stroke="none" font-family="Arial" font-size="13px" font-style="normal" font-weight="bold" text-decoration="none" x="632.0400390625" y="306">Se pulsa la</text><text fill="#000000" stroke="none" font-family="Arial" font-size="13px" font-style="normal" font-weight="bold" text-decoration="none" x="622.29638671875" y="319">actuación que</text><text fill="#000000" stroke="none" font-family="Arial" font-size="13px" font-style="normal" font-weight="bold" text-decoration="none" x="625.892333984375" y="332">se quiere ver</text></g></g><g transform="translate(-310,-102) scale(1,1)"><path fill="none" stroke="#000000" d="M 666 164 L 666 191" stroke-miterlimit="10"/></g><g transform="translate(-310,-102) scale(1,1)"><path fill="none" stroke="#000000" d="M 661.790482243984 180.83732514237585 L 666 191 L 670.209517756016 180.83732514237585" stroke-miterlimit="10"/></g><g transform="translate(-310,-102) scale(1,1)"><path fill="#C0C0C0" stroke="none" d="M 617 391 L 720.1689453125 391 Q 730.1689453125 391 730.1689453125 401 L 730.1689453125 421 Q 730.1689453125 431 720.1689453125 431 L 617 431 Q 607 431 607 421 L 607 401 Q 607 391 617 391 Z" opacity="0.2"/></g><g transform="translate(-310,-102) scale(1,1)"><path fill="#d8d8ff" stroke="none" d="M 610 384 L 713.1689453125 384 Q 723.1689453125 384 723.1689453125 394 L 723.1689453125 414 Q 723.1689453125 424 713.1689453125 424 L 610 424 Q 600 424 600 414 L 600 394 Q 600 384 610 384 Z"/></g><g transform="translate(-310,-102) scale(1,1)"><path fill="none" stroke="#000000" d="M 610 384 L 713.1689453125 384 Q 723.1689453125 384 723.1689453125 394 L 723.1689453125 414 Q 723.1689453125 424 713.1689453125 424 L 610 424 Q 600 424 600 414 L 600 394 Q 600 384 610 384 Z" stroke-miterlimit="10"/></g><g transform="translate(-310,-102) scale(1,1)"><g><path fill="none" stroke="none"/><text fill="#000000" stroke="none" font-family="Arial" font-size="13px" font-style="normal" font-weight="bold" text-decoration="none" x="604.5" y="402">Seleccionar Fecha</text></g></g><g transform="translate(-310,-102) scale(1,1)"><path fill="none" stroke="#000000" d="M 664 354 L 664 384" stroke-miterlimit="10"/></g><g transform="translate(-310,-102) scale(1,1)"><path fill="none" stroke="#000000" d="M 659.790482243984 373.83732514237585 L 664 384 L 668.209517756016 373.83732514237585" stroke-miterlimit="10"/></g><g transform="translate(-310,-102) scale(1,1)"><path fill="#C0C0C0" stroke="none" d="M 645 479.5 L 673.5 455 L 701 479.5 L 673.5 503 L 645 479.5" opacity="0.2"/></g><g transform="translate(-310,-102) scale(1,1)"><path fill="#ffe2d8" stroke="none" d="M 638 472 L 666 448 L 694 472 L 666 496 L 638 472"/></g><g transform="translate(-310,-102) scale(1,1)"><path fill="none" stroke="#000000" d="M 638 472 L 666 448 L 694 472 L 666 496 L 638 472 L 638 472" stroke-miterlimit="10"/></g><g transform="translate(-310,-102) scale(1,1)"><path fill="#C0C0C0" stroke="none" d="M 626 199 L 721.1962890625 199 Q 731.1962890625 199 731.1962890625 209 L 731.1962890625 242 Q 731.1962890625 252 721.1962890625 252 L 626 252 Q 616 252 616 242 L 616 209 Q 616 199 626 199 Z" opacity="0.2"/></g><g transform="translate(-310,-102) scale(1,1)"><path fill="#d8f2ff" stroke="none" d="M 619 192 L 714.1962890625 192 Q 724.1962890625 192 724.1962890625 202 L 724.1962890625 235 Q 724.1962890625 245 714.1962890625 245 L 619 245 Q 609 245 609 235 L 609 202 Q 609 192 619 192 Z"/></g><g transform="translate(-310,-102) scale(1,1)"><path fill="none" stroke="#000000" d="M 619 192 L 714.1962890625 192 Q 724.1962890625 192 724.1962890625 202 L 724.1962890625 235 Q 724.1962890625 245 714.1962890625 245 L 619 245 Q 609 245 609 235 L 609 202 Q 609 192 619 192 Z" stroke-miterlimit="10"/></g><g transform="translate(-310,-102) scale(1,1)"><g><path fill="none" stroke="none"/><text fill="#000000" stroke="none" font-family="Arial" font-size="13px" font-style="normal" font-weight="bold" text-decoration="none" x="632.279541015625" y="210">Pantalla de</text><text fill="#000000" stroke="none" font-family="Arial" font-size="13px" font-style="normal" font-weight="bold" text-decoration="none" x="649.62451171875" y="223">Inicio</text></g></g><g transform="translate(-310,-102) scale(1,1)"><path fill="none" stroke="#000000" d="M 666 246 L 666 287" stroke-miterlimit="10"/></g><g transform="translate(-310,-102) scale(1,1)"><path fill="none" stroke="#000000" d="M 661.790482243984 276.83732514237585 L 666 287 L 670.209517756016 276.83732514237585" stroke-miterlimit="10"/></g><g transform="translate(-310,-102) scale(1,1)"><path fill="none" stroke="#000000" d="M 664 424 L 664 448" stroke-miterlimit="10"/></g><g transform="translate(-310,-102) scale(1,1)"><path fill="none" stroke="#000000" d="M 659.790482243984 437.83732514237585 L 664 448 L 668.209517756016 437.83732514237585" stroke-miterlimit="10"/></g><g transform="translate(-310,-102) scale(1,1)"><path fill="#C0C0C0" stroke="none" d="M 625 543 L 721.64990234375 543 Q 731.64990234375 543 731.64990234375 553 L 731.64990234375 586 Q 731.64990234375 596 721.64990234375 596 L 625 596 Q 615 596 615 586 L 615 553 Q 615 543 625 543 Z" opacity="0.2"/></g><g transform="translate(-310,-102) scale(1,1)"><path fill="#d8d8ff" stroke="none" d="M 618 536 L 714.64990234375 536 Q 724.64990234375 536 724.64990234375 546 L 724.64990234375 579 Q 724.64990234375 589 714.64990234375 589 L 618 589 Q 608 589 608 579 L 608 546 Q 608 536 618 536 Z"/></g><g transform="translate(-310,-102) scale(1,1)"><path fill="none" stroke="#000000" d="M 618 536 L 714.64990234375 536 Q 724.64990234375 536 724.64990234375 546 L 724.64990234375 579 Q 724.64990234375 589 714.64990234375 589 L 618 589 Q 608 589 608 579 L 608 546 Q 608 536 618 536 Z" stroke-miterlimit="10"/></g><g transform="translate(-310,-102) scale(1,1)"><g><path fill="none" stroke="none"/><text fill="#000000" stroke="none" font-family="Arial" font-size="13px" font-style="normal" font-weight="bold" text-decoration="none" x="629.832275390625" y="554">Seleccionar</text><text fill="#000000" stroke="none" font-family="Arial" font-size="13px" font-style="normal" font-weight="bold" text-decoration="none" x="650.798583984375" y="567">Zona</text></g></g><g transform="translate(-310,-102) scale(1,1)"><path fill="none" stroke="#000000" d="M 666 497 L 666 535" stroke-miterlimit="10"/></g><g transform="translate(-310,-102) scale(1,1)"><path fill="none" stroke="#000000" d="M 661.790482243984 524.8373251423759 L 666 535 L 670.209517756016 524.8373251423759" stroke-miterlimit="10"/></g><g transform="translate(-310,-102) scale(1,1)"><g><path fill="none" stroke="none"/><text fill="#000000" stroke="none" font-family="Arial" font-size="13px" font-style="normal" font-weight="normal" text-decoration="none" x="669.5" y="523"> [Fecha Seleccionada]</text></g></g><g transform="translate(-310,-102) scale(1,1)"><path fill="#C0C0C0" stroke="none" d="M 617 695 L 730.26806640625 695 Q 740.26806640625 695 740.26806640625 705 L 740.26806640625 738 Q 740.26806640625 748 730.26806640625 748 L 617 748 Q 607 748 607 738 L 607 705 Q 607 695 617 695 Z" opacity="0.2"/></g><g transform="translate(-310,-102) scale(1,1)"><path fill="#d8d8ff" stroke="none" d="M 610 688 L 723.26806640625 688 Q 733.26806640625 688 733.26806640625 698 L 733.26806640625 731 Q 733.26806640625 741 723.26806640625 741 L 610 741 Q 600 741 600 731 L 600 698 Q 600 688 610 688 Z"/></g><g transform="translate(-310,-102) scale(1,1)"><path fill="none" stroke="#000000" d="M 610 688 L 723.26806640625 688 Q 733.26806640625 688 733.26806640625 698 L 733.26806640625 731 Q 733.26806640625 741 723.26806640625 741 L 610 741 Q 600 741 600 731 L 600 698 Q 600 688 610 688 Z" stroke-miterlimit="10"/></g><g transform="translate(-310,-102) scale(1,1)"><g><path fill="none" stroke="none"/><text fill="#000000" stroke="none" font-family="Arial" font-size="13px" font-style="normal" font-weight="bold" text-decoration="none" x="630.141357421875" y="706">Seleccionar</text><text fill="#000000" stroke="none" font-family="Arial" font-size="13px" font-style="normal" font-weight="bold" text-decoration="none" x="642.798583984375" y="719">Asiento</text></g></g><g transform="translate(-310,-102) scale(1,1)"><path fill="#C0C0C0" stroke="none" d="M 650 639.5 L 673.5 615 L 696 639.5 L 673.5 663 L 650 639.5" opacity="0.2"/></g><g transform="translate(-310,-102) scale(1,1)"><path fill="#ffe2d8" stroke="none" d="M 643 632 L 666 608 L 689 632 L 666 656 L 643 632"/></g><g transform="translate(-310,-102) scale(1,1)"><path fill="none" stroke="#000000" d="M 643 632 L 666 608 L 689 632 L 666 656 L 643 632 L 643 632" stroke-miterlimit="10"/></g><g transform="translate(-310,-102) scale(1,1)"><path fill="none" stroke="#000000" d="M 666 590 L 666 607" stroke-miterlimit="10"/></g><g transform="translate(-310,-102) scale(1,1)"><path fill="none" stroke="#000000" d="M 661.790482243984 596.8373251423759 L 666 607 L 670.209517756016 596.8373251423759" stroke-miterlimit="10"/></g><g transform="translate(-310,-102) scale(1,1)"><path fill="none" stroke="#000000" d="M 666 657 L 666 687" stroke-miterlimit="10"/></g><g transform="translate(-310,-102) scale(1,1)"><path fill="none" stroke="#000000" d="M 661.790482243984 676.8373251423759 L 666 687 L 670.209517756016 676.8373251423759" stroke-miterlimit="10"/></g><g transform="translate(-310,-102) scale(1,1)"><g><path fill="none" stroke="none"/><text fill="#000000" stroke="none" font-family="Arial" font-size="13px" font-style="normal" font-weight="normal" text-decoration="none" x="678.5" y="676"> [Zona Seleccionada]</text></g></g><g transform="translate(-310,-102) scale(1,1)"><path fill="none" stroke="#000000" d="M 643 632 L 528 632 L 528 216 L 609 216" stroke-miterlimit="10"/></g><g transform="translate(-310,-102) scale(1,1)"><path fill="none" stroke="#000000" d="M 598.8373251423759 220.209517756016 L 609 216 L 598.8373251423758 211.790482243984" stroke-miterlimit="10"/></g><g transform="translate(-310,-102) scale(1,1)"><path fill="#C0C0C0" stroke="none" d="M 641 799.5 L 673.5 767 L 705 799.5 L 673.5 831 L 641 799.5" opacity="0.2"/></g><g transform="translate(-310,-102) scale(1,1)"><path fill="#ffe2d8" stroke="none" d="M 634 792 L 666 760 L 698 792 L 666 824 L 634 792"/></g><g transform="translate(-310,-102) scale(1,1)"><path fill="none" stroke="#000000" d="M 634 792 L 666 760 L 698 792 L 666 824 L 634 792 L 634 792" stroke-miterlimit="10"/></g><g transform="translate(-310,-102) scale(1,1)"><path fill="none" stroke="#000000" d="M 666 742 L 666 759" stroke-miterlimit="10"/></g><g transform="translate(-310,-102) scale(1,1)"><path fill="none" stroke="#000000" d="M 661.790482243984 748.8373251423759 L 666 759 L 670.209517756016 748.8373251423759" stroke-miterlimit="10"/></g><g transform="translate(-310,-102) scale(1,1)"><path fill="none" stroke="#000000" d="M 634 792 L 528 792 L 528 216 L 609 216" stroke-miterlimit="10"/></g><g transform="translate(-310,-102) scale(1,1)"><path fill="none" stroke="#000000" d="M 598.8373251423759 220.209517756016 L 609 216 L 598.8373251423758 211.790482243984" stroke-miterlimit="10"/></g><g transform="translate(-310,-102) scale(1,1)"><path fill="#C0C0C0" stroke="none" d="M 643 863 L 703 863 Q 713 863 713 873 L 713 919 Q 713 929 703 929 L 643 929 Q 633 929 633 919 L 633 873 Q 633 863 643 863 Z" opacity="0.2"/></g><g transform="translate(-310,-102) scale(1,1)"><path fill="#ffd8ff" stroke="none" d="M 636 856 L 696 856 Q 706 856 706 866 L 706 912 Q 706 922 696 922 L 636 922 Q 626 922 626 912 L 626 866 Q 626 856 636 856 Z"/></g><g transform="translate(-310,-102) scale(1,1)"><path fill="none" stroke="#000000" d="M 636 856 L 696 856 Q 706 856 706 866 L 706 912 Q 706 922 696 922 L 636 922 Q 626 922 626 912 L 626 866 Q 626 856 636 856 Z" stroke-miterlimit="10"/></g><g transform="translate(-310,-102) scale(1,1)"><g><path fill="none" stroke="none"/><text fill="#000000" stroke="none" font-family="Arial" font-size="13px" font-style="normal" font-weight="bold" text-decoration="none" x="649.74365234375" y="874">Pedir</text><text fill="#000000" stroke="none" font-family="Arial" font-size="13px" font-style="normal" font-weight="bold" text-decoration="none" x="635.775634765625" y="887">Tarjeta de</text><text fill="#000000" stroke="none" font-family="Arial" font-size="13px" font-style="normal" font-weight="bold" text-decoration="none" x="643.25" y="900">Credito</text></g></g><g transform="translate(-310,-102) scale(1,1)"><path fill="none" stroke="#000000" d="M 666 825 L 666 855" stroke-miterlimit="10"/></g><g transform="translate(-310,-102) scale(1,1)"><path fill="none" stroke="#000000" d="M 661.790482243984 844.8373251423759 L 666 855 L 670.209517756016 844.8373251423759" stroke-miterlimit="10"/></g><g transform="translate(-310,-102) scale(1,1)"><g><path fill="none" stroke="none"/><text fill="#000000" stroke="none" font-family="Arial" font-size="13px" font-style="normal" font-weight="normal" text-decoration="none" x="671.5" y="835"> [Asiento Seleccionado]</text></g></g><g transform="translate(-310,-102) scale(1,1)"><path fill="#C0C0C0" stroke="none" d="M 622 1031 L 722 1031 Q 732 1031 732 1041 L 732 1087 Q 732 1097 722 1097 L 622 1097 Q 612 1097 612 1087 L 612 1041 Q 612 1031 622 1031 Z" opacity="0.2"/></g><g transform="translate(-310,-102) scale(1,1)"><path fill="#ffd8ff" stroke="none" d="M 615 1024 L 715 1024 Q 725 1024 725 1034 L 725 1080 Q 725 1090 715 1090 L 615 1090 Q 605 1090 605 1080 L 605 1034 Q 605 1024 615 1024 Z"/></g><g transform="translate(-310,-102) scale(1,1)"><path fill="none" stroke="#000000" d="M 615 1024 L 715 1024 Q 725 1024 725 1034 L 725 1080 Q 725 1090 715 1090 L 615 1090 Q 605 1090 605 1080 L 605 1034 Q 605 1024 615 1024 Z" stroke-miterlimit="10"/></g><g transform="translate(-310,-102) scale(1,1)"><g><path fill="none" stroke="none"/><text fill="#000000" stroke="none" font-family="Arial" font-size="13px" font-style="normal" font-weight="bold" text-decoration="none" x="629.970458984375" y="1042">Comprobar</text><text fill="#000000" stroke="none" font-family="Arial" font-size="13px" font-style="normal" font-weight="bold" text-decoration="none" x="620.2236328125" y="1055">Disponibilidad</text><text fill="#000000" stroke="none" font-family="Arial" font-size="13px" font-style="normal" font-weight="bold" text-decoration="none" x="637.5400390625" y="1068">Bancaria</text></g></g><g transform="translate(-310,-102) scale(1,1)"><path fill="none" stroke="#000000" d="M 665 923 L 665 943" stroke-miterlimit="10"/></g><g transform="translate(-310,-102) scale(1,1)"><path fill="none" stroke="#000000" d="M 660.790482243984 932.8373251423759 L 665 943 L 669.209517756016 932.8373251423759" stroke-miterlimit="10"/></g><g transform="translate(-310,-102) scale(1,1)"><rect fill="#C0C0C0" stroke="none" x="807" y="391" width="89.18359375" height="24" opacity="0.2"/></g><g transform="translate(-310,-102) scale(1,1)"><rect fill="#ebffd8" stroke="none" x="800" y="384" width="89.18359375" height="24"/></g><g transform="translate(-310,-102) scale(1,1)"><path fill="none" stroke="#000000" d="M 800 384 L 889.18359375 384 L 889.18359375 408 L 800 408 L 800 384 Z Z" stroke-miterlimit="10"/></g><g transform="translate(-310,-102) scale(1,1)"><rect fill="#ebffd8" stroke="none" x="800" y="384" width="89.18359375" height="24"/></g><g transform="translate(-310,-102) scale(1,1)"><path fill="none" stroke="#000000" d="M 800 384 L 889.18359375 384 L 889.18359375 408 L 800 408 L 800 384 Z Z" stroke-miterlimit="10"/></g><g transform="translate(-310,-102) scale(1,1)"><g><path fill="none" stroke="none"/><text fill="#000000" stroke="none" font-family="Arial" font-size="13px" font-style="normal" font-weight="bold" text-decoration="none" x="830.503173828125" y="402">Date</text></g></g><g transform="translate(-310,-102) scale(1,1)"><path fill="none" stroke="#000000" d="M 800 396 L 723 396" stroke-miterlimit="10"/></g><g transform="translate(-310,-102) scale(1,1)"><path fill="none" stroke="#000000" d="M 733.1626748576241 391.790482243984 L 723 396 L 733.1626748576241 400.209517756016" stroke-miterlimit="10"/></g><g transform="translate(-310,-102) scale(1,1)"><rect fill="#C0C0C0" stroke="none" x="807" y="559" width="89.18359375" height="24" opacity="0.2"/></g><g transform="translate(-310,-102) scale(1,1)"><rect fill="#ebffd8" stroke="none" x="800" y="552" width="89.18359375" height="24"/></g><g transform="translate(-310,-102) scale(1,1)"><path fill="none" stroke="#000000" d="M 800 552 L 889.18359375 552 L 889.18359375 576 L 800 576 L 800 552 Z Z" stroke-miterlimit="10"/></g><g transform="translate(-310,-102) scale(1,1)"><rect fill="#ebffd8" stroke="none" x="800" y="552" width="89.18359375" height="24"/></g><g transform="translate(-310,-102) scale(1,1)"><path fill="none" stroke="#000000" d="M 800 552 L 889.18359375 552 L 889.18359375 576 L 800 576 L 800 552 Z Z" stroke-miterlimit="10"/></g><g transform="translate(-310,-102) scale(1,1)"><g><path fill="none" stroke="none"/><text fill="#000000" stroke="none" font-family="Arial" font-size="13px" font-style="normal" font-weight="bold" text-decoration="none" x="805.58544921875" y="570">TheatreZone</text></g></g><g transform="translate(-310,-102) scale(1,1)"><path fill="none" stroke="#000000" d="M 799 563 L 726 563" stroke-miterlimit="10"/></g><g transform="translate(-310,-102) scale(1,1)"><path fill="none" stroke="#000000" d="M 736.1626748576241 558.790482243984 L 726 563 L 736.1626748576241 567.209517756016" stroke-miterlimit="10"/></g><g transform="translate(-310,-102) scale(1,1)"><rect fill="#C0C0C0" stroke="none" x="799" y="711" width="89.18359375" height="24" opacity="0.2"/></g><g transform="translate(-310,-102) scale(1,1)"><rect fill="#ebffd8" stroke="none" x="792" y="704" width="89.18359375" height="24"/></g><g transform="translate(-310,-102) scale(1,1)"><path fill="none" stroke="#000000" d="M 792 704 L 881.18359375 704 L 881.18359375 728 L 792 728 L 792 704 Z Z" stroke-miterlimit="10"/></g><g transform="translate(-310,-102) scale(1,1)"><rect fill="#ebffd8" stroke="none" x="792" y="704" width="89.18359375" height="24"/></g><g transform="translate(-310,-102) scale(1,1)"><path fill="none" stroke="#000000" d="M 792 704 L 881.18359375 704 L 881.18359375 728 L 792 728 L 792 704 Z Z" stroke-miterlimit="10"/></g><g transform="translate(-310,-102) scale(1,1)"><g><path fill="none" stroke="none"/><text fill="#000000" stroke="none" font-family="Arial" font-size="13px" font-style="normal" font-weight="bold" text-decoration="none" x="799.3818359375" y="722">TheatreSeat</text></g></g><g transform="translate(-310,-102) scale(1,1)"><path fill="none" stroke="#000000" d="M 791 715 L 734 715" stroke-miterlimit="10"/></g><g transform="translate(-310,-102) scale(1,1)"><path fill="none" stroke="#000000" d="M 744.1626748576241 710.790482243984 L 734 715 L 744.1626748576241 719.209517756016" stroke-miterlimit="10"/></g><g transform="translate(-310,-102) scale(1,1)"><rect fill="#C0C0C0" stroke="none" x="767" y="887" width="156.15771484375" height="24" opacity="0.2"/></g><g transform="translate(-310,-102) scale(1,1)"><rect fill="#ebffd8" stroke="none" x="760" y="880" width="156.15771484375" height="24"/></g><g transform="translate(-310,-102) scale(1,1)"><path fill="none" stroke="#000000" d="M 760 880 L 916.15771484375 880 L 916.15771484375 904 L 760 904 L 760 880 Z Z" stroke-miterlimit="10"/></g><g transform="translate(-310,-102) scale(1,1)"><rect fill="#ebffd8" stroke="none" x="760" y="880" width="156.15771484375" height="24"/></g><g transform="translate(-310,-102) scale(1,1)"><path fill="none" stroke="#000000" d="M 760 880 L 916.15771484375 880 L 916.15771484375 904 L 760 904 L 760 880 Z Z" stroke-miterlimit="10"/></g><g transform="translate(-310,-102) scale(1,1)"><g><path fill="none" stroke="none"/><text fill="#000000" stroke="none" font-family="Arial" font-size="13px" font-style="normal" font-weight="bold" text-decoration="none" x="764.5" y="898">TheaterTicketDispenser</text></g></g><g transform="translate(-310,-102) scale(1,1)"><path fill="none" stroke="#000000" d="M 760 891 L 706 891" stroke-miterlimit="10"/></g><g transform="translate(-310,-102) scale(1,1)"><path fill="none" stroke="#000000" d="M 716.1626748576241 886.790482243984 L 706 891 L 716.1626748576241 895.209517756016" stroke-miterlimit="10"/></g><g transform="translate(-310,-102) scale(1,1)"><rect fill="#C0C0C0" stroke="none" x="799" y="1047" width="106.55712890625" height="24" opacity="0.2"/></g><g transform="translate(-310,-102) scale(1,1)"><rect fill="#ebffd8" stroke="none" x="792" y="1040" width="106.55712890625" height="24"/></g><g transform="translate(-310,-102) scale(1,1)"><path fill="none" stroke="#000000" d="M 792 1040 L 898.55712890625 1040 L 898.55712890625 1064 L 792 1064 L 792 1040 Z Z" stroke-miterlimit="10"/></g><g transform="translate(-310,-102) scale(1,1)"><rect fill="#ebffd8" stroke="none" x="792" y="1040" width="106.55712890625" height="24"/></g><g transform="translate(-310,-102) scale(1,1)"><path fill="none" stroke="#000000" d="M 792 1040 L 898.55712890625 1040 L 898.55712890625 1064 L 792 1064 L 792 1040 Z Z" stroke-miterlimit="10"/></g><g transform="translate(-310,-102) scale(1,1)"><g><path fill="none" stroke="none"/><text fill="#000000" stroke="none" font-family="Arial" font-size="13px" font-style="normal" font-weight="bold" text-decoration="none" x="796.5" y="1058">UrjcBankServer</text></g></g><g transform="translate(-310,-102) scale(1,1)"><path fill="none" stroke="#000000" d="M 792 1055 L 725 1055" stroke-miterlimit="10"/></g><g transform="translate(-310,-102) scale(1,1)"><path fill="none" stroke="#000000" d="M 735.1626748576241 1050.7904822439841 L 725 1055 L 735.1626748576241 1059.2095177560159" stroke-miterlimit="10"/></g><g transform="translate(-310,-102) scale(1,1)"><rect fill="#ffffd8" stroke="none" x="440" y="168" width="160" height="40"/></g><g transform="translate(-310,-102) scale(1,1)"><path fill="none" stroke="#000000" d="M 440 168 L 600 168 L 600 208 L 440 208 L 440 168 Z Z" stroke-miterlimit="10"/></g><g transform="translate(-310,-102) scale(1,1)"><g><path fill="none" stroke="none"/><text fill="#000000" stroke="none" font-family="Arial" font-size="13px" font-style="normal" font-weight="normal" text-decoration="none" x="462.544189453125" y="183">Han pasado 30s sin</text><text fill="#000000" stroke="none" font-family="Arial" font-size="13px" font-style="normal" font-weight="normal" text-decoration="none" x="476.27099609375" y="196">ninguna acción</text></g></g><g transform="translate(-310,-102) scale(1,1)"><path fill="#C0C0C0" stroke="none" d="M 777 1127 L 851.25537109375 1127 Q 861.25537109375 1127 861.25537109375 1137 L 861.25537109375 1157 Q 861.25537109375 1167 851.25537109375 1167 L 777 1167 Q 767 1167 767 1157 L 767 1137 Q 767 1127 777 1127 Z" opacity="0.2"/></g><g transform="translate(-310,-102) scale(1,1)"><path fill="#a3ffa3" stroke="none" d="M 770 1120 L 844.25537109375 1120 Q 854.25537109375 1120 854.25537109375 1130 L 854.25537109375 1150 Q 854.25537109375 1160 844.25537109375 1160 L 770 1160 Q 760 1160 760 1150 L 760 1130 Q 760 1120 770 1120 Z"/></g><g transform="translate(-310,-102) scale(1,1)"><path fill="none" stroke="#000000" d="M 770 1120 L 844.25537109375 1120 Q 854.25537109375 1120 854.25537109375 1130 L 854.25537109375 1150 Q 854.25537109375 1160 844.25537109375 1160 L 770 1160 Q 760 1160 760 1150 L 760 1130 Q 760 1120 770 1120 Z" stroke-miterlimit="10"/></g><g transform="translate(-310,-102) scale(1,1)"><g><path fill="none" stroke="none"/><text fill="#000000" stroke="none" font-family="Arial" font-size="13px" font-style="normal" font-weight="bold" text-decoration="none" x="764.5" y="1138">Realizar Pago</text></g></g><g transform="translate(-310,-102) scale(1,1)"><path fill="#C0C0C0" stroke="none" d="M 633 1391 L 714.96142578125 1391 Q 724.96142578125 1391 724.96142578125 1401 L 724.96142578125 1434 Q 724.96142578125 1444 714.96142578125 1444 L 633 1444 Q 623 1444 623 1434 L 623 1401 Q 623 1391 633 1391 Z" opacity="0.2"/></g><g transform="translate(-310,-102) scale(1,1)"><path fill="#a3ffa3" stroke="none" d="M 626 1384 L 707.96142578125 1384 Q 717.96142578125 1384 717.96142578125 1394 L 717.96142578125 1427 Q 717.96142578125 1437 707.96142578125 1437 L 626 1437 Q 616 1437 616 1427 L 616 1394 Q 616 1384 626 1384 Z"/></g><g transform="translate(-310,-102) scale(1,1)"><path fill="none" stroke="#000000" d="M 626 1384 L 707.96142578125 1384 Q 717.96142578125 1384 717.96142578125 1394 L 717.96142578125 1427 Q 717.96142578125 1437 707.96142578125 1437 L 626 1437 Q 616 1437 616 1427 L 616 1394 Q 616 1384 626 1384 Z" stroke-miterlimit="10"/></g><g transform="translate(-310,-102) scale(1,1)"><g><path fill="none" stroke="none"/><text fill="#000000" stroke="none" font-family="Arial" font-size="13px" font-style="normal" font-weight="bold" text-decoration="none" x="640.974365234375" y="1402">Imprimir</text><text fill="#000000" stroke="none" font-family="Arial" font-size="13px" font-style="normal" font-weight="bold" text-decoration="none" x="648.312255859375" y="1415">Ticket</text></g></g><g transform="translate(-310,-102) scale(1,1)"><rect fill="#ffebd8" stroke="none" x="800" y="280" width="144" height="50"/></g><g transform="translate(-310,-102) scale(1,1)"><path fill="none" stroke="#000000" d="M 800 280 L 944 280 L 944 330 L 800 330 L 800 280 Z Z" stroke-miterlimit="10"/></g><g transform="translate(-310,-102) scale(1,1)"><g><path fill="none" stroke="none"/><text fill="#000000" stroke="none" font-family="Arial" font-size="13px" font-style="normal" font-weight="normal" text-decoration="none" x="806.965087890625" y="295">En cualquier momento</text><text fill="#000000" stroke="none" font-family="Arial" font-size="13px" font-style="normal" font-weight="normal" text-decoration="none" x="812.0146484375" y="308">se puede cancelar la</text><text fill="#000000" stroke="none" font-family="Arial" font-size="13px" font-style="normal" font-weight="normal" text-decoration="none" x="843.451416015625" y="321">operación</text></g></g><g transform="translate(-310,-102) scale(1,1)"><path fill="none" stroke="#000000" d="M 688 1143 L 760 1143" stroke-miterlimit="10"/></g><g transform="translate(-310,-102) scale(1,1)"><path fill="none" stroke="#000000" d="M 749.8373251423759 1147.2095177560159 L 760 1143 L 749.8373251423758 1138.7904822439841" stroke-miterlimit="10"/></g><g transform="translate(-310,-102) scale(1,1)"><path fill="none" stroke="#000000" d="M 808 1160 L 808 1216 L 722 1216" stroke-miterlimit="10"/></g><g transform="translate(-310,-102) scale(1,1)"><path fill="none" stroke="#000000" d="M 732.1626748576241 1211.7904822439841 L 722 1216 L 732.1626748576241 1220.2095177560159" stroke-miterlimit="10"/></g><g transform="translate(-310,-102) scale(1,1)"><path fill="none" stroke="#000000" d="M 664 1437 L 664 1496" stroke-miterlimit="10"/></g><g transform="translate(-310,-102) scale(1,1)"><path fill="none" stroke="#000000" d="M 659.790482243984 1485.837325142376 L 664 1496 L 668.209517756016 1485.837325142376" stroke-miterlimit="10"/></g><g transform="translate(-310,-102) scale(1,1)"><g><path fill="none" stroke="none"/><text fill="#000000" stroke="none" font-family="Arial" font-size="13px" font-style="normal" font-weight="normal" text-decoration="none" x="621.5" y="1546">Volver al Inicio</text></g></g><g transform="translate(-310,-102) scale(1,1)"><path fill="none" stroke="#000000" d="M 638 472 L 528 472 L 528 216 L 609 216" stroke-miterlimit="10"/></g><g transform="translate(-310,-102) scale(1,1)"><path fill="none" stroke="#000000" d="M 598.8373251423759 220.209517756016 L 609 216 L 598.8373251423758 211.790482243984" stroke-miterlimit="10"/></g><g transform="translate(-310,-102) scale(1,1)"><path fill="#C0C0C0" stroke="none" d="M 630 1199 L 719.19775390625 1199 Q 729.19775390625 1199 729.19775390625 1209 L 729.19775390625 1229 Q 729.19775390625 1239 719.19775390625 1239 L 630 1239 Q 620 1239 620 1229 L 620 1209 Q 620 1199 630 1199 Z" opacity="0.2"/></g><g transform="translate(-310,-102) scale(1,1)"><path fill="#ffd8ff" stroke="none" d="M 623 1192 L 712.19775390625 1192 Q 722.19775390625 1192 722.19775390625 1202 L 722.19775390625 1222 Q 722.19775390625 1232 712.19775390625 1232 L 623 1232 Q 613 1232 613 1222 L 613 1202 Q 613 1192 623 1192 Z"/></g><g transform="translate(-310,-102) scale(1,1)"><path fill="none" stroke="#000000" d="M 623 1192 L 712.19775390625 1192 Q 722.19775390625 1192 722.19775390625 1202 L 722.19775390625 1222 Q 722.19775390625 1232 712.19775390625 1232 L 623 1232 Q 613 1232 613 1222 L 613 1202 Q 613 1192 623 1192 Z" stroke-miterlimit="10"/></g><g transform="translate(-310,-102) scale(1,1)"><g><path fill="none" stroke="none"/><text fill="#000000" stroke="none" font-family="Arial" font-size="13px" font-style="normal" font-weight="bold" text-decoration="none" x="617.5" y="1210">Devolver Tarjeta</text></g></g><g transform="translate(-310,-102) scale(1,1)"><path fill="#C0C0C0" stroke="none" d="M 639 983.5 L 671.5 951 L 703 983.5 L 671.5 1015 L 639 983.5" opacity="0.2"/></g><g transform="translate(-310,-102) scale(1,1)"><path fill="#ffe2d8" stroke="none" d="M 632 976 L 664 944 L 696 976 L 664 1008 L 632 976"/></g><g transform="translate(-310,-102) scale(1,1)"><path fill="none" stroke="#000000" d="M 632 976 L 664 944 L 696 976 L 664 1008 L 632 976 L 632 976" stroke-miterlimit="10"/></g><g transform="translate(-310,-102) scale(1,1)"><path fill="none" stroke="#000000" d="M 664 1009 L 665 1023" stroke-miterlimit="10"/></g><g transform="translate(-310,-102) scale(1,1)"><path fill="none" stroke="#000000" d="M 660.0771192885778 1013.1630672716996 L 665 1023 L 668.4747595042381 1012.5632358277238" stroke-miterlimit="10"/></g><g transform="translate(-310,-102) scale(1,1)"><g><path fill="none" stroke="none"/><text fill="#000000" stroke="none" font-family="Arial" font-size="13px" font-style="normal" font-weight="normal" text-decoration="none" x="679.5" y="1019"> [Tarjeta Introducida]</text></g></g><g transform="translate(-310,-102) scale(1,1)"><path fill="none" stroke="#000000" d="M 632 976 L 528 976 L 528 216 L 609 216" stroke-miterlimit="10"/></g><g transform="translate(-310,-102) scale(1,1)"><path fill="none" stroke="#000000" d="M 598.8373251423759 220.209517756016 L 609 216 L 598.8373251423758 211.790482243984" stroke-miterlimit="10"/></g><g transform="translate(-310,-102) scale(1,1)"><path fill="#C0C0C0" stroke="none" d="M 650 1327.5 L 674.5 1303 L 698 1327.5 L 674.5 1351 L 650 1327.5" opacity="0.2"/></g><g transform="translate(-310,-102) scale(1,1)"><path fill="#ffe2d8" stroke="none" d="M 643 1320 L 667 1296 L 691 1320 L 667 1344 L 643 1320"/></g><g transform="translate(-310,-102) scale(1,1)"><path fill="none" stroke="#000000" d="M 643 1320 L 667 1296 L 691 1320 L 667 1344 L 643 1320 L 643 1320" stroke-miterlimit="10"/></g><g transform="translate(-310,-102) scale(1,1)"><path fill="#C0C0C0" stroke="none" d="M 497 1343 L 565 1343 Q 575 1343 575 1353 L 575 1399 Q 575 1409 565 1409 L 497 1409 Q 487 1409 487 1399 L 487 1353 Q 487 1343 497 1343 Z" opacity="0.2"/></g><g transform="translate(-310,-102) scale(1,1)"><path fill="#ffadad" stroke="none" d="M 490 1336 L 558 1336 Q 568 1336 568 1346 L 568 1392 Q 568 1402 558 1402 L 490 1402 Q 480 1402 480 1392 L 480 1346 Q 480 1336 490 1336 Z"/></g><g transform="translate(-310,-102) scale(1,1)"><path fill="none" stroke="#000000" d="M 490 1336 L 558 1336 Q 568 1336 568 1346 L 568 1392 Q 568 1402 558 1402 L 490 1402 Q 480 1402 480 1392 L 480 1346 Q 480 1336 490 1336 Z" stroke-miterlimit="10"/></g><g transform="translate(-310,-102) scale(1,1)"><g><path fill="none" stroke="none"/><text fill="#000000" stroke="none" font-family="Arial" font-size="13px" font-style="normal" font-weight="bold" text-decoration="none" x="504.128662109375" y="1354">Tragar</text><text fill="#000000" stroke="none" font-family="Arial" font-size="13px" font-style="normal" font-weight="bold" text-decoration="none" x="493.775634765625" y="1367">Tarjeta de</text><text fill="#000000" stroke="none" font-family="Arial" font-size="13px" font-style="normal" font-weight="bold" text-decoration="none" x="501.25" y="1380">Crédito</text></g></g><g transform="translate(-310,-102) scale(1,1)"><path fill="none" stroke="#000000" d="M 667 1233 L 667 1295" stroke-miterlimit="10"/></g><g transform="translate(-310,-102) scale(1,1)"><path fill="none" stroke="#000000" d="M 662.790482243984 1284.837325142376 L 667 1295 L 671.209517756016 1284.837325142376" stroke-miterlimit="10"/></g><g transform="translate(-310,-102) scale(1,1)"><g><path fill="none" stroke="none"/><text fill="#000000" stroke="none" font-family="Arial" font-size="13px" font-style="normal" font-weight="normal" text-decoration="none" x="678.5" y="1291"> [¿Ha recogido la tarjeta?]</text></g></g><g transform="translate(-310,-102) scale(1,1)"><path fill="none" stroke="#000000" d="M 643 1320 L 524 1320 L 524 1336" stroke-miterlimit="10"/></g><g transform="translate(-310,-102) scale(1,1)"><path fill="none" stroke="#000000" d="M 519.790482243984 1325.837325142376 L 524 1336 L 528.209517756016 1325.837325142376" stroke-miterlimit="10"/></g><g transform="translate(-310,-102) scale(1,1)"><g><path fill="none" stroke="none"/><text fill="#000000" stroke="none" font-family="Arial" font-size="13px" font-style="normal" font-weight="normal" text-decoration="none" x="566.5" y="1315"> [false]</text></g></g><g transform="translate(-310,-102) scale(1,1)"><path fill="none" stroke="#000000" d="M 667 1344 L 667 1384" stroke-miterlimit="10"/></g><g transform="translate(-310,-102) scale(1,1)"><path fill="none" stroke="#000000" d="M 662.790482243984 1373.837325142376 L 667 1384 L 671.209517756016 1373.837325142376" stroke-miterlimit="10"/></g><g transform="translate(-310,-102) scale(1,1)"><g><path fill="none" stroke="none"/><text fill="#000000" stroke="none" font-family="Arial" font-size="13px" font-style="normal" font-weight="normal" text-decoration="none" x="679.5" y="1367"> [true]</text></g></g><g transform="translate(-310,-102) scale(1,1)"><rect fill="#ffffd8" stroke="none" x="376" y="1264" width="160" height="50"/></g><g transform="translate(-310,-102) scale(1,1)"><path fill="none" stroke="#000000" d="M 376 1264 L 536 1264 L 536 1314 L 376 1314 L 376 1264 Z Z" stroke-miterlimit="10"/></g><g transform="translate(-310,-102) scale(1,1)"><g><path fill="none" stroke="none"/><text fill="#000000" stroke="none" font-family="Arial" font-size="13px" font-style="normal" font-weight="normal" text-decoration="none" x="398.544189453125" y="1279">Han pasado 30s sin</text><text fill="#000000" stroke="none" font-family="Arial" font-size="13px" font-style="normal" font-weight="normal" text-decoration="none" x="398.188720703125" y="1292">recoger la tarjeta de</text><text fill="#000000" stroke="none" font-family="Arial" font-size="13px" font-style="normal" font-weight="normal" text-decoration="none" x="436.490478515625" y="1305">crédito</text></g></g><g transform="translate(-310,-102) scale(1,1)"><path fill="#C0C0C0" stroke="none" d="M 647 1151.5 L 671.5 1127 L 695 1151.5 L 671.5 1175 L 647 1151.5" opacity="0.2"/></g><g transform="translate(-310,-102) scale(1,1)"><path fill="#ffe2d8" stroke="none" d="M 640 1144 L 664 1120 L 688 1144 L 664 1168 L 640 1144"/></g><g transform="translate(-310,-102) scale(1,1)"><path fill="none" stroke="#000000" d="M 640 1144 L 664 1120 L 688 1144 L 664 1168 L 640 1144 L 640 1144" stroke-miterlimit="10"/></g><g transform="translate(-310,-102) scale(1,1)"><path fill="none" stroke="#000000" d="M 665 1091 L 664 1119" stroke-miterlimit="10"/></g><g transform="translate(-310,-102) scale(1,1)"><path fill="none" stroke="#000000" d="M 660.1558857396898 1108.6935561150472 L 664 1119 L 668.5695570998474 1108.99404437791" stroke-miterlimit="10"/></g><g transform="translate(-310,-102) scale(1,1)"><path fill="none" stroke="#000000" d="M 640 1144 L 560 1144 L 560 888 L 626 888" stroke-miterlimit="10"/></g><g transform="translate(-310,-102) scale(1,1)"><path fill="none" stroke="#000000" d="M 615.8373251423759 892.209517756016 L 626 888 L 615.8373251423758 883.790482243984" stroke-miterlimit="10"/></g><g transform="translate(-310,-102) scale(1,1)"><g><path fill="none" stroke="none"/><text fill="#000000" stroke="none" font-family="Arial" font-size="13px" font-style="normal" font-weight="normal" text-decoration="none" x="433.662353515625" y="1083"> [Se vuelve a pedir</text><text fill="#000000" stroke="none" font-family="Arial" font-size="13px" font-style="normal" font-weight="normal" text-decoration="none" x="431.846923828125" y="1096">una tarjeta que sea</text><text fill="#000000" stroke="none" font-family="Arial" font-size="13px" font-style="normal" font-weight="normal" text-decoration="none" x="468.7109375" y="1109">valida]</text></g></g></g></svg>