<svg xmlns="http://www.w3.org/2000/svg" xmlns:xlink="http://www.w3.org/1999/xlink" version="1.1" width="883" height="771"><defs/><g><g transform="translate(-262,-142) scale(1,1)"><rect fill="#ffffff" stroke="none" x="272" y="152" width="863" height="751"/></g><g transform="translate(-262,-142) scale(1,1)"><path fill="none" stroke="#000000" d="M 272 152 L 1135 152 L 1135 903 L 272 903 L 272 152 Z Z" stroke-miterlimit="10"/></g><g transform="translate(-262,-142) scale(1,1)"><rect fill="#C0C0C0" stroke="none" x="639" y="191" width="172.7568359375" height="57" opacity="0.2"/></g><g transform="translate(-262,-142) scale(1,1)"><rect fill="#ffd8d8" stroke="none" x="632" y="184" width="172.7568359375" height="57"/></g><g transform="translate(-262,-142) scale(1,1)"><path fill="none" stroke="#000000" d="M 632 184 L 804.7568359375 184 L 804.7568359375 241 L 632 241 L 632 184 Z Z" stroke-miterlimit="10"/></g><g transform="translate(-262,-142) scale(1,1)"><path fill="none" stroke="#000000" d="M 632 209 L 804.7568359375 209" stroke-miterlimit="10"/></g><g transform="translate(-262,-142) scale(1,1)"><path fill="none" stroke="#000000" d="M 632 219 L 804.7568359375 219" stroke-miterlimit="10"/></g><g transform="translate(-262,-142) scale(1,1)"><g><path fill="none" stroke="none"/><text fill="#000000" stroke="none" font-family="Arial" font-size="13px" font-style="normal" font-weight="bold" text-decoration="none" x="636.5" y="202">AutomaticTicketDispenser</text></g></g><g transform="translate(-262,-142) scale(1,1)"><g><path fill="none" stroke="none"/><text fill="#000000" stroke="none" font-family="Arial" font-size="13px" font-style="normal" font-weight="normal" text-decoration="none" x="637" y="235">+main()</text><path fill="none" stroke="#000000" d="M 637 236.5 L 681.42724609375 236.5" stroke-miterlimit="10"/></g></g><g transform="translate(-262,-142) scale(1,1)"><rect fill="#C0C0C0" stroke="none" x="501" y="727" width="211.83935546875" height="100" opacity="0.2"/></g><g transform="translate(-262,-142) scale(1,1)"><rect fill="#fff5d8" stroke="none" x="494" y="720" width="211.83935546875" height="100"/></g><g transform="translate(-262,-142) scale(1,1)"><path fill="none" stroke="#000000" d="M 494 720 L 705.83935546875 720 L 705.83935546875 820 L 494 820 L 494 720 Z Z" stroke-miterlimit="10"/></g><g transform="translate(-262,-142) scale(1,1)"><path fill="none" stroke="#000000" d="M 494 745 L 705.83935546875 745" stroke-miterlimit="10"/></g><g transform="translate(-262,-142) scale(1,1)"><path fill="none" stroke="#000000" d="M 494 783 L 705.83935546875 783" stroke-miterlimit="10"/></g><g transform="translate(-262,-142) scale(1,1)"><g><path fill="none" stroke="none"/><text fill="#000000" stroke="none" font-family="Arial" font-size="13px" font-style="normal" font-weight="bold" text-decoration="none" x="569.222412109375" y="738">Language</text></g></g><g transform="translate(-262,-142) scale(1,1)"><g><path fill="none" stroke="none"/><text fill="#000000" stroke="none" font-family="Arial" font-size="13px" font-style="normal" font-weight="normal" text-decoration="none" x="499" y="761">-dictionary: Map</text></g></g><g transform="translate(-262,-142) scale(1,1)"><g><path fill="none" stroke="none"/><text fill="#000000" stroke="none" font-family="Arial" font-size="13px" font-style="normal" font-weight="normal" text-decoration="none" x="499" y="776">-iconLanguage: String</text></g></g><g transform="translate(-262,-142) scale(1,1)"><g><path fill="none" stroke="none"/><text fill="#000000" stroke="none" font-family="Arial" font-size="13px" font-style="normal" font-weight="normal" text-decoration="none" x="499" y="799">+getIconLanguage(): String</text></g></g><g transform="translate(-262,-142) scale(1,1)"><g><path fill="none" stroke="none"/><text fill="#000000" stroke="none" font-family="Arial" font-size="13px" font-style="normal" font-weight="normal" text-decoration="none" x="499" y="814">+getDictionary(): Map</text></g></g><g transform="translate(-262,-142) scale(1,1)"><rect fill="#C0C0C0" stroke="none" x="671" y="415" width="116.65625" height="87" opacity="0.2"/></g><g transform="translate(-262,-142) scale(1,1)"><rect fill="#d8e5ff" stroke="none" x="664" y="408" width="116.65625" height="87"/></g><g transform="translate(-262,-142) scale(1,1)"><path fill="none" stroke="#000000" d="M 664 408 L 780.65625 408 L 780.65625 495 L 664 495 L 664 408 Z Z" stroke-miterlimit="10"/></g><g transform="translate(-262,-142) scale(1,1)"><path fill="none" stroke="#000000" d="M 664 433 L 780.65625 433" stroke-miterlimit="10"/></g><g transform="translate(-262,-142) scale(1,1)"><path fill="none" stroke="#000000" d="M 664 443 L 780.65625 443" stroke-miterlimit="10"/></g><g transform="translate(-262,-142) scale(1,1)"><g><path fill="none" stroke="none"/><text fill="#000000" stroke="none" font-family="Arial" font-size="13px" font-style="italic" font-weight="bold" text-decoration="none" x="691.630859375" y="426">Operation</text></g></g><g transform="translate(-262,-142) scale(1,1)"><g><path fill="none" stroke="none"/><text fill="#000000" stroke="none" font-family="Arial" font-size="13px" font-style="italic" font-weight="normal" text-decoration="none" x="669" y="459">+getOperation()</text></g></g><g transform="translate(-262,-142) scale(1,1)"><g><path fill="none" stroke="none"/><text fill="#000000" stroke="none" font-family="Arial" font-size="13px" font-style="italic" font-weight="normal" text-decoration="none" x="669" y="474">+doOperation()</text></g></g><g transform="translate(-262,-142) scale(1,1)"><g><path fill="none" stroke="none"/><text fill="#000000" stroke="none" font-family="Arial" font-size="13px" font-style="normal" font-weight="normal" text-decoration="none" x="669" y="489">-cancelOperation()</text></g></g><g transform="translate(-262,-142) scale(1,1)"><rect fill="#C0C0C0" stroke="none" x="758" y="727" width="168.8212890625" height="145" opacity="0.2"/></g><g transform="translate(-262,-142) scale(1,1)"><rect fill="#fff5d8" stroke="none" x="751" y="720" width="168.8212890625" height="145"/></g><g transform="translate(-262,-142) scale(1,1)"><path fill="none" stroke="#000000" d="M 751 720 L 919.8212890625 720 L 919.8212890625 865 L 751 865 L 751 720 Z Z" stroke-miterlimit="10"/></g><g transform="translate(-262,-142) scale(1,1)"><path fill="none" stroke="#000000" d="M 751 745 L 919.8212890625 745" stroke-miterlimit="10"/></g><g transform="translate(-262,-142) scale(1,1)"><path fill="none" stroke="#000000" d="M 751 813 L 919.8212890625 813" stroke-miterlimit="10"/></g><g transform="translate(-262,-142) scale(1,1)"><g><path fill="none" stroke="none"/><text fill="#000000" stroke="none" font-family="Arial" font-size="13px" font-style="normal" font-weight="bold" text-decoration="none" x="781.960205078125" y="738">TheatreActuation</text></g></g><g transform="translate(-262,-142) scale(1,1)"><g><path fill="none" stroke="none"/><text fill="#000000" stroke="none" font-family="Arial" font-size="13px" font-style="normal" font-weight="normal" text-decoration="none" x="756" y="761">-posterAct: String</text></g></g><g transform="translate(-262,-142) scale(1,1)"><g><path fill="none" stroke="none"/><text fill="#000000" stroke="none" font-family="Arial" font-size="13px" font-style="normal" font-weight="normal" text-decoration="none" x="756" y="776">-nameAct: String</text></g></g><g transform="translate(-262,-142) scale(1,1)"><g><path fill="none" stroke="none"/><text fill="#000000" stroke="none" font-family="Arial" font-size="13px" font-style="normal" font-weight="normal" text-decoration="none" x="756" y="791">-sinopsisAct: String</text></g></g><g transform="translate(-262,-142) scale(1,1)"><g><path fill="none" stroke="none"/><text fill="#000000" stroke="none" font-family="Arial" font-size="13px" font-style="normal" font-weight="normal" text-decoration="none" x="756" y="806">-price: int</text></g></g><g transform="translate(-262,-142) scale(1,1)"><g><path fill="none" stroke="none"/><text fill="#000000" stroke="none" font-family="Arial" font-size="13px" font-style="normal" font-weight="normal" text-decoration="none" x="756" y="829">+showActuationsAvailable()</text></g></g><g transform="translate(-262,-142) scale(1,1)"><g><path fill="none" stroke="none"/><text fill="#000000" stroke="none" font-family="Arial" font-size="13px" font-style="normal" font-weight="normal" text-decoration="none" x="756" y="844">+showActuationInfo()</text></g></g><g transform="translate(-262,-142) scale(1,1)"><g><path fill="none" stroke="none"/><text fill="#000000" stroke="none" font-family="Arial" font-size="13px" font-style="normal" font-weight="normal" text-decoration="none" x="756" y="859">+selectActuation(): String</text></g></g><g transform="translate(-262,-142) scale(1,1)"><rect fill="#C0C0C0" stroke="none" x="671" y="287" width="119.18896484375" height="72" opacity="0.2"/></g><g transform="translate(-262,-142) scale(1,1)"><rect fill="#d8f2ff" stroke="none" x="664" y="280" width="119.18896484375" height="72"/></g><g transform="translate(-262,-142) scale(1,1)"><path fill="none" stroke="#000000" d="M 664 280 L 783.18896484375 280 L 783.18896484375 352 L 664 352 L 664 280 Z Z" stroke-miterlimit="10"/></g><g transform="translate(-262,-142) scale(1,1)"><path fill="none" stroke="#000000" d="M 664 305 L 783.18896484375 305" stroke-miterlimit="10"/></g><g transform="translate(-262,-142) scale(1,1)"><path fill="none" stroke="#000000" d="M 664 315 L 783.18896484375 315" stroke-miterlimit="10"/></g><g transform="translate(-262,-142) scale(1,1)"><g><path fill="none" stroke="none"/><text fill="#000000" stroke="none" font-family="Arial" font-size="13px" font-style="normal" font-weight="bold" text-decoration="none" x="706.6240234375" y="298">Menu</text></g></g><g transform="translate(-262,-142) scale(1,1)"><g><path fill="none" stroke="none"/><text fill="#000000" stroke="none" font-family="Arial" font-size="13px" font-style="normal" font-weight="normal" text-decoration="none" x="669" y="331">+initialOperation()</text></g></g><g transform="translate(-262,-142) scale(1,1)"><g><path fill="none" stroke="none"/><text fill="#000000" stroke="none" font-family="Arial" font-size="13px" font-style="normal" font-weight="normal" text-decoration="none" x="669" y="346">+showOperations()</text></g></g><g transform="translate(-262,-142) scale(1,1)"><path fill="none" stroke="#000000" d="M 720 241 L 720 280" stroke-miterlimit="10" stroke-dasharray="3"/></g><g transform="translate(-262,-142) scale(1,1)"><path fill="none" stroke="#000000" d="M 715.790482243984 269.83732514237585 L 720 280 L 724.209517756016 269.83732514237585" stroke-miterlimit="10"/></g><g transform="translate(-262,-142) scale(1,1)"><rect fill="#C0C0C0" stroke="none" x="799" y="599" width="95.68359375" height="44" opacity="0.2"/></g><g transform="translate(-262,-142) scale(1,1)"><rect fill="#d8e5ff" stroke="none" x="792" y="592" width="95.68359375" height="44"/></g><g transform="translate(-262,-142) scale(1,1)"><path fill="none" stroke="#000000" d="M 792 592 L 887.68359375 592 L 887.68359375 636 L 792 636 L 792 592 Z Z" stroke-miterlimit="10"/></g><g transform="translate(-262,-142) scale(1,1)"><path fill="none" stroke="#000000" d="M 792 617 L 887.68359375 617" stroke-miterlimit="10"/></g><g transform="translate(-262,-142) scale(1,1)"><path fill="none" stroke="#000000" d="M 792 627 L 887.68359375 627" stroke-miterlimit="10"/></g><g transform="translate(-262,-142) scale(1,1)"><g><path fill="none" stroke="none"/><text fill="#000000" stroke="none" font-family="Arial" font-size="13px" font-style="normal" font-weight="bold" text-decoration="none" x="796.5" y="610">SaleActuation</text></g></g><g transform="translate(-262,-142) scale(1,1)"><path fill="none" stroke="#000000" d="M 600 592 L 600 536 L 720 536 L 720 495" stroke-miterlimit="10"/></g><g transform="translate(-262,-142) scale(1,1)"><path fill="#FFFFFF" stroke="none" d="M 728.419035512032 515.3253497152483 L 720 495 L 711.580964487968 515.3253497152483"/></g><g transform="translate(-262,-142) scale(1,1)"><path fill="none" stroke="#000000" d="M 728.419035512032 515.3253497152483 L 720 495 L 711.580964487968 515.3253497152483 L 728.419035512032 515.3253497152483" stroke-miterlimit="10"/></g><g transform="translate(-262,-142) scale(1,1)"><path fill="none" stroke="#000000" d="M 832 592 L 832 536 L 720 536 L 720 495" stroke-miterlimit="10"/></g><g transform="translate(-262,-142) scale(1,1)"><path fill="#FFFFFF" stroke="none" d="M 728.419035512032 515.3253497152483 L 720 495 L 711.580964487968 515.3253497152483"/></g><g transform="translate(-262,-142) scale(1,1)"><path fill="none" stroke="#000000" d="M 728.419035512032 515.3253497152483 L 720 495 L 711.580964487968 515.3253497152483 L 728.419035512032 515.3253497152483" stroke-miterlimit="10"/></g><g transform="translate(-262,-142) scale(1,1)"><rect fill="#C0C0C0" stroke="none" x="335" y="583" width="151.7333984375" height="72" opacity="0.2"/></g><g transform="translate(-262,-142) scale(1,1)"><rect fill="#fff5d8" stroke="none" x="328" y="576" width="151.7333984375" height="72"/></g><g transform="translate(-262,-142) scale(1,1)"><path fill="none" stroke="#000000" d="M 328 576 L 479.7333984375 576 L 479.7333984375 648 L 328 648 L 328 576 Z Z" stroke-miterlimit="10"/></g><g transform="translate(-262,-142) scale(1,1)"><path fill="none" stroke="#000000" d="M 328 601 L 479.7333984375 601" stroke-miterlimit="10"/></g><g transform="translate(-262,-142) scale(1,1)"><path fill="none" stroke="#000000" d="M 328 611 L 479.7333984375 611" stroke-miterlimit="10"/></g><g transform="translate(-262,-142) scale(1,1)"><g><path fill="none" stroke="none"/><text fill="#000000" stroke="none" font-family="Arial" font-size="13px" font-style="normal" font-weight="bold" text-decoration="none" x="373.889892578125" y="594">Traductor</text></g></g><g transform="translate(-262,-142) scale(1,1)"><g><path fill="none" stroke="none"/><text fill="#000000" stroke="none" font-family="Arial" font-size="13px" font-style="normal" font-weight="normal" text-decoration="none" x="333" y="627">+changeText()</text></g></g><g transform="translate(-262,-142) scale(1,1)"><g><path fill="none" stroke="none"/><text fill="#000000" stroke="none" font-family="Arial" font-size="13px" font-style="normal" font-weight="normal" text-decoration="none" x="333" y="642">+setSoftwareLanguage()</text></g></g><g transform="translate(-262,-142) scale(1,1)"><path fill="none" stroke="#000000" d="M 528 613 L 480 613" stroke-miterlimit="10" stroke-dasharray="3"/></g><g transform="translate(-262,-142) scale(1,1)"><path fill="none" stroke="#000000" d="M 490.16267485762415 608.790482243984 L 480 613 L 490.16267485762415 617.209517756016" stroke-miterlimit="10"/></g><g transform="translate(-262,-142) scale(1,1)"><path fill="none" stroke="#000000" d="M 664 448 L 416 448 L 416 576" stroke-miterlimit="10" stroke-dasharray="3"/></g><g transform="translate(-262,-142) scale(1,1)"><path fill="none" stroke="#000000" d="M 411.790482243984 565.8373251423759 L 416 576 L 420.209517756016 565.8373251423759" stroke-miterlimit="10"/></g><g transform="translate(-262,-142) scale(1,1)"><rect fill="#C0C0C0" stroke="none" x="535" y="599" width="145.525390625" height="44" opacity="0.2"/></g><g transform="translate(-262,-142) scale(1,1)"><rect fill="#d8e5ff" stroke="none" x="528" y="592" width="145.525390625" height="44"/></g><g transform="translate(-262,-142) scale(1,1)"><path fill="none" stroke="#000000" d="M 528 592 L 673.525390625 592 L 673.525390625 636 L 528 636 L 528 592 Z Z" stroke-miterlimit="10"/></g><g transform="translate(-262,-142) scale(1,1)"><path fill="none" stroke="#000000" d="M 528 617 L 673.525390625 617" stroke-miterlimit="10"/></g><g transform="translate(-262,-142) scale(1,1)"><path fill="none" stroke="#000000" d="M 528 627 L 673.525390625 627" stroke-miterlimit="10"/></g><g transform="translate(-262,-142) scale(1,1)"><g><path fill="none" stroke="none"/><text fill="#000000" stroke="none" font-family="Arial" font-size="13px" font-style="normal" font-weight="bold" text-decoration="none" x="532.5" y="610">SetLanguageSoftware</text></g></g><g transform="translate(-262,-142) scale(1,1)"><path fill="none" stroke="#000000" d="M 720 352 L 720 408" stroke-miterlimit="10"/></g><g transform="translate(-262,-142) scale(1,1)"><path fill="#000000" stroke="none" d="M 715.790482243984 397.83732514237585 L 720 408 L 724.209517756016 397.83732514237585 L 720 386"/></g><g transform="translate(-262,-142) scale(1,1)"><path fill="none" stroke="#000000" d="M 715.790482243984 397.83732514237585 L 720 408 L 724.209517756016 397.83732514237585 L 720 386 L 715.790482243984 397.83732514237585" stroke-miterlimit="10"/></g><g transform="translate(-262,-142) scale(1,1)"><g><path fill="none" stroke="none"/><text fill="#000000" stroke="none" font-family="Arial" font-size="13px" font-style="normal" font-weight="normal" text-decoration="none" x="725.5" y="401">-operationsArrayList</text></g></g><g transform="translate(-262,-142) scale(1,1)"><g><path fill="none" stroke="none"/><text fill="#000000" stroke="none" font-family="Arial" font-size="13px" font-style="normal" font-weight="normal" text-decoration="none" x="686.5" y="403">0..*</text></g></g><g transform="translate(-262,-142) scale(1,1)"><path fill="none" stroke="#000000" d="M 416 648 L 416 770 L 494 770" stroke-miterlimit="10"/></g><g transform="translate(-262,-142) scale(1,1)"><path fill="#000000" stroke="none" d="M 483.83732514237585 774.209517756016 L 494 770 L 483.83732514237585 765.790482243984 L 472 770"/></g><g transform="translate(-262,-142) scale(1,1)"><path fill="none" stroke="#000000" d="M 483.83732514237585 774.209517756016 L 494 770 L 483.83732514237585 765.790482243984 L 472 770 L 483.83732514237585 774.209517756016" stroke-miterlimit="10"/></g><g transform="translate(-262,-142) scale(1,1)"><g><path fill="none" stroke="none"/><text fill="#000000" stroke="none" font-family="Arial" font-size="13px" font-style="normal" font-weight="normal" text-decoration="none" x="468.5" y="787">1</text></g></g><g transform="translate(-262,-142) scale(1,1)"><path fill="none" stroke="#000000" d="M 600 720 L 600 636" stroke-miterlimit="10"/></g><g transform="translate(-262,-142) scale(1,1)"><path fill="#FFFFFF" stroke="none" d="M 604.209517756016 646.1626748576241 L 600 636 L 595.790482243984 646.1626748576241 L 600 658"/></g><g transform="translate(-262,-142) scale(1,1)"><path fill="none" stroke="#000000" d="M 604.209517756016 646.1626748576241 L 600 636 L 595.790482243984 646.1626748576241 L 600 658 L 604.209517756016 646.1626748576241" stroke-miterlimit="10"/></g><g transform="translate(-262,-142) scale(1,1)"><g><path fill="none" stroke="none"/><text fill="#000000" stroke="none" font-family="Arial" font-size="13px" font-style="normal" font-weight="normal" text-decoration="none" x="607.13134765625" y="713">-languagesMap</text></g></g><g transform="translate(-262,-142) scale(1,1)"><g><path fill="none" stroke="none"/><text fill="#000000" stroke="none" font-family="Arial" font-size="13px" font-style="normal" font-weight="normal" text-decoration="none" x="575.5" y="714">0..*</text></g></g><g transform="translate(-262,-142) scale(1,1)"><path fill="none" stroke="#000000" d="M 829 720 L 829 636" stroke-miterlimit="10"/></g><g transform="translate(-262,-142) scale(1,1)"><path fill="#FFFFFF" stroke="none" d="M 833.209517756016 646.1626748576241 L 829 636 L 824.790482243984 646.1626748576241 L 829 658"/></g><g transform="translate(-262,-142) scale(1,1)"><path fill="none" stroke="#000000" d="M 833.209517756016 646.1626748576241 L 829 636 L 824.790482243984 646.1626748576241 L 829 658 L 833.209517756016 646.1626748576241" stroke-miterlimit="10"/></g><g transform="translate(-262,-142) scale(1,1)"><g><path fill="none" stroke="none"/><text fill="#000000" stroke="none" font-family="Arial" font-size="13px" font-style="normal" font-weight="normal" text-decoration="none" x="832.13134765625" y="712">-theatreActuationArrayList</text></g></g><g transform="translate(-262,-142) scale(1,1)"><g><path fill="none" stroke="none"/><text fill="#000000" stroke="none" font-family="Arial" font-size="13px" font-style="normal" font-weight="normal" text-decoration="none" x="799.5" y="714">0..*</text></g></g><g transform="translate(-262,-142) scale(1,1)"><rect fill="#C0C0C0" stroke="none" x="839" y="415" width="154.107421875" height="85" opacity="0.2"/></g><g transform="translate(-262,-142) scale(1,1)"><rect fill="#fff5d8" stroke="none" x="832" y="408" width="154.107421875" height="85"/></g><g transform="translate(-262,-142) scale(1,1)"><path fill="none" stroke="#000000" d="M 832 408 L 986.107421875 408 L 986.107421875 493 L 832 493 L 832 408 Z Z" stroke-miterlimit="10"/></g><g transform="translate(-262,-142) scale(1,1)"><path fill="none" stroke="#000000" d="M 832 433 L 986.107421875 433" stroke-miterlimit="10"/></g><g transform="translate(-262,-142) scale(1,1)"><path fill="none" stroke="#000000" d="M 832 456 L 986.107421875 456" stroke-miterlimit="10"/></g><g transform="translate(-262,-142) scale(1,1)"><g><path fill="none" stroke="none"/><text fill="#000000" stroke="none" font-family="Arial" font-size="13px" font-style="normal" font-weight="bold" text-decoration="none" x="890.38525390625" y="426">Ticket</text></g></g><g transform="translate(-262,-142) scale(1,1)"><g><path fill="none" stroke="none"/><text fill="#000000" stroke="none" font-family="Arial" font-size="13px" font-style="normal" font-weight="normal" text-decoration="none" x="837" y="449">-ticketText: List&lt;String&gt;</text></g></g><g transform="translate(-262,-142) scale(1,1)"><g><path fill="none" stroke="none"/><text fill="#000000" stroke="none" font-family="Arial" font-size="13px" font-style="normal" font-weight="normal" text-decoration="none" x="837" y="472">+addInfoToTicket(String)</text></g></g><g transform="translate(-262,-142) scale(1,1)"><g><path fill="none" stroke="none"/><text fill="#000000" stroke="none" font-family="Arial" font-size="13px" font-style="normal" font-weight="normal" text-decoration="none" x="837" y="487">+getTicket(): List&lt;String&gt;</text></g></g><g transform="translate(-262,-142) scale(1,1)"><path fill="none" stroke="#000000" d="M 781 448 L 832 448" stroke-miterlimit="10" stroke-dasharray="3"/></g><g transform="translate(-262,-142) scale(1,1)"><path fill="none" stroke="#000000" d="M 821.8373251423759 452.209517756016 L 832 448 L 821.8373251423758 443.790482243984" stroke-miterlimit="10"/></g></g></svg>