<svg xmlns="http://www.w3.org/2000/svg" xmlns:xlink="http://www.w3.org/1999/xlink" version="1.1" width="867" height="523"><defs/><g><g transform="translate(-334,-46) scale(1,1)"><rect fill="#ffffff" stroke="none" x="344" y="56" width="847" height="503"/></g><g transform="translate(-334,-46) scale(1,1)"><path fill="none" stroke="#000000" d="M 344 56 L 1191 56 L 1191 559 L 344 559 L 344 56 Z Z" stroke-miterlimit="10"/></g><g transform="translate(-334,-46) scale(1,1)"><rect fill="#C0C0C0" stroke="none" x="543" y="95" width="237.67431640625" height="222" opacity="0.2"/></g><g transform="translate(-334,-46) scale(1,1)"><rect fill="#d8fff8" stroke="none" x="536" y="88" width="237.67431640625" height="222"/></g><g transform="translate(-334,-46) scale(1,1)"><path fill="none" stroke="#000000" d="M 536 88 L 773.67431640625 88 L 773.67431640625 310 L 536 310 L 536 88 Z Z" stroke-miterlimit="10"/></g><g transform="translate(-334,-46) scale(1,1)"><path fill="none" stroke="#000000" d="M 536 113 L 773.67431640625 113" stroke-miterlimit="10"/></g><g transform="translate(-334,-46) scale(1,1)"><path fill="none" stroke="#000000" d="M 536 123 L 773.67431640625 123" stroke-miterlimit="10"/></g><g transform="translate(-334,-46) scale(1,1)"><g><path fill="none" stroke="none"/><text fill="#000000" stroke="none" font-family="Arial" font-size="13px" font-style="normal" font-weight="bold" text-decoration="none" x="581.25830078125" y="106">TheaterTicketDispenser</text></g></g><g transform="translate(-334,-46) scale(1,1)"><g><path fill="none" stroke="none"/><text fill="#000000" stroke="none" font-family="Arial" font-size="13px" font-style="normal" font-weight="normal" text-decoration="none" x="541" y="139">+TheaterTicketDispenser()</text></g></g><g transform="translate(-334,-46) scale(1,1)"><g><path fill="none" stroke="none"/><text fill="#000000" stroke="none" font-family="Arial" font-size="13px" font-style="normal" font-weight="normal" text-decoration="none" x="541" y="154">+setOption(String message)</text></g></g><g transform="translate(-334,-46) scale(1,1)"><g><path fill="none" stroke="none"/><text fill="#000000" stroke="none" font-family="Arial" font-size="13px" font-style="normal" font-weight="normal" text-decoration="none" x="541" y="169">+setTitle(String message)</text></g></g><g transform="translate(-334,-46) scale(1,1)"><g><path fill="none" stroke="none"/><text fill="#000000" stroke="none" font-family="Arial" font-size="13px" font-style="normal" font-weight="normal" text-decoration="none" x="541" y="184">+setDescription(String message)</text></g></g><g transform="translate(-334,-46) scale(1,1)"><g><path fill="none" stroke="none"/><text fill="#000000" stroke="none" font-family="Arial" font-size="13px" font-style="normal" font-weight="normal" text-decoration="none" x="541" y="199">+setMode(int mode)</text></g></g><g transform="translate(-334,-46) scale(1,1)"><g><path fill="none" stroke="none"/><text fill="#000000" stroke="none" font-family="Arial" font-size="13px" font-style="normal" font-weight="normal" text-decoration="none" x="541" y="214">+setImage(String imageFileName)</text></g></g><g transform="translate(-334,-46) scale(1,1)"><g><path fill="none" stroke="none"/><text fill="#000000" stroke="none" font-family="Arial" font-size="13px" font-style="normal" font-weight="normal" text-decoration="none" x="541" y="229">+waitEvent(int seconds): char</text></g></g><g transform="translate(-334,-46) scale(1,1)"><g><path fill="none" stroke="none"/><text fill="#000000" stroke="none" font-family="Arial" font-size="13px" font-style="normal" font-weight="normal" text-decoration="none" x="541" y="244">+print(String text): bool</text></g></g><g transform="translate(-334,-46) scale(1,1)"><g><path fill="none" stroke="none"/><text fill="#000000" stroke="none" font-family="Arial" font-size="13px" font-style="normal" font-weight="normal" text-decoration="none" x="541" y="259">+markSeat(int row, int column, int state)</text></g></g><g transform="translate(-334,-46) scale(1,1)"><g><path fill="none" stroke="none"/><text fill="#000000" stroke="none" font-family="Arial" font-size="13px" font-style="normal" font-weight="normal" text-decoration="none" x="541" y="274">+retainCreditCard(bool definitely)</text></g></g><g transform="translate(-334,-46) scale(1,1)"><g><path fill="none" stroke="none"/><text fill="#000000" stroke="none" font-family="Arial" font-size="13px" font-style="normal" font-weight="normal" text-decoration="none" x="541" y="289">+expelCreditCard(int seconds): bool</text></g></g><g transform="translate(-334,-46) scale(1,1)"><g><path fill="none" stroke="none"/><text fill="#000000" stroke="none" font-family="Arial" font-size="13px" font-style="normal" font-weight="normal" text-decoration="none" x="541" y="304">+getCardNumber(): long</text></g></g><g transform="translate(-334,-46) scale(1,1)"><rect fill="#C0C0C0" stroke="none" x="943" y="423" width="141.08203125" height="100" opacity="0.2"/></g><g transform="translate(-334,-46) scale(1,1)"><rect fill="#ffd8ff" stroke="none" x="936" y="416" width="141.08203125" height="100"/></g><g transform="translate(-334,-46) scale(1,1)"><path fill="none" stroke="#000000" d="M 936 416 L 1077.08203125 416 L 1077.08203125 516 L 936 516 L 936 416 Z Z" stroke-miterlimit="10"/></g><g transform="translate(-334,-46) scale(1,1)"><path fill="none" stroke="#000000" d="M 936 441 L 1077.08203125 441" stroke-miterlimit="10"/></g><g transform="translate(-334,-46) scale(1,1)"><path fill="none" stroke="#000000" d="M 936 464 L 1077.08203125 464" stroke-miterlimit="10"/></g><g transform="translate(-334,-46) scale(1,1)"><g><path fill="none" stroke="none"/><text fill="#000000" stroke="none" font-family="Arial" font-size="13px" font-style="normal" font-weight="bold" text-decoration="none" x="976.30712890625" y="434">PayTicket</text></g></g><g transform="translate(-334,-46) scale(1,1)"><g><path fill="none" stroke="none"/><text fill="#000000" stroke="none" font-family="Arial" font-size="13px" font-style="normal" font-weight="normal" text-decoration="none" x="941" y="457">-priceTicket: int</text></g></g><g transform="translate(-334,-46) scale(1,1)"><g><path fill="none" stroke="none"/><text fill="#000000" stroke="none" font-family="Arial" font-size="13px" font-style="normal" font-weight="normal" text-decoration="none" x="941" y="480">+setCardNumber()</text></g></g><g transform="translate(-334,-46) scale(1,1)"><g><path fill="none" stroke="none"/><text fill="#000000" stroke="none" font-family="Arial" font-size="13px" font-style="normal" font-weight="normal" text-decoration="none" x="941" y="495">+doPayment()</text></g></g><g transform="translate(-334,-46) scale(1,1)"><g><path fill="none" stroke="none"/><text fill="#000000" stroke="none" font-family="Arial" font-size="13px" font-style="normal" font-weight="normal" text-decoration="none" x="941" y="510">+setPriceTicket(int, int)</text></g></g><g transform="translate(-334,-46) scale(1,1)"><rect fill="#C0C0C0" stroke="none" x="879" y="207" width="263.72509765625" height="87" opacity="0.2"/></g><g transform="translate(-334,-46) scale(1,1)"><rect fill="#d8fff8" stroke="none" x="872" y="200" width="263.72509765625" height="87"/></g><g transform="translate(-334,-46) scale(1,1)"><path fill="none" stroke="#000000" d="M 872 200 L 1135.72509765625 200 L 1135.72509765625 287 L 872 287 L 872 200 Z Z" stroke-miterlimit="10"/></g><g transform="translate(-334,-46) scale(1,1)"><path fill="none" stroke="#000000" d="M 872 225 L 1135.72509765625 225" stroke-miterlimit="10"/></g><g transform="translate(-334,-46) scale(1,1)"><path fill="none" stroke="#000000" d="M 872 235 L 1135.72509765625 235" stroke-miterlimit="10"/></g><g transform="translate(-334,-46) scale(1,1)"><g><path fill="none" stroke="none"/><text fill="#000000" stroke="none" font-family="Arial" font-size="13px" font-style="normal" font-weight="bold" text-decoration="none" x="955.083984375" y="218">UrjcBankServer</text></g></g><g transform="translate(-334,-46) scale(1,1)"><g><path fill="none" stroke="none"/><text fill="#000000" stroke="none" font-family="Arial" font-size="13px" font-style="normal" font-weight="normal" text-decoration="none" x="877" y="251">+UrjcBankServer()</text></g></g><g transform="translate(-334,-46) scale(1,1)"><g><path fill="none" stroke="none"/><text fill="#000000" stroke="none" font-family="Arial" font-size="13px" font-style="normal" font-weight="normal" text-decoration="none" x="877" y="266">+doOperation(long cardNumber, int amount)</text></g></g><g transform="translate(-334,-46) scale(1,1)"><g><path fill="none" stroke="none"/><text fill="#000000" stroke="none" font-family="Arial" font-size="13px" font-style="normal" font-weight="normal" text-decoration="none" x="877" y="281">+comunicationAvailable(): bool</text></g></g><g transform="translate(-334,-46) scale(1,1)"><path fill="none" stroke="#000000" d="M 1000 416 L 1000 287" stroke-miterlimit="10" stroke-dasharray="3"/></g><g transform="translate(-334,-46) scale(1,1)"><path fill="none" stroke="#000000" d="M 1004.209517756016 297.16267485762415 L 1000 287 L 995.790482243984 297.16267485762415" stroke-miterlimit="10"/></g><g transform="translate(-334,-46) scale(1,1)"><rect fill="#C0C0C0" stroke="none" x="431" y="431" width="119.18896484375" height="72" opacity="0.2"/></g><g transform="translate(-334,-46) scale(1,1)"><rect fill="#d8f2ff" stroke="none" x="424" y="424" width="119.18896484375" height="72"/></g><g transform="translate(-334,-46) scale(1,1)"><path fill="none" stroke="#000000" d="M 424 424 L 543.18896484375 424 L 543.18896484375 496 L 424 496 L 424 424 Z Z" stroke-miterlimit="10"/></g><g transform="translate(-334,-46) scale(1,1)"><path fill="none" stroke="#000000" d="M 424 449 L 543.18896484375 449" stroke-miterlimit="10"/></g><g transform="translate(-334,-46) scale(1,1)"><path fill="none" stroke="#000000" d="M 424 459 L 543.18896484375 459" stroke-miterlimit="10"/></g><g transform="translate(-334,-46) scale(1,1)"><g><path fill="none" stroke="none"/><text fill="#000000" stroke="none" font-family="Arial" font-size="13px" font-style="normal" font-weight="bold" text-decoration="none" x="466.6240234375" y="442">Menu</text></g></g><g transform="translate(-334,-46) scale(1,1)"><g><path fill="none" stroke="none"/><text fill="#000000" stroke="none" font-family="Arial" font-size="13px" font-style="normal" font-weight="normal" text-decoration="none" x="429" y="475">+initialOperation()</text></g></g><g transform="translate(-334,-46) scale(1,1)"><g><path fill="none" stroke="none"/><text fill="#000000" stroke="none" font-family="Arial" font-size="13px" font-style="normal" font-weight="normal" text-decoration="none" x="429" y="490">+showOperations()</text></g></g><g transform="translate(-334,-46) scale(1,1)"><path fill="none" stroke="#000000" d="M 480 424 L 480 376 L 656 376 L 656 310" stroke-miterlimit="10" stroke-dasharray="3"/></g><g transform="translate(-334,-46) scale(1,1)"><path fill="none" stroke="#000000" d="M 660.209517756016 320.16267485762415 L 656 310 L 651.790482243984 320.16267485762415" stroke-miterlimit="10"/></g><g transform="translate(-334,-46) scale(1,1)"><rect fill="#C0C0C0" stroke="none" x="607" y="423" width="116.65625" height="87" opacity="0.2"/></g><g transform="translate(-334,-46) scale(1,1)"><rect fill="#d8e5ff" stroke="none" x="600" y="416" width="116.65625" height="87"/></g><g transform="translate(-334,-46) scale(1,1)"><path fill="none" stroke="#000000" d="M 600 416 L 716.65625 416 L 716.65625 503 L 600 503 L 600 416 Z Z" stroke-miterlimit="10"/></g><g transform="translate(-334,-46) scale(1,1)"><path fill="none" stroke="#000000" d="M 600 441 L 716.65625 441" stroke-miterlimit="10"/></g><g transform="translate(-334,-46) scale(1,1)"><path fill="none" stroke="#000000" d="M 600 451 L 716.65625 451" stroke-miterlimit="10"/></g><g transform="translate(-334,-46) scale(1,1)"><g><path fill="none" stroke="none"/><text fill="#000000" stroke="none" font-family="Arial" font-size="13px" font-style="italic" font-weight="bold" text-decoration="none" x="627.630859375" y="434">Operation</text></g></g><g transform="translate(-334,-46) scale(1,1)"><g><path fill="none" stroke="none"/><text fill="#000000" stroke="none" font-family="Arial" font-size="13px" font-style="italic" font-weight="normal" text-decoration="none" x="605" y="467">+getOperation()</text></g></g><g transform="translate(-334,-46) scale(1,1)"><g><path fill="none" stroke="none"/><text fill="#000000" stroke="none" font-family="Arial" font-size="13px" font-style="italic" font-weight="normal" text-decoration="none" x="605" y="482">+doOperation()</text></g></g><g transform="translate(-334,-46) scale(1,1)"><g><path fill="none" stroke="none"/><text fill="#000000" stroke="none" font-family="Arial" font-size="13px" font-style="normal" font-weight="normal" text-decoration="none" x="605" y="497">-cancelOperation()</text></g></g><g transform="translate(-334,-46) scale(1,1)"><path fill="none" stroke="#000000" d="M 656 416 L 656 310" stroke-miterlimit="10" stroke-dasharray="3"/></g><g transform="translate(-334,-46) scale(1,1)"><path fill="none" stroke="#000000" d="M 660.209517756016 320.16267485762415 L 656 310 L 651.790482243984 320.16267485762415" stroke-miterlimit="10"/></g><g transform="translate(-334,-46) scale(1,1)"><path fill="none" stroke="#000000" d="M 543 460 L 600 460" stroke-miterlimit="10"/></g><g transform="translate(-334,-46) scale(1,1)"><path fill="#000000" stroke="none" d="M 589.8373251423759 464.209517756016 L 600 460 L 589.8373251423758 455.790482243984 L 578 460"/></g><g transform="translate(-334,-46) scale(1,1)"><path fill="none" stroke="#000000" d="M 589.8373251423759 464.209517756016 L 600 460 L 589.8373251423758 455.790482243984 L 578 460 L 589.8373251423759 464.209517756016" stroke-miterlimit="10"/></g><g transform="translate(-334,-46) scale(1,1)"><g><path fill="none" stroke="none"/><text fill="#000000" stroke="none" font-family="Arial" font-size="13px" font-style="normal" font-weight="normal" text-decoration="none" x="514.5" y="515">-operationsArrayList</text></g></g><g transform="translate(-334,-46) scale(1,1)"><g><path fill="none" stroke="none"/><text fill="#000000" stroke="none" font-family="Arial" font-size="13px" font-style="normal" font-weight="normal" text-decoration="none" x="559.5" y="499">0..*</text></g></g><g transform="translate(-334,-46) scale(1,1)"><rect fill="#C0C0C0" stroke="none" x="791" y="447" width="95.68359375" height="44" opacity="0.2"/></g><g transform="translate(-334,-46) scale(1,1)"><rect fill="#d8e5ff" stroke="none" x="784" y="440" width="95.68359375" height="44"/></g><g transform="translate(-334,-46) scale(1,1)"><path fill="none" stroke="#000000" d="M 784 440 L 879.68359375 440 L 879.68359375 484 L 784 484 L 784 440 Z Z" stroke-miterlimit="10"/></g><g transform="translate(-334,-46) scale(1,1)"><path fill="none" stroke="#000000" d="M 784 465 L 879.68359375 465" stroke-miterlimit="10"/></g><g transform="translate(-334,-46) scale(1,1)"><path fill="none" stroke="#000000" d="M 784 475 L 879.68359375 475" stroke-miterlimit="10"/></g><g transform="translate(-334,-46) scale(1,1)"><g><path fill="none" stroke="none"/><text fill="#000000" stroke="none" font-family="Arial" font-size="13px" font-style="normal" font-weight="bold" text-decoration="none" x="788.5" y="458">SaleActuation</text></g></g><g transform="translate(-334,-46) scale(1,1)"><path fill="none" stroke="#000000" d="M 784 461 L 717 461" stroke-miterlimit="10"/></g><g transform="translate(-334,-46) scale(1,1)"><path fill="#FFFFFF" stroke="none" d="M 737.3253497152483 452.580964487968 L 717 461 L 737.3253497152483 469.419035512032"/></g><g transform="translate(-334,-46) scale(1,1)"><path fill="none" stroke="#000000" d="M 737.3253497152483 452.580964487968 L 717 461 L 737.3253497152483 469.419035512032 L 737.3253497152483 452.580964487968" stroke-miterlimit="10"/></g><g transform="translate(-334,-46) scale(1,1)"><path fill="none" stroke="#000000" d="M 880 464 L 936 464" stroke-miterlimit="10" stroke-dasharray="3"/></g><g transform="translate(-334,-46) scale(1,1)"><path fill="none" stroke="#000000" d="M 925.8373251423759 468.209517756016 L 936 464 L 925.8373251423758 459.790482243984" stroke-miterlimit="10"/></g></g></svg>