<svg xmlns="http://www.w3.org/2000/svg" xmlns:xlink="http://www.w3.org/1999/xlink" version="1.1" width="796" height="811"><defs/><g><g transform="translate(-238,-22) scale(1,1)"><rect fill="#ffffff" stroke="none" x="248" y="32" width="776" height="791"/></g><g transform="translate(-238,-22) scale(1,1)"><path fill="none" stroke="#000000" d="M 248 32 L 1024 32 L 1024 823 L 248 823 L 248 32 Z Z" stroke-miterlimit="10"/></g><g transform="translate(-238,-22) scale(1,1)"><rect fill="#C0C0C0" stroke="none" x="594" y="71" width="89.57080078125" height="72" opacity="0.2"/></g><g transform="translate(-238,-22) scale(1,1)"><rect fill="#ffd8eb" stroke="none" x="587" y="64" width="89.57080078125" height="72"/></g><g transform="translate(-238,-22) scale(1,1)"><path fill="none" stroke="#000000" d="M 587 64 L 676.57080078125 64 L 676.57080078125 136 L 587 136 L 587 64 Z Z" stroke-miterlimit="10"/></g><g transform="translate(-238,-22) scale(1,1)"><path fill="none" stroke="#000000" d="M 587 89 L 676.57080078125 89" stroke-miterlimit="10"/></g><g transform="translate(-238,-22) scale(1,1)"><path fill="none" stroke="#000000" d="M 587 99 L 676.57080078125 99" stroke-miterlimit="10"/></g><g transform="translate(-238,-22) scale(1,1)"><g><path fill="none" stroke="none"/><text fill="#000000" stroke="none" font-family="Arial" font-size="13px" font-style="normal" font-weight="bold" text-decoration="none" x="620.588134765625" y="82">File</text></g></g><g transform="translate(-238,-22) scale(1,1)"><g><path fill="none" stroke="none"/><text fill="#000000" stroke="none" font-family="Arial" font-size="13px" font-style="normal" font-weight="normal" text-decoration="none" x="592" y="115">+readFile()</text></g></g><g transform="translate(-238,-22) scale(1,1)"><g><path fill="none" stroke="none"/><text fill="#000000" stroke="none" font-family="Arial" font-size="13px" font-style="normal" font-weight="normal" text-decoration="none" x="592" y="130">+writeFile()</text></g></g><g transform="translate(-238,-22) scale(1,1)"><rect fill="#C0C0C0" stroke="none" x="591" y="479" width="95.68359375" height="44" opacity="0.2"/></g><g transform="translate(-238,-22) scale(1,1)"><rect fill="#d8e5ff" stroke="none" x="584" y="472" width="95.68359375" height="44"/></g><g transform="translate(-238,-22) scale(1,1)"><path fill="none" stroke="#000000" d="M 584 472 L 679.68359375 472 L 679.68359375 516 L 584 516 L 584 472 Z Z" stroke-miterlimit="10"/></g><g transform="translate(-238,-22) scale(1,1)"><path fill="none" stroke="#000000" d="M 584 497 L 679.68359375 497" stroke-miterlimit="10"/></g><g transform="translate(-238,-22) scale(1,1)"><path fill="none" stroke="#000000" d="M 584 507 L 679.68359375 507" stroke-miterlimit="10"/></g><g transform="translate(-238,-22) scale(1,1)"><g><path fill="none" stroke="none"/><text fill="#000000" stroke="none" font-family="Arial" font-size="13px" font-style="normal" font-weight="bold" text-decoration="none" x="588.5" y="490">SaleActuation</text></g></g><g transform="translate(-238,-22) scale(1,1)"><rect fill="#C0C0C0" stroke="none" x="343" y="375" width="176.5908203125" height="44" opacity="0.2"/></g><g transform="translate(-238,-22) scale(1,1)"><rect fill="#ffe2d8" stroke="none" x="336" y="368" width="176.5908203125" height="44"/></g><g transform="translate(-238,-22) scale(1,1)"><path fill="none" stroke="#000000" d="M 336 368 L 512.5908203125 368 L 512.5908203125 412 L 336 412 L 336 368 Z Z" stroke-miterlimit="10"/></g><g transform="translate(-238,-22) scale(1,1)"><path fill="none" stroke="#000000" d="M 336 393 L 512.5908203125 393" stroke-miterlimit="10"/></g><g transform="translate(-238,-22) scale(1,1)"><path fill="none" stroke="#000000" d="M 336 403 L 512.5908203125 403" stroke-miterlimit="10"/></g><g transform="translate(-238,-22) scale(1,1)"><g><path fill="none" stroke="none"/><text fill="#000000" stroke="none" font-family="Arial" font-size="13px" font-style="normal" font-weight="bold" text-decoration="none" x="340.5" y="386">ManagerTheatreActuations</text></g></g><g transform="translate(-238,-22) scale(1,1)"><rect fill="#C0C0C0" stroke="none" x="560" y="375" width="156.37353515625" height="44" opacity="0.2"/></g><g transform="translate(-238,-22) scale(1,1)"><rect fill="#ffe2d8" stroke="none" x="553" y="368" width="156.37353515625" height="44"/></g><g transform="translate(-238,-22) scale(1,1)"><path fill="none" stroke="#000000" d="M 553 368 L 709.37353515625 368 L 709.37353515625 412 L 553 412 L 553 368 Z Z" stroke-miterlimit="10"/></g><g transform="translate(-238,-22) scale(1,1)"><path fill="none" stroke="#000000" d="M 553 393 L 709.37353515625 393" stroke-miterlimit="10"/></g><g transform="translate(-238,-22) scale(1,1)"><path fill="none" stroke="#000000" d="M 553 403 L 709.37353515625 403" stroke-miterlimit="10"/></g><g transform="translate(-238,-22) scale(1,1)"><g><path fill="none" stroke="none"/><text fill="#000000" stroke="none" font-family="Arial" font-size="13px" font-style="normal" font-weight="bold" text-decoration="none" x="557.5" y="386">ManagerSalesActuation</text></g></g><g transform="translate(-238,-22) scale(1,1)"><path fill="none" stroke="#000000" d="M 631 471 L 631 413" stroke-miterlimit="10" stroke-dasharray="3"/></g><g transform="translate(-238,-22) scale(1,1)"><path fill="none" stroke="#000000" d="M 635.209517756016 423.16267485762415 L 631 413 L 626.790482243984 423.16267485762415" stroke-miterlimit="10"/></g><g transform="translate(-238,-22) scale(1,1)"><rect fill="#C0C0C0" stroke="none" x="799" y="479" width="157.85888671875" height="57" opacity="0.2"/></g><g transform="translate(-238,-22) scale(1,1)"><rect fill="#fff5d8" stroke="none" x="792" y="472" width="157.85888671875" height="57"/></g><g transform="translate(-238,-22) scale(1,1)"><path fill="none" stroke="#000000" d="M 792 472 L 949.85888671875 472 L 949.85888671875 529 L 792 529 L 792 472 Z Z" stroke-miterlimit="10"/></g><g transform="translate(-238,-22) scale(1,1)"><path fill="none" stroke="#000000" d="M 792 497 L 949.85888671875 497" stroke-miterlimit="10"/></g><g transform="translate(-238,-22) scale(1,1)"><path fill="none" stroke="#000000" d="M 792 520 L 949.85888671875 520" stroke-miterlimit="10"/></g><g transform="translate(-238,-22) scale(1,1)"><g><path fill="none" stroke="none"/><text fill="#000000" stroke="none" font-family="Arial" font-size="13px" font-style="normal" font-weight="bold" text-decoration="none" x="831.923095703125" y="490">TheatreZone</text></g></g><g transform="translate(-238,-22) scale(1,1)"><g><path fill="none" stroke="none"/><text fill="#000000" stroke="none" font-family="Arial" font-size="13px" font-style="normal" font-weight="normal" text-decoration="none" x="797" y="513">-quantityTheatreSeats: int</text></g></g><g transform="translate(-238,-22) scale(1,1)"><rect fill="#C0C0C0" stroke="none" x="807" y="375" width="147.70263671875" height="44" opacity="0.2"/></g><g transform="translate(-238,-22) scale(1,1)"><rect fill="#ffe2d8" stroke="none" x="800" y="368" width="147.70263671875" height="44"/></g><g transform="translate(-238,-22) scale(1,1)"><path fill="none" stroke="#000000" d="M 800 368 L 947.70263671875 368 L 947.70263671875 412 L 800 412 L 800 368 Z Z" stroke-miterlimit="10"/></g><g transform="translate(-238,-22) scale(1,1)"><path fill="none" stroke="#000000" d="M 800 393 L 947.70263671875 393" stroke-miterlimit="10"/></g><g transform="translate(-238,-22) scale(1,1)"><path fill="none" stroke="#000000" d="M 800 403 L 947.70263671875 403" stroke-miterlimit="10"/></g><g transform="translate(-238,-22) scale(1,1)"><g><path fill="none" stroke="none"/><text fill="#000000" stroke="none" font-family="Arial" font-size="13px" font-style="normal" font-weight="bold" text-decoration="none" x="804.5" y="386">ManagerTheatreZones</text></g></g><g transform="translate(-238,-22) scale(1,1)"><path fill="none" stroke="#000000" d="M 872 472 L 872 412" stroke-miterlimit="10" stroke-dasharray="3"/></g><g transform="translate(-238,-22) scale(1,1)"><path fill="none" stroke="#000000" d="M 876.209517756016 422.16267485762415 L 872 412 L 867.790482243984 422.16267485762415" stroke-miterlimit="10"/></g><g transform="translate(-238,-22) scale(1,1)"><rect fill="#C0C0C0" stroke="none" x="580" y="207" width="117.74169921875" height="72" opacity="0.2"/></g><g transform="translate(-238,-22) scale(1,1)"><rect fill="#ffe2d8" stroke="none" x="573" y="200" width="117.74169921875" height="72"/></g><g transform="translate(-238,-22) scale(1,1)"><path fill="none" stroke="#000000" d="M 573 200 L 690.74169921875 200 L 690.74169921875 272 L 573 272 L 573 200 Z Z" stroke-miterlimit="10"/></g><g transform="translate(-238,-22) scale(1,1)"><path fill="none" stroke="#000000" d="M 573 225 L 690.74169921875 225" stroke-miterlimit="10"/></g><g transform="translate(-238,-22) scale(1,1)"><path fill="none" stroke="#000000" d="M 573 235 L 690.74169921875 235" stroke-miterlimit="10"/></g><g transform="translate(-238,-22) scale(1,1)"><g><path fill="none" stroke="none"/><text fill="#000000" stroke="none" font-family="Arial" font-size="13px" font-style="normal" font-weight="bold" text-decoration="none" x="605.140869140625" y="218">Manager</text></g></g><g transform="translate(-238,-22) scale(1,1)"><g><path fill="none" stroke="none"/><text fill="#000000" stroke="none" font-family="Arial" font-size="13px" font-style="normal" font-weight="normal" text-decoration="none" x="578" y="251">+loadInformation()</text></g></g><g transform="translate(-238,-22) scale(1,1)"><g><path fill="none" stroke="none"/><text fill="#000000" stroke="none" font-family="Arial" font-size="13px" font-style="normal" font-weight="normal" text-decoration="none" x="578" y="266">+saveInformation()</text></g></g><g transform="translate(-238,-22) scale(1,1)"><path fill="none" stroke="#000000" d="M 632 200 L 632 136" stroke-miterlimit="10" stroke-dasharray="3"/></g><g transform="translate(-238,-22) scale(1,1)"><path fill="none" stroke="#000000" d="M 636.209517756016 146.16267485762415 L 632 136 L 627.790482243984 146.16267485762415" stroke-miterlimit="10"/></g><g transform="translate(-238,-22) scale(1,1)"><path fill="none" stroke="#000000" d="M 424 368 L 424 328 L 632 328 L 632 272" stroke-miterlimit="10"/></g><g transform="translate(-238,-22) scale(1,1)"><path fill="#FFFFFF" stroke="none" d="M 640.419035512032 292.3253497152483 L 632 272 L 623.580964487968 292.3253497152483"/></g><g transform="translate(-238,-22) scale(1,1)"><path fill="none" stroke="#000000" d="M 640.419035512032 292.3253497152483 L 632 272 L 623.580964487968 292.3253497152483 L 640.419035512032 292.3253497152483" stroke-miterlimit="10"/></g><g transform="translate(-238,-22) scale(1,1)"><path fill="none" stroke="#000000" d="M 632 368 L 632 272" stroke-miterlimit="10"/></g><g transform="translate(-238,-22) scale(1,1)"><path fill="#FFFFFF" stroke="none" d="M 640.419035512032 292.3253497152483 L 632 272 L 623.580964487968 292.3253497152483"/></g><g transform="translate(-238,-22) scale(1,1)"><path fill="none" stroke="#000000" d="M 640.419035512032 292.3253497152483 L 632 272 L 623.580964487968 292.3253497152483 L 640.419035512032 292.3253497152483" stroke-miterlimit="10"/></g><g transform="translate(-238,-22) scale(1,1)"><path fill="none" stroke="#000000" d="M 872 368 L 872 328 L 632 328 L 632 272" stroke-miterlimit="10"/></g><g transform="translate(-238,-22) scale(1,1)"><path fill="#FFFFFF" stroke="none" d="M 640.419035512032 292.3253497152483 L 632 272 L 623.580964487968 292.3253497152483"/></g><g transform="translate(-238,-22) scale(1,1)"><path fill="none" stroke="#000000" d="M 640.419035512032 292.3253497152483 L 632 272 L 623.580964487968 292.3253497152483 L 640.419035512032 292.3253497152483" stroke-miterlimit="10"/></g><g transform="translate(-238,-22) scale(1,1)"><rect fill="#C0C0C0" stroke="none" x="568" y="559" width="141.59619140625" height="72" opacity="0.2"/></g><g transform="translate(-238,-22) scale(1,1)"><rect fill="#d6adff" stroke="none" x="561" y="552" width="141.59619140625" height="72"/></g><g transform="translate(-238,-22) scale(1,1)"><path fill="none" stroke="#000000" d="M 561 552 L 702.59619140625 552 L 702.59619140625 624 L 561 624 L 561 552 Z Z" stroke-miterlimit="10"/></g><g transform="translate(-238,-22) scale(1,1)"><path fill="none" stroke="#000000" d="M 561 577 L 702.59619140625 577" stroke-miterlimit="10"/></g><g transform="translate(-238,-22) scale(1,1)"><path fill="none" stroke="#000000" d="M 561 587 L 702.59619140625 587" stroke-miterlimit="10"/></g><g transform="translate(-238,-22) scale(1,1)"><g><path fill="none" stroke="none"/><text fill="#000000" stroke="none" font-family="Arial" font-size="13px" font-style="italic" font-weight="bold" text-decoration="none" x="602.900390625" y="570">Selection</text></g></g><g transform="translate(-238,-22) scale(1,1)"><g><path fill="none" stroke="none"/><text fill="#000000" stroke="none" font-family="Arial" font-size="13px" font-style="italic" font-weight="normal" text-decoration="none" x="566" y="603">+showElection()</text></g></g><g transform="translate(-238,-22) scale(1,1)"><g><path fill="none" stroke="none"/><text fill="#000000" stroke="none" font-family="Arial" font-size="13px" font-style="italic" font-weight="normal" text-decoration="none" x="566" y="618">+getSelection(): String</text></g></g><g transform="translate(-238,-22) scale(1,1)"><path fill="none" stroke="#000000" d="M 631 517 L 631 551" stroke-miterlimit="10" stroke-dasharray="3"/></g><g transform="translate(-238,-22) scale(1,1)"><path fill="none" stroke="#000000" d="M 626.790482243984 540.8373251423759 L 631 551 L 635.209517756016 540.8373251423759" stroke-miterlimit="10"/></g><g transform="translate(-238,-22) scale(1,1)"><rect fill="#C0C0C0" stroke="none" x="551" y="679" width="178.04443359375" height="100" opacity="0.2"/></g><g transform="translate(-238,-22) scale(1,1)"><rect fill="#d6adff" stroke="none" x="544" y="672" width="178.04443359375" height="100"/></g><g transform="translate(-238,-22) scale(1,1)"><path fill="none" stroke="#000000" d="M 544 672 L 722.04443359375 672 L 722.04443359375 772 L 544 772 L 544 672 Z Z" stroke-miterlimit="10"/></g><g transform="translate(-238,-22) scale(1,1)"><path fill="none" stroke="#000000" d="M 544 697 L 722.04443359375 697" stroke-miterlimit="10"/></g><g transform="translate(-238,-22) scale(1,1)"><path fill="none" stroke="#000000" d="M 544 720 L 722.04443359375 720" stroke-miterlimit="10"/></g><g transform="translate(-238,-22) scale(1,1)"><g><path fill="none" stroke="none"/><text fill="#000000" stroke="none" font-family="Arial" font-size="13px" font-style="normal" font-weight="bold" text-decoration="none" x="548.5" y="690">SelectTheatreZoneAndSeat</text></g></g><g transform="translate(-238,-22) scale(1,1)"><g><path fill="none" stroke="none"/><text fill="#000000" stroke="none" font-family="Arial" font-size="13px" font-style="normal" font-weight="normal" text-decoration="none" x="549" y="713">-theatreSeatsSelected: int</text></g></g><g transform="translate(-238,-22) scale(1,1)"><g><path fill="none" stroke="none"/><text fill="#000000" stroke="none" font-family="Arial" font-size="13px" font-style="normal" font-weight="normal" text-decoration="none" x="549" y="736">+getOption(): TheatreZone</text></g></g><g transform="translate(-238,-22) scale(1,1)"><g><path fill="none" stroke="none"/><text fill="#000000" stroke="none" font-family="Arial" font-size="13px" font-style="normal" font-weight="normal" text-decoration="none" x="549" y="751">+showSeats(TheatreZone)</text></g></g><g transform="translate(-238,-22) scale(1,1)"><g><path fill="none" stroke="none"/><text fill="#000000" stroke="none" font-family="Arial" font-size="13px" font-style="normal" font-weight="normal" text-decoration="none" x="549" y="766">+getSeat(): String</text></g></g><g transform="translate(-238,-22) scale(1,1)"><path fill="none" stroke="#000000" d="M 632 671 L 632 625" stroke-miterlimit="10"/></g><g transform="translate(-238,-22) scale(1,1)"><path fill="#FFFFFF" stroke="none" d="M 640.419035512032 645.3253497152483 L 632 625 L 623.580964487968 645.3253497152483"/></g><g transform="translate(-238,-22) scale(1,1)"><path fill="none" stroke="#000000" d="M 640.419035512032 645.3253497152483 L 632 625 L 623.580964487968 645.3253497152483 L 640.419035512032 645.3253497152483" stroke-miterlimit="10"/></g><g transform="translate(-238,-22) scale(1,1)"><path fill="none" stroke="#000000" d="M 872 529 L 872 720 L 722 720" stroke-miterlimit="10"/></g><g transform="translate(-238,-22) scale(1,1)"><path fill="#FFFFFF" stroke="none" d="M 732.1626748576241 715.790482243984 L 722 720 L 732.1626748576241 724.209517756016 L 744 720"/></g><g transform="translate(-238,-22) scale(1,1)"><path fill="none" stroke="#000000" d="M 732.1626748576241 715.790482243984 L 722 720 L 732.1626748576241 724.209517756016 L 744 720 L 732.1626748576241 715.790482243984" stroke-miterlimit="10"/></g><g transform="translate(-238,-22) scale(1,1)"><g><path fill="none" stroke="none"/><text fill="#000000" stroke="none" font-family="Arial" font-size="13px" font-style="normal" font-weight="normal" text-decoration="none" x="875.5" y="547">-TheatreZonesMap</text></g></g><g transform="translate(-238,-22) scale(1,1)"><g><path fill="none" stroke="none"/><text fill="#000000" stroke="none" font-family="Arial" font-size="13px" font-style="normal" font-weight="normal" text-decoration="none" x="849.5" y="547">0..*</text></g></g><g transform="translate(-238,-22) scale(1,1)"><rect fill="#C0C0C0" stroke="none" x="343" y="455" width="176.8212890625" height="145" opacity="0.2"/></g><g transform="translate(-238,-22) scale(1,1)"><rect fill="#fff5d8" stroke="none" x="336" y="448" width="176.8212890625" height="145"/></g><g transform="translate(-238,-22) scale(1,1)"><path fill="none" stroke="#000000" d="M 336 448 L 512.8212890625 448 L 512.8212890625 593 L 336 593 L 336 448 Z Z" stroke-miterlimit="10"/></g><g transform="translate(-238,-22) scale(1,1)"><path fill="none" stroke="#000000" d="M 336 473 L 512.8212890625 473" stroke-miterlimit="10"/></g><g transform="translate(-238,-22) scale(1,1)"><path fill="none" stroke="#000000" d="M 336 541 L 512.8212890625 541" stroke-miterlimit="10"/></g><g transform="translate(-238,-22) scale(1,1)"><g><path fill="none" stroke="none"/><text fill="#000000" stroke="none" font-family="Arial" font-size="13px" font-style="normal" font-weight="bold" text-decoration="none" x="370.960205078125" y="466">TheatreActuation</text></g></g><g transform="translate(-238,-22) scale(1,1)"><g><path fill="none" stroke="none"/><text fill="#000000" stroke="none" font-family="Arial" font-size="13px" font-style="normal" font-weight="normal" text-decoration="none" x="341" y="489">-posterAct: String</text></g></g><g transform="translate(-238,-22) scale(1,1)"><g><path fill="none" stroke="none"/><text fill="#000000" stroke="none" font-family="Arial" font-size="13px" font-style="normal" font-weight="normal" text-decoration="none" x="341" y="504">-nameAct: String</text></g></g><g transform="translate(-238,-22) scale(1,1)"><g><path fill="none" stroke="none"/><text fill="#000000" stroke="none" font-family="Arial" font-size="13px" font-style="normal" font-weight="normal" text-decoration="none" x="341" y="519">-sinopsisAct: String</text></g></g><g transform="translate(-238,-22) scale(1,1)"><g><path fill="none" stroke="none"/><text fill="#000000" stroke="none" font-family="Arial" font-size="13px" font-style="normal" font-weight="normal" text-decoration="none" x="341" y="534">-price: int</text></g></g><g transform="translate(-238,-22) scale(1,1)"><g><path fill="none" stroke="none"/><text fill="#000000" stroke="none" font-family="Arial" font-size="13px" font-style="normal" font-weight="normal" text-decoration="none" x="341" y="557">+showActuationsAvailable()</text></g></g><g transform="translate(-238,-22) scale(1,1)"><g><path fill="none" stroke="none"/><text fill="#000000" stroke="none" font-family="Arial" font-size="13px" font-style="normal" font-weight="normal" text-decoration="none" x="341" y="572">+showActuationInfo()</text></g></g><g transform="translate(-238,-22) scale(1,1)"><g><path fill="none" stroke="none"/><text fill="#000000" stroke="none" font-family="Arial" font-size="13px" font-style="normal" font-weight="normal" text-decoration="none" x="341" y="587">+selectActuation(): String</text></g></g><g transform="translate(-238,-22) scale(1,1)"><path fill="none" stroke="#000000" d="M 417 448 L 417 412" stroke-miterlimit="10" stroke-dasharray="3"/></g><g transform="translate(-238,-22) scale(1,1)"><path fill="none" stroke="#000000" d="M 421.209517756016 422.16267485762415 L 417 412 L 412.790482243984 422.16267485762415" stroke-miterlimit="10"/></g><g transform="translate(-238,-22) scale(1,1)"><path fill="none" stroke="#000000" d="M 513 496 L 584 496" stroke-miterlimit="10"/></g><g transform="translate(-238,-22) scale(1,1)"><path fill="#FFFFFF" stroke="none" d="M 573.8373251423759 500.209517756016 L 584 496 L 573.8373251423758 491.790482243984 L 562 496"/></g><g transform="translate(-238,-22) scale(1,1)"><path fill="none" stroke="#000000" d="M 573.8373251423759 500.209517756016 L 584 496 L 573.8373251423758 491.790482243984 L 562 496 L 573.8373251423759 500.209517756016" stroke-miterlimit="10"/></g><g transform="translate(-238,-22) scale(1,1)"><g><path fill="none" stroke="none"/><text fill="#000000" stroke="none" font-family="Arial" font-size="13px" font-style="normal" font-weight="normal" text-decoration="none" x="519.5" y="514">0..*</text></g></g></g></svg>