<svg xmlns="http://www.w3.org/2000/svg" xmlns:xlink="http://www.w3.org/1999/xlink" version="1.1" width="795" height="651"><defs/><g><g transform="translate(-182,-190) scale(1,1)"><rect fill="#ffffff" stroke="none" x="192" y="200" width="775" height="631"/></g><g transform="translate(-182,-190) scale(1,1)"><path fill="none" stroke="#000000" d="M 192 200 L 967 200 L 967 831 L 192 831 L 192 200 Z Z" stroke-miterlimit="10"/></g><g transform="translate(-182,-190) scale(1,1)"><rect fill="#C0C0C0" stroke="none" x="647" y="295" width="133.0205078125" height="44" opacity="0.2"/></g><g transform="translate(-182,-190) scale(1,1)"><rect fill="#d8e5ff" stroke="none" x="640" y="288" width="133.0205078125" height="44"/></g><g transform="translate(-182,-190) scale(1,1)"><path fill="none" stroke="#000000" d="M 640 288 L 773.0205078125 288 L 773.0205078125 332 L 640 332 L 640 288 Z Z" stroke-miterlimit="10"/></g><g transform="translate(-182,-190) scale(1,1)"><path fill="none" stroke="#000000" d="M 640 313 L 773.0205078125 313" stroke-miterlimit="10"/></g><g transform="translate(-182,-190) scale(1,1)"><path fill="none" stroke="#000000" d="M 640 323 L 773.0205078125 323" stroke-miterlimit="10"/></g><g transform="translate(-182,-190) scale(1,1)"><g><path fill="none" stroke="none"/><text fill="#000000" stroke="none" font-family="Arial" font-size="13px" font-style="normal" font-weight="bold" text-decoration="none" x="663.16845703125" y="306">SaleActuation</text></g></g><g transform="translate(-182,-190) scale(1,1)"><rect fill="#C0C0C0" stroke="none" x="407" y="583" width="75.47900390625" height="44" opacity="0.2"/></g><g transform="translate(-182,-190) scale(1,1)"><rect fill="#d6adff" stroke="none" x="400" y="576" width="75.47900390625" height="44"/></g><g transform="translate(-182,-190) scale(1,1)"><path fill="none" stroke="#000000" d="M 400 576 L 475.47900390625 576 L 475.47900390625 620 L 400 620 L 400 576 Z Z" stroke-miterlimit="10"/></g><g transform="translate(-182,-190) scale(1,1)"><path fill="none" stroke="#000000" d="M 400 601 L 475.47900390625 601" stroke-miterlimit="10"/></g><g transform="translate(-182,-190) scale(1,1)"><path fill="none" stroke="#000000" d="M 400 611 L 475.47900390625 611" stroke-miterlimit="10"/></g><g transform="translate(-182,-190) scale(1,1)"><g><path fill="none" stroke="none"/><text fill="#000000" stroke="none" font-family="Arial" font-size="13px" font-style="normal" font-weight="bold" text-decoration="none" x="404.5" y="594">SelectDate</text></g></g><g transform="translate(-182,-190) scale(1,1)"><rect fill="#C0C0C0" stroke="none" x="551" y="583" width="178.04443359375" height="87" opacity="0.2"/></g><g transform="translate(-182,-190) scale(1,1)"><rect fill="#d6adff" stroke="none" x="544" y="576" width="178.04443359375" height="87"/></g><g transform="translate(-182,-190) scale(1,1)"><path fill="none" stroke="#000000" d="M 544 576 L 722.04443359375 576 L 722.04443359375 663 L 544 663 L 544 576 Z Z" stroke-miterlimit="10"/></g><g transform="translate(-182,-190) scale(1,1)"><path fill="none" stroke="#000000" d="M 544 601 L 722.04443359375 601" stroke-miterlimit="10"/></g><g transform="translate(-182,-190) scale(1,1)"><path fill="none" stroke="#000000" d="M 544 624 L 722.04443359375 624" stroke-miterlimit="10"/></g><g transform="translate(-182,-190) scale(1,1)"><g><path fill="none" stroke="none"/><text fill="#000000" stroke="none" font-family="Arial" font-size="13px" font-style="normal" font-weight="bold" text-decoration="none" x="548.5" y="594">SelectTheatreZoneAndSeat</text></g></g><g transform="translate(-182,-190) scale(1,1)"><g><path fill="none" stroke="none"/><text fill="#000000" stroke="none" font-family="Arial" font-size="13px" font-style="normal" font-weight="normal" text-decoration="none" x="549" y="617">-theatreSeatsSelected: int</text></g></g><g transform="translate(-182,-190) scale(1,1)"><g><path fill="none" stroke="none"/><text fill="#000000" stroke="none" font-family="Arial" font-size="13px" font-style="normal" font-weight="normal" text-decoration="none" x="549" y="642">+showSeats(TheatreZone)</text></g></g><g transform="translate(-182,-190) scale(1,1)"><g><path fill="none" stroke="none"/><text fill="#000000" stroke="none" font-family="Arial" font-size="13px" font-style="normal" font-weight="normal" text-decoration="none" x="549" y="657">+getSeat(): String</text></g></g><g transform="translate(-182,-190) scale(1,1)"><rect fill="#C0C0C0" stroke="none" x="767" y="447" width="141.08203125" height="100" opacity="0.2"/></g><g transform="translate(-182,-190) scale(1,1)"><rect fill="#ffd8ff" stroke="none" x="760" y="440" width="141.08203125" height="100"/></g><g transform="translate(-182,-190) scale(1,1)"><path fill="none" stroke="#000000" d="M 760 440 L 901.08203125 440 L 901.08203125 540 L 760 540 L 760 440 Z Z" stroke-miterlimit="10"/></g><g transform="translate(-182,-190) scale(1,1)"><path fill="none" stroke="#000000" d="M 760 465 L 901.08203125 465" stroke-miterlimit="10"/></g><g transform="translate(-182,-190) scale(1,1)"><path fill="none" stroke="#000000" d="M 760 488 L 901.08203125 488" stroke-miterlimit="10"/></g><g transform="translate(-182,-190) scale(1,1)"><g><path fill="none" stroke="none"/><text fill="#000000" stroke="none" font-family="Arial" font-size="13px" font-style="normal" font-weight="bold" text-decoration="none" x="800.30712890625" y="458">PayTicket</text></g></g><g transform="translate(-182,-190) scale(1,1)"><g><path fill="none" stroke="none"/><text fill="#000000" stroke="none" font-family="Arial" font-size="13px" font-style="normal" font-weight="normal" text-decoration="none" x="765" y="481">-priceTicket: int</text></g></g><g transform="translate(-182,-190) scale(1,1)"><g><path fill="none" stroke="none"/><text fill="#000000" stroke="none" font-family="Arial" font-size="13px" font-style="normal" font-weight="normal" text-decoration="none" x="765" y="504">+setCardNumber()</text></g></g><g transform="translate(-182,-190) scale(1,1)"><g><path fill="none" stroke="none"/><text fill="#000000" stroke="none" font-family="Arial" font-size="13px" font-style="normal" font-weight="normal" text-decoration="none" x="765" y="519">+doPayment()</text></g></g><g transform="translate(-182,-190) scale(1,1)"><g><path fill="none" stroke="none"/><text fill="#000000" stroke="none" font-family="Arial" font-size="13px" font-style="normal" font-weight="normal" text-decoration="none" x="765" y="534">+setPriceTicket(int, int)</text></g></g><g transform="translate(-182,-190) scale(1,1)"><rect fill="#C0C0C0" stroke="none" x="471" y="447" width="141.59619140625" height="72" opacity="0.2"/></g><g transform="translate(-182,-190) scale(1,1)"><rect fill="#d6adff" stroke="none" x="464" y="440" width="141.59619140625" height="72"/></g><g transform="translate(-182,-190) scale(1,1)"><path fill="none" stroke="#000000" d="M 464 440 L 605.59619140625 440 L 605.59619140625 512 L 464 512 L 464 440 Z Z" stroke-miterlimit="10"/></g><g transform="translate(-182,-190) scale(1,1)"><path fill="none" stroke="#000000" d="M 464 465 L 605.59619140625 465" stroke-miterlimit="10"/></g><g transform="translate(-182,-190) scale(1,1)"><path fill="none" stroke="#000000" d="M 464 475 L 605.59619140625 475" stroke-miterlimit="10"/></g><g transform="translate(-182,-190) scale(1,1)"><g><path fill="none" stroke="none"/><text fill="#000000" stroke="none" font-family="Arial" font-size="13px" font-style="italic" font-weight="bold" text-decoration="none" x="505.900390625" y="458">Selection</text></g></g><g transform="translate(-182,-190) scale(1,1)"><g><path fill="none" stroke="none"/><text fill="#000000" stroke="none" font-family="Arial" font-size="13px" font-style="italic" font-weight="normal" text-decoration="none" x="469" y="491">+showElection()</text></g></g><g transform="translate(-182,-190) scale(1,1)"><g><path fill="none" stroke="none"/><text fill="#000000" stroke="none" font-family="Arial" font-size="13px" font-style="italic" font-weight="normal" text-decoration="none" x="469" y="506">+getSelection(): String</text></g></g><g transform="translate(-182,-190) scale(1,1)"><path fill="none" stroke="#000000" d="M 440 576 L 440 552 L 528 552 L 528 512" stroke-miterlimit="10"/></g><g transform="translate(-182,-190) scale(1,1)"><path fill="#FFFFFF" stroke="none" d="M 536.419035512032 532.3253497152483 L 528 512 L 519.580964487968 532.3253497152483"/></g><g transform="translate(-182,-190) scale(1,1)"><path fill="none" stroke="#000000" d="M 536.419035512032 532.3253497152483 L 528 512 L 519.580964487968 532.3253497152483 L 536.419035512032 532.3253497152483" stroke-miterlimit="10"/></g><g transform="translate(-182,-190) scale(1,1)"><path fill="none" stroke="#000000" d="M 632 576 L 632 552 L 528 552 L 528 512" stroke-miterlimit="10"/></g><g transform="translate(-182,-190) scale(1,1)"><path fill="#FFFFFF" stroke="none" d="M 536.419035512032 532.3253497152483 L 528 512 L 519.580964487968 532.3253497152483"/></g><g transform="translate(-182,-190) scale(1,1)"><path fill="none" stroke="#000000" d="M 536.419035512032 532.3253497152483 L 528 512 L 519.580964487968 532.3253497152483 L 536.419035512032 532.3253497152483" stroke-miterlimit="10"/></g><g transform="translate(-182,-190) scale(1,1)"><rect fill="#C0C0C0" stroke="none" x="559" y="727" width="157.85888671875" height="57" opacity="0.2"/></g><g transform="translate(-182,-190) scale(1,1)"><rect fill="#fff5d8" stroke="none" x="552" y="720" width="157.85888671875" height="57"/></g><g transform="translate(-182,-190) scale(1,1)"><path fill="none" stroke="#000000" d="M 552 720 L 709.85888671875 720 L 709.85888671875 777 L 552 777 L 552 720 Z Z" stroke-miterlimit="10"/></g><g transform="translate(-182,-190) scale(1,1)"><path fill="none" stroke="#000000" d="M 552 745 L 709.85888671875 745" stroke-miterlimit="10"/></g><g transform="translate(-182,-190) scale(1,1)"><path fill="none" stroke="#000000" d="M 552 768 L 709.85888671875 768" stroke-miterlimit="10"/></g><g transform="translate(-182,-190) scale(1,1)"><g><path fill="none" stroke="none"/><text fill="#000000" stroke="none" font-family="Arial" font-size="13px" font-style="normal" font-weight="bold" text-decoration="none" x="591.923095703125" y="738">TheatreZone</text></g></g><g transform="translate(-182,-190) scale(1,1)"><g><path fill="none" stroke="none"/><text fill="#000000" stroke="none" font-family="Arial" font-size="13px" font-style="normal" font-weight="normal" text-decoration="none" x="557" y="761">-quantityTheatreSeats: int</text></g></g><g transform="translate(-182,-190) scale(1,1)"><rect fill="#C0C0C0" stroke="none" x="311" y="711" width="105.0908203125" height="87" opacity="0.2"/></g><g transform="translate(-182,-190) scale(1,1)"><rect fill="#fff5d8" stroke="none" x="304" y="704" width="105.0908203125" height="87"/></g><g transform="translate(-182,-190) scale(1,1)"><path fill="none" stroke="#000000" d="M 304 704 L 409.0908203125 704 L 409.0908203125 791 L 304 791 L 304 704 Z Z" stroke-miterlimit="10"/></g><g transform="translate(-182,-190) scale(1,1)"><path fill="none" stroke="#000000" d="M 304 729 L 409.0908203125 729" stroke-miterlimit="10"/></g><g transform="translate(-182,-190) scale(1,1)"><path fill="none" stroke="#000000" d="M 304 782 L 409.0908203125 782" stroke-miterlimit="10"/></g><g transform="translate(-182,-190) scale(1,1)"><g><path fill="none" stroke="none"/><text fill="#000000" stroke="none" font-family="Arial" font-size="13px" font-style="normal" font-weight="bold" text-decoration="none" x="319.33544921875" y="722">TheatreSeat</text></g></g><g transform="translate(-182,-190) scale(1,1)"><g><path fill="none" stroke="none"/><text fill="#000000" stroke="none" font-family="Arial" font-size="13px" font-style="normal" font-weight="normal" text-decoration="none" x="309" y="745">-row: int</text></g></g><g transform="translate(-182,-190) scale(1,1)"><g><path fill="none" stroke="none"/><text fill="#000000" stroke="none" font-family="Arial" font-size="13px" font-style="normal" font-weight="normal" text-decoration="none" x="309" y="760">-seatNumber: int</text></g></g><g transform="translate(-182,-190) scale(1,1)"><g><path fill="none" stroke="none"/><text fill="#000000" stroke="none" font-family="Arial" font-size="13px" font-style="normal" font-weight="normal" text-decoration="none" x="309" y="775">-isAvailabe: bool</text></g></g><g transform="translate(-182,-190) scale(1,1)"><rect fill="#C0C0C0" stroke="none" x="783" y="599" width="116.65625" height="57" opacity="0.2"/></g><g transform="translate(-182,-190) scale(1,1)"><rect fill="#fff5d8" stroke="none" x="776" y="592" width="116.65625" height="57"/></g><g transform="translate(-182,-190) scale(1,1)"><path fill="none" stroke="#000000" d="M 776 592 L 892.65625 592 L 892.65625 649 L 776 649 L 776 592 Z Z" stroke-miterlimit="10"/></g><g transform="translate(-182,-190) scale(1,1)"><path fill="none" stroke="#000000" d="M 776 617 L 892.65625 617" stroke-miterlimit="10"/></g><g transform="translate(-182,-190) scale(1,1)"><path fill="none" stroke="#000000" d="M 776 640 L 892.65625 640" stroke-miterlimit="10"/></g><g transform="translate(-182,-190) scale(1,1)"><g><path fill="none" stroke="none"/><text fill="#000000" stroke="none" font-family="Arial" font-size="13px" font-style="normal" font-weight="bold" text-decoration="none" x="800.739501953125" y="610">CreditCard</text></g></g><g transform="translate(-182,-190) scale(1,1)"><g><path fill="none" stroke="none"/><text fill="#000000" stroke="none" font-family="Arial" font-size="13px" font-style="normal" font-weight="normal" text-decoration="none" x="781" y="633">-cardNumber: long</text></g></g><g transform="translate(-182,-190) scale(1,1)"><path fill="none" stroke="#000000" d="M 824 540 L 824 592" stroke-miterlimit="10"/></g><g transform="translate(-182,-190) scale(1,1)"><g><path fill="none" stroke="none"/><text fill="#000000" stroke="none" font-family="Arial" font-size="13px" font-style="normal" font-weight="normal" text-decoration="none" x="807.5" y="586">1</text></g></g><g transform="translate(-182,-190) scale(1,1)"><rect fill="#C0C0C0" stroke="none" x="287" y="271" width="70.41357421875" height="87" opacity="0.2"/></g><g transform="translate(-182,-190) scale(1,1)"><rect fill="#fff5d8" stroke="none" x="280" y="264" width="70.41357421875" height="87"/></g><g transform="translate(-182,-190) scale(1,1)"><path fill="none" stroke="#000000" d="M 280 264 L 350.41357421875 264 L 350.41357421875 351 L 280 351 L 280 264 Z Z" stroke-miterlimit="10"/></g><g transform="translate(-182,-190) scale(1,1)"><path fill="none" stroke="#000000" d="M 280 289 L 350.41357421875 289" stroke-miterlimit="10"/></g><g transform="translate(-182,-190) scale(1,1)"><path fill="none" stroke="#000000" d="M 280 342 L 350.41357421875 342" stroke-miterlimit="10"/></g><g transform="translate(-182,-190) scale(1,1)"><g><path fill="none" stroke="none"/><text fill="#000000" stroke="none" font-family="Arial" font-size="13px" font-style="normal" font-weight="bold" text-decoration="none" x="301.1181640625" y="282">Date</text></g></g><g transform="translate(-182,-190) scale(1,1)"><g><path fill="none" stroke="none"/><text fill="#000000" stroke="none" font-family="Arial" font-size="13px" font-style="normal" font-weight="normal" text-decoration="none" x="285" y="305">-day: int</text></g></g><g transform="translate(-182,-190) scale(1,1)"><g><path fill="none" stroke="none"/><text fill="#000000" stroke="none" font-family="Arial" font-size="13px" font-style="normal" font-weight="normal" text-decoration="none" x="285" y="320">-month: int</text></g></g><g transform="translate(-182,-190) scale(1,1)"><g><path fill="none" stroke="none"/><text fill="#000000" stroke="none" font-family="Arial" font-size="13px" font-style="normal" font-weight="normal" text-decoration="none" x="285" y="335">-year: int</text></g></g><g transform="translate(-182,-190) scale(1,1)"><rect fill="#C0C0C0" stroke="none" x="423" y="255" width="168.8212890625" height="145" opacity="0.2"/></g><g transform="translate(-182,-190) scale(1,1)"><rect fill="#fff5d8" stroke="none" x="416" y="248" width="168.8212890625" height="145"/></g><g transform="translate(-182,-190) scale(1,1)"><path fill="none" stroke="#000000" d="M 416 248 L 584.8212890625 248 L 584.8212890625 393 L 416 393 L 416 248 Z Z" stroke-miterlimit="10"/></g><g transform="translate(-182,-190) scale(1,1)"><path fill="none" stroke="#000000" d="M 416 273 L 584.8212890625 273" stroke-miterlimit="10"/></g><g transform="translate(-182,-190) scale(1,1)"><path fill="none" stroke="#000000" d="M 416 341 L 584.8212890625 341" stroke-miterlimit="10"/></g><g transform="translate(-182,-190) scale(1,1)"><g><path fill="none" stroke="none"/><text fill="#000000" stroke="none" font-family="Arial" font-size="13px" font-style="normal" font-weight="bold" text-decoration="none" x="446.960205078125" y="266">TheatreActuation</text></g></g><g transform="translate(-182,-190) scale(1,1)"><g><path fill="none" stroke="none"/><text fill="#000000" stroke="none" font-family="Arial" font-size="13px" font-style="normal" font-weight="normal" text-decoration="none" x="421" y="289">-posterAct: String</text></g></g><g transform="translate(-182,-190) scale(1,1)"><g><path fill="none" stroke="none"/><text fill="#000000" stroke="none" font-family="Arial" font-size="13px" font-style="normal" font-weight="normal" text-decoration="none" x="421" y="304">-nameAct: String</text></g></g><g transform="translate(-182,-190) scale(1,1)"><g><path fill="none" stroke="none"/><text fill="#000000" stroke="none" font-family="Arial" font-size="13px" font-style="normal" font-weight="normal" text-decoration="none" x="421" y="319">-sinopsisAct: String</text></g></g><g transform="translate(-182,-190) scale(1,1)"><g><path fill="none" stroke="none"/><text fill="#000000" stroke="none" font-family="Arial" font-size="13px" font-style="normal" font-weight="normal" text-decoration="none" x="421" y="334">-price: int</text></g></g><g transform="translate(-182,-190) scale(1,1)"><g><path fill="none" stroke="none"/><text fill="#000000" stroke="none" font-family="Arial" font-size="13px" font-style="normal" font-weight="normal" text-decoration="none" x="421" y="357">+showActuationsAvailable()</text></g></g><g transform="translate(-182,-190) scale(1,1)"><g><path fill="none" stroke="none"/><text fill="#000000" stroke="none" font-family="Arial" font-size="13px" font-style="normal" font-weight="normal" text-decoration="none" x="421" y="372">+showActuationInfo()</text></g></g><g transform="translate(-182,-190) scale(1,1)"><g><path fill="none" stroke="none"/><text fill="#000000" stroke="none" font-family="Arial" font-size="13px" font-style="normal" font-weight="normal" text-decoration="none" x="421" y="387">+selectActuation(): String</text></g></g><g transform="translate(-182,-190) scale(1,1)"><path fill="none" stroke="#000000" d="M 416 310 L 350 310" stroke-miterlimit="10"/></g><g transform="translate(-182,-190) scale(1,1)"><g><path fill="none" stroke="none"/><text fill="#000000" stroke="none" font-family="Arial" font-size="13px" font-style="normal" font-weight="normal" text-decoration="none" x="359.5" y="338">0..*</text></g></g><g transform="translate(-182,-190) scale(1,1)"><path fill="none" stroke="#000000" d="M 585 308 L 640 308" stroke-miterlimit="10"/></g><g transform="translate(-182,-190) scale(1,1)"><path fill="#FFFFFF" stroke="none" d="M 629.8373251423759 312.209517756016 L 640 308 L 629.8373251423758 303.790482243984 L 618 308"/></g><g transform="translate(-182,-190) scale(1,1)"><path fill="none" stroke="#000000" d="M 629.8373251423759 312.209517756016 L 640 308 L 629.8373251423758 303.790482243984 L 618 308 L 629.8373251423759 312.209517756016" stroke-miterlimit="10"/></g><g transform="translate(-182,-190) scale(1,1)"><g><path fill="none" stroke="none"/><text fill="#000000" stroke="none" font-family="Arial" font-size="13px" font-style="normal" font-weight="normal" text-decoration="none" x="596.5" y="325">0..*</text></g></g><g transform="translate(-182,-190) scale(1,1)"><path fill="none" stroke="#000000" d="M 704 332 L 704 408 L 528 408 L 528 440" stroke-miterlimit="10" stroke-dasharray="3"/></g><g transform="translate(-182,-190) scale(1,1)"><path fill="none" stroke="#000000" d="M 523.790482243984 429.83732514237585 L 528 440 L 532.209517756016 429.83732514237585" stroke-miterlimit="10"/></g><g transform="translate(-182,-190) scale(1,1)"><path fill="none" stroke="#000000" d="M 704 332 L 704 408 L 824 408 L 824 440" stroke-miterlimit="10" stroke-dasharray="3"/></g><g transform="translate(-182,-190) scale(1,1)"><path fill="none" stroke="#000000" d="M 819.790482243984 429.83732514237585 L 824 440 L 828.209517756016 429.83732514237585" stroke-miterlimit="10"/></g><g transform="translate(-182,-190) scale(1,1)"><path fill="none" stroke="#000000" d="M 634 720 L 634 663" stroke-miterlimit="10"/></g><g transform="translate(-182,-190) scale(1,1)"><path fill="#FFFFFF" stroke="none" d="M 638.209517756016 673.1626748576241 L 634 663 L 629.790482243984 673.1626748576241 L 634 685"/></g><g transform="translate(-182,-190) scale(1,1)"><path fill="none" stroke="#000000" d="M 638.209517756016 673.1626748576241 L 634 663 L 629.790482243984 673.1626748576241 L 634 685 L 638.209517756016 673.1626748576241" stroke-miterlimit="10"/></g><g transform="translate(-182,-190) scale(1,1)"><g><path fill="none" stroke="none"/><text fill="#000000" stroke="none" font-family="Arial" font-size="13px" font-style="normal" font-weight="normal" text-decoration="none" x="640.13134765625" y="712">-TheatreZonesMap</text></g></g><g transform="translate(-182,-190) scale(1,1)"><g><path fill="none" stroke="none"/><text fill="#000000" stroke="none" font-family="Arial" font-size="13px" font-style="normal" font-weight="normal" text-decoration="none" x="607.5" y="714">0..*</text></g></g><g transform="translate(-182,-190) scale(1,1)"><path fill="none" stroke="#000000" d="M 409 748 L 552 748" stroke-miterlimit="10"/></g><g transform="translate(-182,-190) scale(1,1)"><path fill="#000000" stroke="none" d="M 541.8373251423759 752.209517756016 L 552 748 L 541.8373251423758 743.790482243984 L 530 748"/></g><g transform="translate(-182,-190) scale(1,1)"><path fill="none" stroke="#000000" d="M 541.8373251423759 752.209517756016 L 552 748 L 541.8373251423758 743.790482243984 L 530 748 L 541.8373251423759 752.209517756016" stroke-miterlimit="10"/></g><g transform="translate(-182,-190) scale(1,1)"><g><path fill="none" stroke="none"/><text fill="#000000" stroke="none" font-family="Arial" font-size="13px" font-style="normal" font-weight="normal" text-decoration="none" x="416.13134765625" y="739">-theatreSeatsArrayList</text></g></g><g transform="translate(-182,-190) scale(1,1)"><g><path fill="none" stroke="none"/><text fill="#000000" stroke="none" font-family="Arial" font-size="13px" font-style="normal" font-weight="normal" text-decoration="none" x="420.5" y="765">0..*</text></g></g><g transform="translate(-182,-190) scale(1,1)"><path fill="none" stroke="#000000" d="M 312 351 L 312 608 L 400 608" stroke-miterlimit="10"/></g><g transform="translate(-182,-190) scale(1,1)"><path fill="#FFFFFF" stroke="none" d="M 389.83732514237585 612.209517756016 L 400 608 L 389.83732514237585 603.790482243984 L 378 608"/></g><g transform="translate(-182,-190) scale(1,1)"><path fill="none" stroke="#000000" d="M 389.83732514237585 612.209517756016 L 400 608 L 389.83732514237585 603.790482243984 L 378 608 L 389.83732514237585 612.209517756016" stroke-miterlimit="10"/></g><g transform="translate(-182,-190) scale(1,1)"><g><path fill="none" stroke="none"/><text fill="#000000" stroke="none" font-family="Arial" font-size="13px" font-style="normal" font-weight="normal" text-decoration="none" x="355.2958984375" y="355">-datesSet</text></g></g><g transform="translate(-182,-190) scale(1,1)"><g><path fill="none" stroke="none"/><text fill="#000000" stroke="none" font-family="Arial" font-size="13px" font-style="normal" font-weight="normal" text-decoration="none" x="327.5" y="370">0..*</text></g></g></g></svg>