<svg xmlns="http://www.w3.org/2000/svg" xmlns:xlink="http://www.w3.org/1999/xlink" version="1.1" width="860" height="908"><defs/><g><g transform="translate(-246,2) scale(1,1)"><path fill="#ebffd8" stroke="none" d="M 256 8 L 256 30 L 369.53173828125 30 L 380.53173828125 19 L 380.53173828125 8 L 256 8"/></g><g transform="translate(-246,2) scale(1,1)"><path fill="none" stroke="#000000" d="M 256 8 L 256 30 L 369.53173828125 30 L 380.53173828125 19 L 380.53173828125 8 L 256 8 L 256 8" stroke-miterlimit="10"/></g><g transform="translate(-246,2) scale(1,1)"><g><path fill="none" stroke="none"/><text fill="#000000" stroke="none" font-family="Arial" font-size="13px" font-style="normal" font-weight="normal" text-decoration="none" x="280.72998046875" y="24">ProgramStarts</text></g></g><g transform="translate(-246,2) scale(1,1)"><g><path fill="none" stroke="none"/><text fill="#000000" stroke="none" font-family="Arial" font-size="13px" font-style="normal" font-weight="bold" text-decoration="none" x="260.279541015625" y="24">sd</text></g></g><g transform="translate(-246,2) scale(1,1)"><rect fill="#ffffff" stroke="none" x="256" y="32" width="840" height="864"/></g><g transform="translate(-246,2) scale(1,1)"><path fill="none" stroke="#000000" d="M 256 32 L 1096 32 L 1096 896 L 256 896 L 256 32 Z Z" stroke-miterlimit="10"/></g><g transform="translate(-246,2) scale(1,1)"><rect fill="#C0C0C0" stroke="none" x="511" y="147" width="113.6181640625" height="39" opacity="0.2"/></g><g transform="translate(-246,2) scale(1,1)"><rect fill="#d8f2ff" stroke="none" x="504" y="140" width="113.6181640625" height="39"/></g><g transform="translate(-246,2) scale(1,1)"><path fill="none" stroke="#000000" d="M 504 140 L 617.6181640625 140 L 617.6181640625 179 L 504 179 L 504 140 Z Z" stroke-miterlimit="10"/></g><g transform="translate(-246,2) scale(1,1)"><g><path fill="none" stroke="none"/><text fill="#000000" stroke="none" font-family="Arial" font-size="13px" font-style="normal" font-weight="bold" text-decoration="none" x="530.4736328125" y="158">m2: Menu</text></g></g><g transform="translate(-246,2) scale(1,1)"><path fill="none" stroke="#000000" d="M 561.5 180 L 561.5 864" stroke-miterlimit="10" stroke-dasharray="3"/></g><g transform="translate(-246,2) scale(1,1)"><rect fill="#C0C0C0" stroke="none" x="663" y="203" width="198.8671875" height="39" opacity="0.2"/></g><g transform="translate(-246,2) scale(1,1)"><rect fill="#d8e5ff" stroke="none" x="656" y="196" width="198.8671875" height="39"/></g><g transform="translate(-246,2) scale(1,1)"><path fill="none" stroke="#000000" d="M 656 196 L 854.8671875 196 L 854.8671875 235 L 656 235 L 656 196 Z Z" stroke-miterlimit="10"/></g><g transform="translate(-246,2) scale(1,1)"><g><path fill="none" stroke="none"/><text fill="#000000" stroke="none" font-family="Arial" font-size="13px" font-style="normal" font-weight="bold" text-decoration="none" x="675.614990234375" y="214">L2: SetLanguageSoftware</text></g></g><g transform="translate(-246,2) scale(1,1)"><path fill="none" stroke="#000000" d="M 756.5 236 L 756.5 694" stroke-miterlimit="10" stroke-dasharray="3"/></g><g transform="translate(-246,2) scale(1,1)"><rect fill="#C0C0C0" stroke="none" x="295" y="47" width="243.43408203125" height="39" opacity="0.2"/></g><g transform="translate(-246,2) scale(1,1)"><rect fill="#ffd8d8" stroke="none" x="288" y="40" width="243.43408203125" height="39"/></g><g transform="translate(-246,2) scale(1,1)"><path fill="none" stroke="#000000" d="M 288 40 L 531.43408203125 40 L 531.43408203125 79 L 288 79 L 288 40 Z Z" stroke-miterlimit="10"/></g><g transform="translate(-246,2) scale(1,1)"><g><path fill="none" stroke="none"/><text fill="#000000" stroke="none" font-family="Arial" font-size="13px" font-style="normal" font-weight="bold" text-decoration="none" x="319.174072265625" y="58">A: AutomaticTicketDispenser</text></g></g><g transform="translate(-246,2) scale(1,1)"><path fill="none" stroke="#000000" d="M 410.5 80 L 410.5 872" stroke-miterlimit="10" stroke-dasharray="3"/></g><g transform="translate(-246,2) scale(1,1)"><path fill="#000000" stroke="none" d="M 312 127.5 C 312 123.6340064 315.1340064 120.5 319 120.5 C 322.8659936 120.5 326 123.6340064 326 127.5 C 326 131.3659936 322.8659936 134.5 319 134.5 C 315.1340064 134.5 312 131.3659936 312 127.5 Z"/></g><g transform="translate(-246,2) scale(1,1)"><rect fill="#C0C0C0" stroke="none" x="927" y="307" width="141.07177734375" height="39" opacity="0.2"/></g><g transform="translate(-246,2) scale(1,1)"><rect fill="#fff5d8" stroke="none" x="920" y="300" width="141.07177734375" height="39"/></g><g transform="translate(-246,2) scale(1,1)"><path fill="none" stroke="#000000" d="M 920 300 L 1061.07177734375 300 L 1061.07177734375 339 L 920 339 L 920 300 Z Z" stroke-miterlimit="10"/></g><g transform="translate(-246,2) scale(1,1)"><g><path fill="none" stroke="none"/><text fill="#000000" stroke="none" font-family="Arial" font-size="13px" font-style="normal" font-weight="bold" text-decoration="none" x="948.28271484375" y="318">L3: Language</text></g></g><g transform="translate(-246,2) scale(1,1)"><path fill="none" stroke="#000000" d="M 991.5 340 L 991.5 587" stroke-miterlimit="10" stroke-dasharray="3"/></g><g transform="translate(-246,2) scale(1,1)"><rect fill="#C0C0C0" stroke="none" x="927" y="475" width="139.630859375" height="39" opacity="0.2"/></g><g transform="translate(-246,2) scale(1,1)"><rect fill="#fff5d8" stroke="none" x="920" y="468" width="139.630859375" height="39"/></g><g transform="translate(-246,2) scale(1,1)"><path fill="none" stroke="#000000" d="M 920 468 L 1059.630859375 468 L 1059.630859375 507 L 920 507 L 920 468 Z Z" stroke-miterlimit="10"/></g><g transform="translate(-246,2) scale(1,1)"><g><path fill="none" stroke="none"/><text fill="#000000" stroke="none" font-family="Arial" font-size="13px" font-style="normal" font-weight="bold" text-decoration="none" x="952.6181640625" y="486">T: Traductor</text></g></g><g transform="translate(-246,2) scale(1,1)"><path fill="none" stroke="#000000" d="M 990.5 508 L 990.5 690" stroke-miterlimit="10" stroke-dasharray="3"/></g><g transform="translate(-246,2) scale(1,1)"><rect fill="#C0C0C0" stroke="none" x="695" y="611" width="141.07177734375" height="39" opacity="0.2"/></g><g transform="translate(-246,2) scale(1,1)"><rect fill="#d8e5ff" stroke="none" x="688" y="604" width="141.07177734375" height="39"/></g><g transform="translate(-246,2) scale(1,1)"><path fill="none" stroke="#000000" d="M 688 604 L 829.07177734375 604 L 829.07177734375 643 L 688 643 L 688 604 Z Z" stroke-miterlimit="10"/></g><g transform="translate(-246,2) scale(1,1)"><g><path fill="none" stroke="none"/><text fill="#000000" stroke="none" font-family="Arial" font-size="13px" font-style="normal" font-weight="bold" text-decoration="none" x="716.28271484375" y="622">L4: Operation</text></g></g><g transform="translate(-246,2) scale(1,1)"><path fill="none" stroke="#000000" d="M 759.5 644 L 759.5 834" stroke-miterlimit="10" stroke-dasharray="3"/></g><g transform="translate(-246,2) scale(1,1)"><rect fill="#C0C0C0" stroke="none" x="695" y="739" width="143.7568359375" height="39" opacity="0.2"/></g><g transform="translate(-246,2) scale(1,1)"><rect fill="#d8e5ff" stroke="none" x="688" y="732" width="143.7568359375" height="39"/></g><g transform="translate(-246,2) scale(1,1)"><path fill="none" stroke="#000000" d="M 688 732 L 831.7568359375 732 L 831.7568359375 771 L 688 771 L 688 732 Z Z" stroke-miterlimit="10"/></g><g transform="translate(-246,2) scale(1,1)"><g><path fill="none" stroke="none"/><text fill="#000000" stroke="none" font-family="Arial" font-size="13px" font-style="normal" font-weight="bold" text-decoration="none" x="704.980712890625" y="750">L5: SaleActuation</text></g></g><g transform="translate(-246,2) scale(1,1)"><path fill="none" stroke="#000000" d="M 760.5 772 L 760.5 864" stroke-miterlimit="10" stroke-dasharray="3"/></g><g transform="translate(-246,2) scale(1,1)"><path fill="#ffffd8" stroke="none" d="M 840 728 L 965 728 L 975 738 L 975 777 L 840 777 L 840 728"/></g><g transform="translate(-246,2) scale(1,1)"><path fill="none" stroke="#000000" d="M 840 728 L 965 728 L 975 738 L 975 777 L 840 777 L 840 728 L 840 728" stroke-miterlimit="10"/></g><g transform="translate(-246,2) scale(1,1)"><path fill="none" stroke="#000000" d="M 965 728 L 965 738 L 975 738 L 965 728" stroke-miterlimit="10"/></g><g transform="translate(-246,2) scale(1,1)"><g><path fill="none" stroke="none"/><text fill="#000000" stroke="none" font-family="Arial" font-size="13px" font-style="normal" font-weight="normal" text-decoration="none" x="845" y="743">Como de momento</text><text fill="#000000" stroke="none" font-family="Arial" font-size="13px" font-style="normal" font-weight="normal" text-decoration="none" x="845" y="756">solo hay una</text><text fill="#000000" stroke="none" font-family="Arial" font-size="13px" font-style="normal" font-weight="normal" text-decoration="none" x="845" y="769">operación</text></g></g><g transform="translate(-246,2) scale(1,1)"><path fill="none" stroke="#000000" d="M 326 128 L 403 128" stroke-miterlimit="10"/></g><g transform="translate(-246,2) scale(1,1)"><path fill="#000000" stroke="none" d="M 392.83732514237585 132.209517756016 L 403 128 L 392.83732514237585 123.79048224398402"/></g><g transform="translate(-246,2) scale(1,1)"><path fill="none" stroke="#000000" d="M 392.83732514237585 132.209517756016 L 403 128 L 392.83732514237585 123.79048224398402 L 392.83732514237585 132.209517756016" stroke-miterlimit="10"/></g><g transform="translate(-246,2) scale(1,1)"><g><path fill="none" stroke="none"/><text fill="#000000" stroke="none" font-family="Arial" font-size="13px" font-style="normal" font-weight="normal" text-decoration="none" x="336.07177734375" y="123">1 : main()</text></g></g><g transform="translate(-246,2) scale(1,1)"><rect fill="#ffadad" stroke="none" x="403" y="128" width="13" height="712"/></g><g transform="translate(-246,2) scale(1,1)"><path fill="none" stroke="#000000" d="M 403 128 L 416 128 L 416 840 L 403 840 L 403 128 Z Z" stroke-miterlimit="10"/></g><g transform="translate(-246,2) scale(1,1)"><path fill="none" stroke="#000000" d="M 416 160 L 504 160" stroke-miterlimit="10" stroke-dasharray="3"/></g><g transform="translate(-246,2) scale(1,1)"><path fill="none" stroke="#000000" d="M 493.83732514237585 164.209517756016 L 504 160 L 493.83732514237585 155.790482243984" stroke-miterlimit="10"/></g><g transform="translate(-246,2) scale(1,1)"><g><path fill="none" stroke="none"/><text fill="#000000" stroke="none" font-family="Arial" font-size="13px" font-style="normal" font-weight="normal" text-decoration="none" x="450.5" y="155">2 : </text></g></g><g transform="translate(-246,2) scale(1,1)"><g><path fill="none" stroke="none"/><text fill="#000000" stroke="none" font-family="Arial" font-size="13px" font-style="normal" font-weight="normal" text-decoration="none" x="434.5" y="139.5">«create»</text></g></g><g transform="translate(-246,2) scale(1,1)"><path fill="none" stroke="#000000" d="M 416 208 L 554 208" stroke-miterlimit="10"/></g><g transform="translate(-246,2) scale(1,1)"><path fill="#000000" stroke="none" d="M 543.8373251423759 212.209517756016 L 554 208 L 543.8373251423758 203.790482243984"/></g><g transform="translate(-246,2) scale(1,1)"><path fill="none" stroke="#000000" d="M 543.8373251423759 212.209517756016 L 554 208 L 543.8373251423758 203.790482243984 L 543.8373251423759 212.209517756016" stroke-miterlimit="10"/></g><g transform="translate(-246,2) scale(1,1)"><g><path fill="none" stroke="none"/><text fill="#000000" stroke="none" font-family="Arial" font-size="13px" font-style="normal" font-weight="normal" text-decoration="none" x="428.5" y="203">3 : initialOperation()</text></g></g><g transform="translate(-246,2) scale(1,1)"><rect fill="#a3e0ff" stroke="none" x="554" y="208" width="13" height="360"/></g><g transform="translate(-246,2) scale(1,1)"><path fill="none" stroke="#000000" d="M 554 208 L 567 208 L 567 568 L 554 568 L 554 208 Z Z" stroke-miterlimit="10"/></g><g transform="translate(-246,2) scale(1,1)"><path fill="none" stroke="#000000" d="M 567 216 L 656 216" stroke-miterlimit="10" stroke-dasharray="3"/></g><g transform="translate(-246,2) scale(1,1)"><path fill="none" stroke="#000000" d="M 645.8373251423759 220.209517756016 L 656 216 L 645.8373251423758 211.790482243984" stroke-miterlimit="10"/></g><g transform="translate(-246,2) scale(1,1)"><g><path fill="none" stroke="none"/><text fill="#000000" stroke="none" font-family="Arial" font-size="13px" font-style="normal" font-weight="normal" text-decoration="none" x="590.5" y="211">4 : new</text></g></g><g transform="translate(-246,2) scale(1,1)"><g><path fill="none" stroke="none"/><text fill="#000000" stroke="none" font-family="Arial" font-size="13px" font-style="normal" font-weight="normal" text-decoration="none" x="585.5" y="195.5">«create»</text></g></g><g transform="translate(-246,2) scale(1,1)"><path fill="none" stroke="#000000" d="M 567 272 L 749 272" stroke-miterlimit="10"/></g><g transform="translate(-246,2) scale(1,1)"><path fill="#000000" stroke="none" d="M 738.8373251423759 276.209517756016 L 749 272 L 738.8373251423758 267.790482243984"/></g><g transform="translate(-246,2) scale(1,1)"><path fill="none" stroke="#000000" d="M 738.8373251423759 276.209517756016 L 749 272 L 738.8373251423758 267.790482243984 L 738.8373251423759 276.209517756016" stroke-miterlimit="10"/></g><g transform="translate(-246,2) scale(1,1)"><g><path fill="none" stroke="none"/><text fill="#000000" stroke="none" font-family="Arial" font-size="13px" font-style="normal" font-weight="normal" text-decoration="none" x="607.5" y="267">5 : getOperation()</text></g></g><g transform="translate(-246,2) scale(1,1)"><rect fill="#adc8ff" stroke="none" x="749" y="272" width="13" height="28"/></g><g transform="translate(-246,2) scale(1,1)"><path fill="none" stroke="#000000" d="M 749 272 L 762 272 L 762 300 L 749 300 L 749 272 Z Z" stroke-miterlimit="10"/></g><g transform="translate(-246,2) scale(1,1)"><path fill="none" stroke="#000000" d="M 567 313 L 749 313" stroke-miterlimit="10"/></g><g transform="translate(-246,2) scale(1,1)"><path fill="#000000" stroke="none" d="M 738.8373251423759 317.209517756016 L 749 313 L 738.8373251423758 308.790482243984"/></g><g transform="translate(-246,2) scale(1,1)"><path fill="none" stroke="#000000" d="M 738.8373251423759 317.209517756016 L 749 313 L 738.8373251423758 308.790482243984 L 738.8373251423759 317.209517756016" stroke-miterlimit="10"/></g><g transform="translate(-246,2) scale(1,1)"><g><path fill="none" stroke="none"/><text fill="#000000" stroke="none" font-family="Arial" font-size="13px" font-style="normal" font-weight="normal" text-decoration="none" x="608.5" y="308">6 : doOperation()</text></g></g><g transform="translate(-246,2) scale(1,1)"><rect fill="#adc8ff" stroke="none" x="749" y="313" width="13" height="255"/></g><g transform="translate(-246,2) scale(1,1)"><path fill="none" stroke="#000000" d="M 749 313 L 762 313 L 762 568 L 749 568 L 749 313 Z Z" stroke-miterlimit="10"/></g><g transform="translate(-246,2) scale(1,1)"><path fill="none" stroke="#000000" d="M 762 320 L 920 320" stroke-miterlimit="10" stroke-dasharray="3"/></g><g transform="translate(-246,2) scale(1,1)"><path fill="none" stroke="#000000" d="M 909.8373251423759 324.209517756016 L 920 320 L 909.8373251423758 315.790482243984" stroke-miterlimit="10"/></g><g transform="translate(-246,2) scale(1,1)"><g><path fill="none" stroke="none"/><text fill="#000000" stroke="none" font-family="Arial" font-size="13px" font-style="normal" font-weight="normal" text-decoration="none" x="831.5" y="315">7 : </text></g></g><g transform="translate(-246,2) scale(1,1)"><g><path fill="none" stroke="none"/><text fill="#000000" stroke="none" font-family="Arial" font-size="13px" font-style="normal" font-weight="normal" text-decoration="none" x="815.5" y="299.5">«create»</text></g></g><g transform="translate(-246,2) scale(1,1)"><path fill="none" stroke="#000000" d="M 762 380 L 984 380" stroke-miterlimit="10"/></g><g transform="translate(-246,2) scale(1,1)"><path fill="#000000" stroke="none" d="M 973.8373251423759 384.209517756016 L 984 380 L 973.8373251423758 375.790482243984"/></g><g transform="translate(-246,2) scale(1,1)"><path fill="none" stroke="#000000" d="M 973.8373251423759 384.209517756016 L 984 380 L 973.8373251423758 375.790482243984 L 973.8373251423759 384.209517756016" stroke-miterlimit="10"/></g><g transform="translate(-246,2) scale(1,1)"><g><path fill="none" stroke="none"/><text fill="#000000" stroke="none" font-family="Arial" font-size="13px" font-style="normal" font-weight="normal" text-decoration="none" x="790.5" y="375">8 : getIconLanguage():String</text></g></g><g transform="translate(-246,2) scale(1,1)"><rect fill="#ffeaad" stroke="none" x="984" y="380" width="13" height="28"/></g><g transform="translate(-246,2) scale(1,1)"><path fill="none" stroke="#000000" d="M 984 380 L 997 380 L 997 408 L 984 408 L 984 380 Z Z" stroke-miterlimit="10"/></g><g transform="translate(-246,2) scale(1,1)"><path fill="none" stroke="#000000" d="M 762 433 L 984 433" stroke-miterlimit="10"/></g><g transform="translate(-246,2) scale(1,1)"><path fill="#000000" stroke="none" d="M 973.8373251423759 437.209517756016 L 984 433 L 973.8373251423758 428.790482243984"/></g><g transform="translate(-246,2) scale(1,1)"><path fill="none" stroke="#000000" d="M 973.8373251423759 437.209517756016 L 984 433 L 973.8373251423758 428.790482243984 L 973.8373251423759 437.209517756016" stroke-miterlimit="10"/></g><g transform="translate(-246,2) scale(1,1)"><g><path fill="none" stroke="none"/><text fill="#000000" stroke="none" font-family="Arial" font-size="13px" font-style="normal" font-weight="normal" text-decoration="none" x="807.5" y="428">9 : getDictionary():Map</text></g></g><g transform="translate(-246,2) scale(1,1)"><rect fill="#ffeaad" stroke="none" x="984" y="433" width="13" height="28"/></g><g transform="translate(-246,2) scale(1,1)"><path fill="none" stroke="#000000" d="M 984 433 L 997 433 L 997 461 L 984 461 L 984 433 Z Z" stroke-miterlimit="10"/></g><g transform="translate(-246,2) scale(1,1)"><path fill="none" stroke="#000000" d="M 762 488 L 920 488" stroke-miterlimit="10" stroke-dasharray="3"/></g><g transform="translate(-246,2) scale(1,1)"><path fill="none" stroke="#000000" d="M 909.8373251423759 492.209517756016 L 920 488 L 909.8373251423758 483.790482243984" stroke-miterlimit="10"/></g><g transform="translate(-246,2) scale(1,1)"><g><path fill="none" stroke="none"/><text fill="#000000" stroke="none" font-family="Arial" font-size="13px" font-style="normal" font-weight="normal" text-decoration="none" x="828.5" y="483">10 : </text></g></g><g transform="translate(-246,2) scale(1,1)"><g><path fill="none" stroke="none"/><text fill="#000000" stroke="none" font-family="Arial" font-size="13px" font-style="normal" font-weight="normal" text-decoration="none" x="815.5" y="467.5">«create»</text></g></g><g transform="translate(-246,2) scale(1,1)"><path fill="none" stroke="#000000" d="M 762 536 L 983 536" stroke-miterlimit="10"/></g><g transform="translate(-246,2) scale(1,1)"><path fill="#000000" stroke="none" d="M 972.8373251423759 540.209517756016 L 983 536 L 972.8373251423758 531.790482243984"/></g><g transform="translate(-246,2) scale(1,1)"><path fill="none" stroke="#000000" d="M 972.8373251423759 540.209517756016 L 983 536 L 972.8373251423758 531.790482243984 L 972.8373251423759 540.209517756016" stroke-miterlimit="10"/></g><g transform="translate(-246,2) scale(1,1)"><g><path fill="none" stroke="none"/><text fill="#000000" stroke="none" font-family="Arial" font-size="13px" font-style="normal" font-weight="normal" text-decoration="none" x="792.5" y="527">11 : setSoftwareLanguage()</text></g></g><g transform="translate(-246,2) scale(1,1)"><rect fill="#ffeaad" stroke="none" x="983" y="536" width="13" height="28"/></g><g transform="translate(-246,2) scale(1,1)"><path fill="none" stroke="#000000" d="M 983 536 L 996 536 L 996 564 L 983 564 L 983 536 Z Z" stroke-miterlimit="10"/></g><g transform="translate(-246,2) scale(1,1)"><path fill="none" stroke="#000000" d="M 416 592 L 554 592" stroke-miterlimit="10"/></g><g transform="translate(-246,2) scale(1,1)"><path fill="#000000" stroke="none" d="M 543.8373251423759 596.209517756016 L 554 592 L 543.8373251423758 587.790482243984"/></g><g transform="translate(-246,2) scale(1,1)"><path fill="none" stroke="#000000" d="M 543.8373251423759 596.209517756016 L 554 592 L 543.8373251423758 587.790482243984 L 543.8373251423759 596.209517756016" stroke-miterlimit="10"/></g><g transform="translate(-246,2) scale(1,1)"><g><path fill="none" stroke="none"/><text fill="#000000" stroke="none" font-family="Arial" font-size="13px" font-style="normal" font-weight="normal" text-decoration="none" x="421.5" y="587">12 : showOperations()</text></g></g><g transform="translate(-246,2) scale(1,1)"><rect fill="#a3e0ff" stroke="none" x="554" y="592" width="13" height="240"/></g><g transform="translate(-246,2) scale(1,1)"><path fill="none" stroke="#000000" d="M 554 592 L 567 592 L 567 832 L 554 832 L 554 592 Z Z" stroke-miterlimit="10"/></g><g transform="translate(-246,2) scale(1,1)"><path fill="none" stroke="#000000" d="M 567 624 L 688 624" stroke-miterlimit="10" stroke-dasharray="3"/></g><g transform="translate(-246,2) scale(1,1)"><path fill="none" stroke="#000000" d="M 677.8373251423759 628.209517756016 L 688 624 L 677.8373251423758 619.790482243984" stroke-miterlimit="10"/></g><g transform="translate(-246,2) scale(1,1)"><g><path fill="none" stroke="none"/><text fill="#000000" stroke="none" font-family="Arial" font-size="13px" font-style="normal" font-weight="normal" text-decoration="none" x="614.5" y="619">13 : </text></g></g><g transform="translate(-246,2) scale(1,1)"><g><path fill="none" stroke="none"/><text fill="#000000" stroke="none" font-family="Arial" font-size="13px" font-style="normal" font-weight="normal" text-decoration="none" x="601.5" y="603.5">«create»</text></g></g><g transform="translate(-246,2) scale(1,1)"><path fill="none" stroke="#000000" d="M 567 680 L 752 680" stroke-miterlimit="10"/></g><g transform="translate(-246,2) scale(1,1)"><path fill="#000000" stroke="none" d="M 741.8373251423759 684.209517756016 L 752 680 L 741.8373251423758 675.790482243984"/></g><g transform="translate(-246,2) scale(1,1)"><path fill="none" stroke="#000000" d="M 741.8373251423759 684.209517756016 L 752 680 L 741.8373251423758 675.790482243984 L 741.8373251423759 684.209517756016" stroke-miterlimit="10"/></g><g transform="translate(-246,2) scale(1,1)"><g><path fill="none" stroke="none"/><text fill="#000000" stroke="none" font-family="Arial" font-size="13px" font-style="normal" font-weight="normal" text-decoration="none" x="604.5" y="675">14 : getOperation()</text></g></g><g transform="translate(-246,2) scale(1,1)"><rect fill="#adc8ff" stroke="none" x="752" y="680" width="13" height="28"/></g><g transform="translate(-246,2) scale(1,1)"><path fill="none" stroke="#000000" d="M 752 680 L 765 680 L 765 708 L 752 708 L 752 680 Z Z" stroke-miterlimit="10"/></g><g transform="translate(-246,2) scale(1,1)"><path fill="none" stroke="#000000" d="M 567 752 L 688 752" stroke-miterlimit="10" stroke-dasharray="3"/></g><g transform="translate(-246,2) scale(1,1)"><path fill="none" stroke="#000000" d="M 677.8373251423759 756.209517756016 L 688 752 L 677.8373251423758 747.790482243984" stroke-miterlimit="10"/></g><g transform="translate(-246,2) scale(1,1)"><g><path fill="none" stroke="none"/><text fill="#000000" stroke="none" font-family="Arial" font-size="13px" font-style="normal" font-weight="normal" text-decoration="none" x="614.5" y="747">15 : </text></g></g><g transform="translate(-246,2) scale(1,1)"><g><path fill="none" stroke="none"/><text fill="#000000" stroke="none" font-family="Arial" font-size="13px" font-style="normal" font-weight="normal" text-decoration="none" x="601.5" y="731.5">«create»</text></g></g><g transform="translate(-246,2) scale(1,1)"><path fill="none" stroke="#000000" d="M 567 816 L 753 816" stroke-miterlimit="10"/></g><g transform="translate(-246,2) scale(1,1)"><path fill="#000000" stroke="none" d="M 742.8373251423759 820.209517756016 L 753 816 L 742.8373251423758 811.790482243984"/></g><g transform="translate(-246,2) scale(1,1)"><path fill="none" stroke="#000000" d="M 742.8373251423759 820.209517756016 L 753 816 L 742.8373251423758 811.790482243984 L 742.8373251423759 820.209517756016" stroke-miterlimit="10"/></g><g transform="translate(-246,2) scale(1,1)"><g><path fill="none" stroke="none"/><text fill="#000000" stroke="none" font-family="Arial" font-size="13px" font-style="normal" font-weight="normal" text-decoration="none" x="607.5" y="811">16 : doOperation()</text></g></g><g transform="translate(-246,2) scale(1,1)"><rect fill="#adc8ff" stroke="none" x="753" y="816" width="13" height="28"/></g><g transform="translate(-246,2) scale(1,1)"><path fill="none" stroke="#000000" d="M 753 816 L 766 816 L 766 844 L 753 844 L 753 816 Z Z" stroke-miterlimit="10"/></g><g transform="translate(-246,2) scale(1,1)"><path fill="none" stroke="#000000" d="M 600 336 L 773.71337890625 336 L 773.71337890625 416 L 600 416 L 600 336" stroke-miterlimit="10"/></g><g transform="translate(-246,2) scale(1,1)"><path fill="#ebffd8" stroke="none" d="M 600 336 L 600 358 L 744.66064453125 358 L 755.66064453125 347 L 755.66064453125 336 L 600 336"/></g><g transform="translate(-246,2) scale(1,1)"><path fill="none" stroke="#000000" d="M 600 336 L 600 358 L 744.66064453125 358 L 755.66064453125 347 L 755.66064453125 336 L 600 336 L 600 336" stroke-miterlimit="10"/></g><g transform="translate(-246,2) scale(1,1)"><g><path fill="none" stroke="none"/><text fill="#000000" stroke="none" font-family="Arial" font-size="13px" font-style="normal" font-weight="normal" text-decoration="none" x="635.578125" y="352">for each language</text></g></g><g transform="translate(-246,2) scale(1,1)"><g><path fill="none" stroke="none"/><text fill="#000000" stroke="none" font-family="Arial" font-size="13px" font-style="normal" font-weight="bold" text-decoration="none" x="603.57177734375" y="352">loop</text></g></g><g transform="translate(-246,2) scale(1,1)"><path fill="none" stroke="#000000" d="M 432 640 L 625.21337890625 640 L 625.21337890625 711 L 432 711 L 432 640" stroke-miterlimit="10"/></g><g transform="translate(-246,2) scale(1,1)"><path fill="#ebffd8" stroke="none" d="M 432 640 L 432 662 L 577.37158203125 662 L 588.37158203125 651 L 588.37158203125 640 L 432 640"/></g><g transform="translate(-246,2) scale(1,1)"><path fill="none" stroke="#000000" d="M 432 640 L 432 662 L 577.37158203125 662 L 588.37158203125 651 L 588.37158203125 640 L 432 640 L 432 640" stroke-miterlimit="10"/></g><g transform="translate(-246,2) scale(1,1)"><g><path fill="none" stroke="none"/><text fill="#000000" stroke="none" font-family="Arial" font-size="13px" font-style="normal" font-weight="normal" text-decoration="none" x="467.578125" y="656">for each operation</text></g></g><g transform="translate(-246,2) scale(1,1)"><g><path fill="none" stroke="none"/><text fill="#000000" stroke="none" font-family="Arial" font-size="13px" font-style="normal" font-weight="bold" text-decoration="none" x="435.57177734375" y="656">loop</text></g></g></g></svg>