<svg xmlns="http://www.w3.org/2000/svg" xmlns:xlink="http://www.w3.org/1999/xlink" version="1.1" width="1220" height="1668"><defs/><g><g transform="translate(-198,2) scale(1,1)"><path fill="none" stroke="#000000" d="M 208 8 L 1408 8 L 1408 1656 L 208 1656 L 208 8" stroke-miterlimit="10"/></g><g transform="translate(-198,2) scale(1,1)"><path fill="#ebffd8" stroke="none" d="M 208 8 L 208 30 L 304.4375 30 L 315.4375 19 L 315.4375 8 L 208 8"/></g><g transform="translate(-198,2) scale(1,1)"><path fill="none" stroke="#000000" d="M 208 8 L 208 30 L 304.4375 30 L 315.4375 19 L 315.4375 8 L 208 8 L 208 8" stroke-miterlimit="10"/></g><g transform="translate(-198,2) scale(1,1)"><g><path fill="none" stroke="none"/><text fill="#000000" stroke="none" font-family="Arial" font-size="13px" font-style="normal" font-weight="normal" text-decoration="none" x="232.72998046875" y="24">TicketSales</text></g></g><g transform="translate(-198,2) scale(1,1)"><g><path fill="none" stroke="none"/><text fill="#000000" stroke="none" font-family="Arial" font-size="13px" font-style="normal" font-weight="bold" text-decoration="none" x="212.279541015625" y="24">sd</text></g></g><g transform="translate(-198,2) scale(1,1)"><rect fill="#ffffff" stroke="none" x="208" y="32" width="1200" height="1624"/></g><g transform="translate(-198,2) scale(1,1)"><path fill="none" stroke="#000000" d="M 208 32 L 1408 32 L 1408 1656 L 208 1656 L 208 32 Z Z" stroke-miterlimit="10"/></g><g transform="translate(-198,2) scale(1,1)"><rect fill="#C0C0C0" stroke="none" x="951" y="47" width="226.8349609375" height="39" opacity="0.2"/></g><g transform="translate(-198,2) scale(1,1)"><rect fill="#d8fff8" stroke="none" x="944" y="40" width="226.8349609375" height="39"/></g><g transform="translate(-198,2) scale(1,1)"><path fill="none" stroke="#000000" d="M 944 40 L 1170.8349609375 40 L 1170.8349609375 79 L 944 79 L 944 40 Z Z" stroke-miterlimit="10"/></g><g transform="translate(-198,2) scale(1,1)"><g><path fill="none" stroke="none"/><text fill="#000000" stroke="none" font-family="Arial" font-size="13px" font-style="normal" font-weight="bold" text-decoration="none" x="953.5" y="58">Lifeline5: TheaterTicketDispenser</text></g></g><g transform="translate(-198,2) scale(1,1)"><path fill="none" stroke="#000000" d="M 1058.5 80 L 1058.5 1482" stroke-miterlimit="10" stroke-dasharray="3"/></g><g transform="translate(-198,2) scale(1,1)"><rect fill="#C0C0C0" stroke="none" x="463" y="47" width="166.36083984375" height="39" opacity="0.2"/></g><g transform="translate(-198,2) scale(1,1)"><rect fill="#d8e5ff" stroke="none" x="456" y="40" width="166.36083984375" height="39"/></g><g transform="translate(-198,2) scale(1,1)"><path fill="none" stroke="#000000" d="M 456 40 L 622.36083984375 40 L 622.36083984375 79 L 456 79 L 456 40 Z Z" stroke-miterlimit="10"/></g><g transform="translate(-198,2) scale(1,1)"><g><path fill="none" stroke="none"/><text fill="#000000" stroke="none" font-family="Arial" font-size="13px" font-style="normal" font-weight="bold" text-decoration="none" x="465.5" y="58">Lifeline1: SaleActuation</text></g></g><g transform="translate(-198,2) scale(1,1)"><path fill="none" stroke="#000000" d="M 540.5 80 L 540.5 1632" stroke-miterlimit="10" stroke-dasharray="3"/></g><g transform="translate(-198,2) scale(1,1)"><path fill="#000000" stroke="none" d="M 344 128.5 C 344 124.6340064 347.1340064 121.5 351 121.5 C 354.8659936 121.5 358 124.6340064 358 128.5 C 358 132.3659936 354.8659936 135.5 351 135.5 C 347.1340064 135.5 344 132.3659936 344 128.5 Z"/></g><g transform="translate(-198,2) scale(1,1)"><rect fill="#C0C0C0" stroke="none" x="709" y="163" width="186.578125" height="39" opacity="0.2"/></g><g transform="translate(-198,2) scale(1,1)"><rect fill="#fff5d8" stroke="none" x="702" y="156" width="186.578125" height="39"/></g><g transform="translate(-198,2) scale(1,1)"><path fill="none" stroke="#000000" d="M 702 156 L 888.578125 156 L 888.578125 195 L 702 195 L 702 156 Z Z" stroke-miterlimit="10"/></g><g transform="translate(-198,2) scale(1,1)"><g><path fill="none" stroke="none"/><text fill="#000000" stroke="none" font-family="Arial" font-size="13px" font-style="normal" font-weight="bold" text-decoration="none" x="711.5" y="174">Lifeline2: TheatreActuation</text></g></g><g transform="translate(-198,2) scale(1,1)"><path fill="none" stroke="#000000" d="M 796.5 196 L 796.5 490" stroke-miterlimit="10" stroke-dasharray="3"/></g><g transform="translate(-198,2) scale(1,1)"><rect fill="#C0C0C0" stroke="none" x="729" y="483" width="146.15625" height="39" opacity="0.2"/></g><g transform="translate(-198,2) scale(1,1)"><rect fill="#d6adff" stroke="none" x="722" y="476" width="146.15625" height="39"/></g><g transform="translate(-198,2) scale(1,1)"><path fill="none" stroke="#000000" d="M 722 476 L 868.15625 476 L 868.15625 515 L 722 515 L 722 476 Z Z" stroke-miterlimit="10"/></g><g transform="translate(-198,2) scale(1,1)"><g><path fill="none" stroke="none"/><text fill="#000000" stroke="none" font-family="Arial" font-size="13px" font-style="normal" font-weight="bold" text-decoration="none" x="731.5" y="494">Lifeline3: SelectDate</text></g></g><g transform="translate(-198,2) scale(1,1)"><path fill="none" stroke="#000000" d="M 796.5 516 L 796.5 686" stroke-miterlimit="10" stroke-dasharray="3"/></g><g transform="translate(-198,2) scale(1,1)"><rect fill="#C0C0C0" stroke="none" x="679" y="683" width="248.7216796875" height="39" opacity="0.2"/></g><g transform="translate(-198,2) scale(1,1)"><rect fill="#d6adff" stroke="none" x="672" y="676" width="248.7216796875" height="39"/></g><g transform="translate(-198,2) scale(1,1)"><path fill="none" stroke="#000000" d="M 672 676 L 920.7216796875 676 L 920.7216796875 715 L 672 715 L 672 676 Z Z" stroke-miterlimit="10"/></g><g transform="translate(-198,2) scale(1,1)"><g><path fill="none" stroke="none"/><text fill="#000000" stroke="none" font-family="Arial" font-size="13px" font-style="normal" font-weight="bold" text-decoration="none" x="681.5" y="694">Lifeline4: SelectTheatreZoneAndSeat</text></g></g><g transform="translate(-198,2) scale(1,1)"><path fill="none" stroke="#000000" d="M 797.5 716 L 797.5 1062" stroke-miterlimit="10" stroke-dasharray="3"/></g><g transform="translate(-198,2) scale(1,1)"><rect fill="#C0C0C0" stroke="none" x="735" y="1075" width="140.14501953125" height="39" opacity="0.2"/></g><g transform="translate(-198,2) scale(1,1)"><rect fill="#ffd8ff" stroke="none" x="728" y="1068" width="140.14501953125" height="39"/></g><g transform="translate(-198,2) scale(1,1)"><path fill="none" stroke="#000000" d="M 728 1068 L 868.14501953125 1068 L 868.14501953125 1107 L 728 1107 L 728 1068 Z Z" stroke-miterlimit="10"/></g><g transform="translate(-198,2) scale(1,1)"><g><path fill="none" stroke="none"/><text fill="#000000" stroke="none" font-family="Arial" font-size="13px" font-style="normal" font-weight="bold" text-decoration="none" x="737.5" y="1086">Lifeline6: PayTicket</text></g></g><g transform="translate(-198,2) scale(1,1)"><path fill="none" stroke="#000000" d="M 799.5 1108 L 799.5 1410" stroke-miterlimit="10" stroke-dasharray="3"/></g><g transform="translate(-198,2) scale(1,1)"><rect fill="#C0C0C0" stroke="none" x="1175" y="1227" width="177.234375" height="39" opacity="0.2"/></g><g transform="translate(-198,2) scale(1,1)"><rect fill="#d8fff8" stroke="none" x="1168" y="1220" width="177.234375" height="39"/></g><g transform="translate(-198,2) scale(1,1)"><path fill="none" stroke="#000000" d="M 1168 1220 L 1345.234375 1220 L 1345.234375 1259 L 1168 1259 L 1168 1220 Z Z" stroke-miterlimit="10"/></g><g transform="translate(-198,2) scale(1,1)"><g><path fill="none" stroke="none"/><text fill="#000000" stroke="none" font-family="Arial" font-size="13px" font-style="normal" font-weight="bold" text-decoration="none" x="1177.5" y="1238">Lifeline9: UrjcBankServer</text></g></g><g transform="translate(-198,2) scale(1,1)"><path fill="none" stroke="#000000" d="M 1257.5 1260 L 1257.5 1402" stroke-miterlimit="10" stroke-dasharray="3"/></g><g transform="translate(-198,2) scale(1,1)"><rect fill="#C0C0C0" stroke="none" x="279" y="155" width="159.3974609375" height="39" opacity="0.2"/></g><g transform="translate(-198,2) scale(1,1)"><rect fill="#fff5d8" stroke="none" x="272" y="148" width="159.3974609375" height="39"/></g><g transform="translate(-198,2) scale(1,1)"><path fill="none" stroke="#000000" d="M 272 148 L 431.3974609375 148 L 431.3974609375 187 L 272 187 L 272 148 Z Z" stroke-miterlimit="10"/></g><g transform="translate(-198,2) scale(1,1)"><g><path fill="none" stroke="none"/><text fill="#000000" stroke="none" font-family="Arial" font-size="13px" font-style="normal" font-weight="bold" text-decoration="none" x="281.5" y="166">actuationTicket: Ticket</text></g></g><g transform="translate(-198,2) scale(1,1)"><path fill="none" stroke="#000000" d="M 352.5 188 L 352.5 1466" stroke-miterlimit="10" stroke-dasharray="3"/></g><g transform="translate(-198,2) scale(1,1)"><path fill="#000000" stroke="none" d="M 340 1591.5 C 340 1587.6340064 343.1340064 1584.5 347 1584.5 C 350.8659936 1584.5 354 1587.6340064 354 1591.5 C 354 1595.3659936 350.8659936 1598.5 347 1598.5 C 343.1340064 1598.5 340 1595.3659936 340 1591.5 Z"/></g><g transform="translate(-198,2) scale(1,1)"><rect fill="#C0C0C0" stroke="none" x="695" y="1483" width="227.05078125" height="39" opacity="0.2"/></g><g transform="translate(-198,2) scale(1,1)"><rect fill="#ffebd8" stroke="none" x="688" y="1476" width="227.05078125" height="39"/></g><g transform="translate(-198,2) scale(1,1)"><path fill="none" stroke="#000000" d="M 688 1476 L 915.05078125 1476 L 915.05078125 1515 L 688 1515 L 688 1476 Z Z" stroke-miterlimit="10"/></g><g transform="translate(-198,2) scale(1,1)"><g><path fill="none" stroke="none"/><text fill="#000000" stroke="none" font-family="Arial" font-size="13px" font-style="normal" font-weight="bold" text-decoration="none" x="697.5" y="1494">Lifeline7: ManagerSalesActuation</text></g></g><g transform="translate(-198,2) scale(1,1)"><path fill="none" stroke="#000000" d="M 802.5 1516 L 802.5 1586" stroke-miterlimit="10" stroke-dasharray="3"/></g><g transform="translate(-198,2) scale(1,1)"><path fill="none" stroke="#000000" d="M 358 129 L 533 129" stroke-miterlimit="10"/></g><g transform="translate(-198,2) scale(1,1)"><path fill="#000000" stroke="none" d="M 522.8373251423759 133.209517756016 L 533 129 L 522.8373251423758 124.79048224398402"/></g><g transform="translate(-198,2) scale(1,1)"><path fill="none" stroke="#000000" d="M 522.8373251423759 133.209517756016 L 533 129 L 522.8373251423758 124.79048224398402 L 522.8373251423759 133.209517756016" stroke-miterlimit="10"/></g><g transform="translate(-198,2) scale(1,1)"><g><path fill="none" stroke="none"/><text fill="#000000" stroke="none" font-family="Arial" font-size="13px" font-style="normal" font-weight="normal" text-decoration="none" x="395.5" y="124">1 : doOperation()</text></g></g><g transform="translate(-198,2) scale(1,1)"><rect fill="#adc8ff" stroke="none" x="533" y="129" width="13" height="1487"/></g><g transform="translate(-198,2) scale(1,1)"><path fill="none" stroke="#000000" d="M 533 129 L 546 129 L 546 1616 L 533 1616 L 533 129 Z Z" stroke-miterlimit="10"/></g><g transform="translate(-198,2) scale(1,1)"><path fill="none" stroke="#000000" d="M 533 168 L 431.3974609375 168" stroke-miterlimit="10" stroke-dasharray="3"/></g><g transform="translate(-198,2) scale(1,1)"><path fill="none" stroke="#000000" d="M 441.56013579512415 163.790482243984 L 431.3974609375 168 L 441.56013579512415 172.209517756016" stroke-miterlimit="10"/></g><g transform="translate(-198,2) scale(1,1)"><g><path fill="none" stroke="none"/><text fill="#000000" stroke="none" font-family="Arial" font-size="13px" font-style="normal" font-weight="normal" text-decoration="none" x="471.5" y="183">2 : </text></g></g><g transform="translate(-198,2) scale(1,1)"><g><path fill="none" stroke="none"/><text fill="#000000" stroke="none" font-family="Arial" font-size="13px" font-style="normal" font-weight="normal" text-decoration="none" x="455.5" y="197.5">«create»</text></g></g><g transform="translate(-198,2) scale(1,1)"><path fill="none" stroke="#000000" d="M 546 176 L 702 176" stroke-miterlimit="10" stroke-dasharray="3"/></g><g transform="translate(-198,2) scale(1,1)"><path fill="none" stroke="#000000" d="M 691.8373251423759 180.209517756016 L 702 176 L 691.8373251423758 171.790482243984" stroke-miterlimit="10"/></g><g transform="translate(-198,2) scale(1,1)"><g><path fill="none" stroke="none"/><text fill="#000000" stroke="none" font-family="Arial" font-size="13px" font-style="normal" font-weight="normal" text-decoration="none" x="614.5" y="171">3 : </text></g></g><g transform="translate(-198,2) scale(1,1)"><g><path fill="none" stroke="none"/><text fill="#000000" stroke="none" font-family="Arial" font-size="13px" font-style="normal" font-weight="normal" text-decoration="none" x="598.5" y="155.5">«create»</text></g></g><g transform="translate(-198,2) scale(1,1)"><path fill="none" stroke="#000000" d="M 546 228 L 789 228" stroke-miterlimit="10"/></g><g transform="translate(-198,2) scale(1,1)"><path fill="#000000" stroke="none" d="M 778.8373251423759 232.209517756016 L 789 228 L 778.8373251423758 223.790482243984"/></g><g transform="translate(-198,2) scale(1,1)"><path fill="none" stroke="#000000" d="M 778.8373251423759 232.209517756016 L 789 228 L 778.8373251423758 223.790482243984 L 778.8373251423759 232.209517756016" stroke-miterlimit="10"/></g><g transform="translate(-198,2) scale(1,1)"><g><path fill="none" stroke="none"/><text fill="#000000" stroke="none" font-family="Arial" font-size="13px" font-style="normal" font-weight="normal" text-decoration="none" x="571.5" y="218">4 : showActuationsAvailable()</text></g></g><g transform="translate(-198,2) scale(1,1)"><rect fill="#ffeaad" stroke="none" x="789" y="228" width="13" height="76"/></g><g transform="translate(-198,2) scale(1,1)"><path fill="none" stroke="#000000" d="M 789 228 L 802 228 L 802 304 L 789 304 L 789 228 Z Z" stroke-miterlimit="10"/></g><g transform="translate(-198,2) scale(1,1)"><path fill="none" stroke="#000000" d="M 802 233 L 1051 233" stroke-miterlimit="10"/></g><g transform="translate(-198,2) scale(1,1)"><path fill="#000000" stroke="none" d="M 1040.837325142376 237.209517756016 L 1051 233 L 1040.837325142376 228.790482243984"/></g><g transform="translate(-198,2) scale(1,1)"><path fill="none" stroke="#000000" d="M 1040.837325142376 237.209517756016 L 1051 233 L 1040.837325142376 228.790482243984 L 1040.837325142376 237.209517756016" stroke-miterlimit="10"/></g><g transform="translate(-198,2) scale(1,1)"><g><path fill="none" stroke="none"/><text fill="#000000" stroke="none" font-family="Arial" font-size="13px" font-style="normal" font-weight="normal" text-decoration="none" x="862.5" y="228">5 : setMode(int mode)</text></g></g><g transform="translate(-198,2) scale(1,1)"><rect fill="#91ffec" stroke="none" x="1051" y="233" width="13" height="28"/></g><g transform="translate(-198,2) scale(1,1)"><path fill="none" stroke="#000000" d="M 1051 233 L 1064 233 L 1064 261 L 1051 261 L 1051 233 Z Z" stroke-miterlimit="10"/></g><g transform="translate(-198,2) scale(1,1)"><path fill="none" stroke="#000000" d="M 802 272 L 1051 272" stroke-miterlimit="10"/></g><g transform="translate(-198,2) scale(1,1)"><path fill="#000000" stroke="none" d="M 1040.837325142376 276.209517756016 L 1051 272 L 1040.837325142376 267.790482243984"/></g><g transform="translate(-198,2) scale(1,1)"><path fill="none" stroke="#000000" d="M 1040.837325142376 276.209517756016 L 1051 272 L 1040.837325142376 267.790482243984 L 1040.837325142376 276.209517756016" stroke-miterlimit="10"/></g><g transform="translate(-198,2) scale(1,1)"><g><path fill="none" stroke="none"/><text fill="#000000" stroke="none" font-family="Arial" font-size="13px" font-style="normal" font-weight="normal" text-decoration="none" x="839.5" y="267">6 : setOption(String message)</text></g></g><g transform="translate(-198,2) scale(1,1)"><rect fill="#91ffec" stroke="none" x="1051" y="272" width="13" height="28"/></g><g transform="translate(-198,2) scale(1,1)"><path fill="none" stroke="#000000" d="M 1051 272 L 1064 272 L 1064 300 L 1051 300 L 1051 272 Z Z" stroke-miterlimit="10"/></g><g transform="translate(-198,2) scale(1,1)"><path fill="none" stroke="#000000" d="M 546 336 L 789 336" stroke-miterlimit="10"/></g><g transform="translate(-198,2) scale(1,1)"><path fill="#000000" stroke="none" d="M 778.8373251423759 340.209517756016 L 789 336 L 778.8373251423758 331.790482243984"/></g><g transform="translate(-198,2) scale(1,1)"><path fill="none" stroke="#000000" d="M 778.8373251423759 340.209517756016 L 789 336 L 778.8373251423758 331.790482243984 L 778.8373251423759 340.209517756016" stroke-miterlimit="10"/></g><g transform="translate(-198,2) scale(1,1)"><g><path fill="none" stroke="none"/><text fill="#000000" stroke="none" font-family="Arial" font-size="13px" font-style="normal" font-weight="normal" text-decoration="none" x="600.5" y="331">7 : showActuationInfo()</text></g></g><g transform="translate(-198,2) scale(1,1)"><rect fill="#ffeaad" stroke="none" x="789" y="336" width="13" height="88"/></g><g transform="translate(-198,2) scale(1,1)"><path fill="none" stroke="#000000" d="M 789 336 L 802 336 L 802 424 L 789 424 L 789 336 Z Z" stroke-miterlimit="10"/></g><g transform="translate(-198,2) scale(1,1)"><path fill="none" stroke="#000000" d="M 802 352 L 1051 352" stroke-miterlimit="10"/></g><g transform="translate(-198,2) scale(1,1)"><path fill="#000000" stroke="none" d="M 1040.837325142376 356.209517756016 L 1051 352 L 1040.837325142376 347.790482243984"/></g><g transform="translate(-198,2) scale(1,1)"><path fill="none" stroke="#000000" d="M 1040.837325142376 356.209517756016 L 1051 352 L 1040.837325142376 347.790482243984 L 1040.837325142376 356.209517756016" stroke-miterlimit="10"/></g><g transform="translate(-198,2) scale(1,1)"><g><path fill="none" stroke="none"/><text fill="#000000" stroke="none" font-family="Arial" font-size="13px" font-style="normal" font-weight="normal" text-decoration="none" x="826.5" y="347">8 : setDescription(String message)</text></g></g><g transform="translate(-198,2) scale(1,1)"><rect fill="#91ffec" stroke="none" x="1051" y="352" width="13" height="28"/></g><g transform="translate(-198,2) scale(1,1)"><path fill="none" stroke="#000000" d="M 1051 352 L 1064 352 L 1064 380 L 1051 380 L 1051 352 Z Z" stroke-miterlimit="10"/></g><g transform="translate(-198,2) scale(1,1)"><path fill="none" stroke="#000000" d="M 802 392 L 1051 392" stroke-miterlimit="10"/></g><g transform="translate(-198,2) scale(1,1)"><path fill="#000000" stroke="none" d="M 1040.837325142376 396.209517756016 L 1051 392 L 1040.837325142376 387.790482243984"/></g><g transform="translate(-198,2) scale(1,1)"><path fill="none" stroke="#000000" d="M 1040.837325142376 396.209517756016 L 1051 392 L 1040.837325142376 387.790482243984 L 1040.837325142376 396.209517756016" stroke-miterlimit="10"/></g><g transform="translate(-198,2) scale(1,1)"><g><path fill="none" stroke="none"/><text fill="#000000" stroke="none" font-family="Arial" font-size="13px" font-style="normal" font-weight="normal" text-decoration="none" x="821.114990234375" y="387">9 : setImage(String imageFileName)</text></g></g><g transform="translate(-198,2) scale(1,1)"><rect fill="#91ffec" stroke="none" x="1051" y="392" width="13" height="28"/></g><g transform="translate(-198,2) scale(1,1)"><path fill="none" stroke="#000000" d="M 1051 392 L 1064 392 L 1064 420 L 1051 420 L 1051 392 Z Z" stroke-miterlimit="10"/></g><g transform="translate(-198,2) scale(1,1)"><path fill="none" stroke="#000000" d="M 546 432 L 789 432" stroke-miterlimit="10"/></g><g transform="translate(-198,2) scale(1,1)"><path fill="#000000" stroke="none" d="M 778.8373251423759 436.209517756016 L 789 432 L 778.8373251423758 427.790482243984"/></g><g transform="translate(-198,2) scale(1,1)"><path fill="none" stroke="#000000" d="M 778.8373251423759 436.209517756016 L 789 432 L 778.8373251423758 427.790482243984 L 778.8373251423759 436.209517756016" stroke-miterlimit="10"/></g><g transform="translate(-198,2) scale(1,1)"><g><path fill="none" stroke="none"/><text fill="#000000" stroke="none" font-family="Arial" font-size="13px" font-style="normal" font-weight="normal" text-decoration="none" x="587.5" y="427">10 : selectActuation():String</text></g></g><g transform="translate(-198,2) scale(1,1)"><rect fill="#ffeaad" stroke="none" x="789" y="432" width="13" height="28"/></g><g transform="translate(-198,2) scale(1,1)"><path fill="none" stroke="#000000" d="M 789 432 L 802 432 L 802 460 L 789 460 L 789 432 Z Z" stroke-miterlimit="10"/></g><g transform="translate(-198,2) scale(1,1)"><path fill="none" stroke="#000000" d="M 802 440 L 1051 440" stroke-miterlimit="10"/></g><g transform="translate(-198,2) scale(1,1)"><path fill="#000000" stroke="none" d="M 1040.837325142376 444.209517756016 L 1051 440 L 1040.837325142376 435.790482243984"/></g><g transform="translate(-198,2) scale(1,1)"><path fill="none" stroke="#000000" d="M 1040.837325142376 444.209517756016 L 1051 440 L 1040.837325142376 435.790482243984 L 1040.837325142376 444.209517756016" stroke-miterlimit="10"/></g><g transform="translate(-198,2) scale(1,1)"><g><path fill="none" stroke="none"/><text fill="#000000" stroke="none" font-family="Arial" font-size="13px" font-style="normal" font-weight="normal" text-decoration="none" x="843.982421875" y="435">11 : setTitle(String message)</text></g></g><g transform="translate(-198,2) scale(1,1)"><rect fill="#91ffec" stroke="none" x="1051" y="440" width="13" height="28"/></g><g transform="translate(-198,2) scale(1,1)"><path fill="none" stroke="#000000" d="M 1051 440 L 1064 440 L 1064 468 L 1051 468 L 1051 440 Z Z" stroke-miterlimit="10"/></g><g transform="translate(-198,2) scale(1,1)"><path fill="none" stroke="#000000" d="M 789 448 L 546 448" stroke-miterlimit="10" stroke-dasharray="3"/></g><g transform="translate(-198,2) scale(1,1)"><path fill="none" stroke="#000000" d="M 556.1626748576241 443.790482243984 L 546 448 L 556.1626748576241 452.209517756016" stroke-miterlimit="10"/></g><g transform="translate(-198,2) scale(1,1)"><g><path fill="none" stroke="none"/><text fill="#000000" stroke="none" font-family="Arial" font-size="13px" font-style="normal" font-weight="normal" text-decoration="none" x="612.5" y="463">12 : titleActuaction</text></g></g><g transform="translate(-198,2) scale(1,1)"><path fill="none" stroke="#000000" d="M 533 464 L 358 464" stroke-miterlimit="10"/></g><g transform="translate(-198,2) scale(1,1)"><path fill="#000000" stroke="none" d="M 368.16267485762415 459.790482243984 L 358 464 L 368.16267485762415 468.209517756016"/></g><g transform="translate(-198,2) scale(1,1)"><path fill="none" stroke="#000000" d="M 368.16267485762415 459.790482243984 L 358 464 L 368.16267485762415 468.209517756016 L 368.16267485762415 459.790482243984" stroke-miterlimit="10"/></g><g transform="translate(-198,2) scale(1,1)"><g><path fill="none" stroke="none"/><text fill="#000000" stroke="none" font-family="Arial" font-size="13px" font-style="normal" font-weight="normal" text-decoration="none" x="364.5" y="479">13 : addInfoToTicket(String)</text></g></g><g transform="translate(-198,2) scale(1,1)"><rect fill="#ffeaad" stroke="none" x="345" y="464" width="13" height="28"/></g><g transform="translate(-198,2) scale(1,1)"><path fill="none" stroke="#000000" d="M 345 464 L 358 464 L 358 492 L 345 492 L 345 464 Z Z" stroke-miterlimit="10"/></g><g transform="translate(-198,2) scale(1,1)"><path fill="none" stroke="#000000" d="M 546 496 L 722 496" stroke-miterlimit="10" stroke-dasharray="3"/></g><g transform="translate(-198,2) scale(1,1)"><path fill="none" stroke="#000000" d="M 711.8373251423759 500.209517756016 L 722 496 L 711.8373251423758 491.790482243984" stroke-miterlimit="10"/></g><g transform="translate(-198,2) scale(1,1)"><g><path fill="none" stroke="none"/><text fill="#000000" stroke="none" font-family="Arial" font-size="13px" font-style="normal" font-weight="normal" text-decoration="none" x="647.5" y="491">14 : </text></g></g><g transform="translate(-198,2) scale(1,1)"><g><path fill="none" stroke="none"/><text fill="#000000" stroke="none" font-family="Arial" font-size="13px" font-style="normal" font-weight="normal" text-decoration="none" x="590.5" y="488.5">«create»</text></g></g><g transform="translate(-198,2) scale(1,1)"><path fill="none" stroke="#000000" d="M 546 528 L 789 528" stroke-miterlimit="10"/></g><g transform="translate(-198,2) scale(1,1)"><path fill="#000000" stroke="none" d="M 778.8373251423759 532.209517756016 L 789 528 L 778.8373251423758 523.790482243984"/></g><g transform="translate(-198,2) scale(1,1)"><path fill="none" stroke="#000000" d="M 778.8373251423759 532.209517756016 L 789 528 L 778.8373251423758 523.790482243984 L 778.8373251423759 532.209517756016" stroke-miterlimit="10"/></g><g transform="translate(-198,2) scale(1,1)"><g><path fill="none" stroke="none"/><text fill="#000000" stroke="none" font-family="Arial" font-size="13px" font-style="normal" font-weight="normal" text-decoration="none" x="611.5" y="523">15 : showElection()</text></g></g><g transform="translate(-198,2) scale(1,1)"><rect fill="#c082ff" stroke="none" x="789" y="528" width="13" height="64"/></g><g transform="translate(-198,2) scale(1,1)"><path fill="none" stroke="#000000" d="M 789 528 L 802 528 L 802 592 L 789 592 L 789 528 Z Z" stroke-miterlimit="10"/></g><g transform="translate(-198,2) scale(1,1)"><path fill="none" stroke="#000000" d="M 802 560 L 1051 560" stroke-miterlimit="10"/></g><g transform="translate(-198,2) scale(1,1)"><path fill="#000000" stroke="none" d="M 1040.837325142376 564.209517756016 L 1051 560 L 1040.837325142376 555.790482243984"/></g><g transform="translate(-198,2) scale(1,1)"><path fill="none" stroke="#000000" d="M 1040.837325142376 564.209517756016 L 1051 560 L 1040.837325142376 555.790482243984 L 1040.837325142376 564.209517756016" stroke-miterlimit="10"/></g><g transform="translate(-198,2) scale(1,1)"><g><path fill="none" stroke="none"/><text fill="#000000" stroke="none" font-family="Arial" font-size="13px" font-style="normal" font-weight="normal" text-decoration="none" x="836.5" y="555">16 : setOption(String message)</text></g></g><g transform="translate(-198,2) scale(1,1)"><rect fill="#91ffec" stroke="none" x="1051" y="560" width="13" height="28"/></g><g transform="translate(-198,2) scale(1,1)"><path fill="none" stroke="#000000" d="M 1051 560 L 1064 560 L 1064 588 L 1051 588 L 1051 560 Z Z" stroke-miterlimit="10"/></g><g transform="translate(-198,2) scale(1,1)"><path fill="none" stroke="#000000" d="M 546 624 L 789 624" stroke-miterlimit="10"/></g><g transform="translate(-198,2) scale(1,1)"><path fill="#000000" stroke="none" d="M 778.8373251423759 628.209517756016 L 789 624 L 778.8373251423758 619.790482243984"/></g><g transform="translate(-198,2) scale(1,1)"><path fill="none" stroke="#000000" d="M 778.8373251423759 628.209517756016 L 789 624 L 778.8373251423758 619.790482243984 L 778.8373251423759 628.209517756016" stroke-miterlimit="10"/></g><g transform="translate(-198,2) scale(1,1)"><g><path fill="none" stroke="none"/><text fill="#000000" stroke="none" font-family="Arial" font-size="13px" font-style="normal" font-weight="normal" text-decoration="none" x="624.562255859375" y="619">17 : Message4</text></g></g><g transform="translate(-198,2) scale(1,1)"><rect fill="#aa56ff" stroke="none" x="789" y="624" width="13" height="28"/></g><g transform="translate(-198,2) scale(1,1)"><path fill="none" stroke="#000000" d="M 789 624 L 802 624 L 802 652 L 789 652 L 789 624 Z Z" stroke-miterlimit="10"/></g><g transform="translate(-198,2) scale(1,1)"><path fill="none" stroke="#000000" d="M 789 640 L 546 640" stroke-miterlimit="10" stroke-dasharray="3"/></g><g transform="translate(-198,2) scale(1,1)"><path fill="none" stroke="#000000" d="M 556.1626748576241 635.790482243984 L 546 640 L 556.1626748576241 644.209517756016" stroke-miterlimit="10"/></g><g transform="translate(-198,2) scale(1,1)"><g><path fill="none" stroke="none"/><text fill="#000000" stroke="none" font-family="Arial" font-size="13px" font-style="normal" font-weight="normal" text-decoration="none" x="639.5" y="655">18 : Date</text></g></g><g transform="translate(-198,2) scale(1,1)"><path fill="none" stroke="#000000" d="M 533 656 L 358 656" stroke-miterlimit="10"/></g><g transform="translate(-198,2) scale(1,1)"><path fill="#000000" stroke="none" d="M 368.16267485762415 651.790482243984 L 358 656 L 368.16267485762415 660.209517756016"/></g><g transform="translate(-198,2) scale(1,1)"><path fill="none" stroke="#000000" d="M 368.16267485762415 651.790482243984 L 358 656 L 368.16267485762415 660.209517756016 L 368.16267485762415 651.790482243984" stroke-miterlimit="10"/></g><g transform="translate(-198,2) scale(1,1)"><g><path fill="none" stroke="none"/><text fill="#000000" stroke="none" font-family="Arial" font-size="13px" font-style="normal" font-weight="normal" text-decoration="none" x="364.5" y="671">19 : addInfoToTicket(String)</text></g></g><g transform="translate(-198,2) scale(1,1)"><rect fill="#ffeaad" stroke="none" x="345" y="656" width="13" height="28"/></g><g transform="translate(-198,2) scale(1,1)"><path fill="none" stroke="#000000" d="M 345 656 L 358 656 L 358 684 L 345 684 L 345 656 Z Z" stroke-miterlimit="10"/></g><g transform="translate(-198,2) scale(1,1)"><path fill="none" stroke="#000000" d="M 546 696 L 672 696" stroke-miterlimit="10" stroke-dasharray="3"/></g><g transform="translate(-198,2) scale(1,1)"><path fill="none" stroke="#000000" d="M 661.8373251423759 700.209517756016 L 672 696 L 661.8373251423758 691.790482243984" stroke-miterlimit="10"/></g><g transform="translate(-198,2) scale(1,1)"><g><path fill="none" stroke="none"/><text fill="#000000" stroke="none" font-family="Arial" font-size="13px" font-style="normal" font-weight="normal" text-decoration="none" x="601.5" y="691">20 : </text></g></g><g transform="translate(-198,2) scale(1,1)"><g><path fill="none" stroke="none"/><text fill="#000000" stroke="none" font-family="Arial" font-size="13px" font-style="normal" font-weight="normal" text-decoration="none" x="583.5" y="675.5">«create»</text></g></g><g transform="translate(-198,2) scale(1,1)"><path fill="none" stroke="#000000" d="M 546 744 L 790 744" stroke-miterlimit="10"/></g><g transform="translate(-198,2) scale(1,1)"><path fill="#000000" stroke="none" d="M 779.8373251423759 748.209517756016 L 790 744 L 779.8373251423758 739.790482243984"/></g><g transform="translate(-198,2) scale(1,1)"><path fill="none" stroke="#000000" d="M 779.8373251423759 748.209517756016 L 790 744 L 779.8373251423758 739.790482243984 L 779.8373251423759 748.209517756016" stroke-miterlimit="10"/></g><g transform="translate(-198,2) scale(1,1)"><g><path fill="none" stroke="none"/><text fill="#000000" stroke="none" font-family="Arial" font-size="13px" font-style="normal" font-weight="normal" text-decoration="none" x="612.5" y="739">21 : showElection()</text></g></g><g transform="translate(-198,2) scale(1,1)"><rect fill="#c082ff" stroke="none" x="790" y="744" width="13" height="72"/></g><g transform="translate(-198,2) scale(1,1)"><path fill="none" stroke="#000000" d="M 790 744 L 803 744 L 803 816 L 790 816 L 790 744 Z Z" stroke-miterlimit="10"/></g><g transform="translate(-198,2) scale(1,1)"><path fill="none" stroke="#000000" d="M 803 752 L 1051 752" stroke-miterlimit="10"/></g><g transform="translate(-198,2) scale(1,1)"><path fill="#000000" stroke="none" d="M 1040.837325142376 756.209517756016 L 1051 752 L 1040.837325142376 747.790482243984"/></g><g transform="translate(-198,2) scale(1,1)"><path fill="none" stroke="#000000" d="M 1040.837325142376 756.209517756016 L 1051 752 L 1040.837325142376 747.790482243984 L 1040.837325142376 756.209517756016" stroke-miterlimit="10"/></g><g transform="translate(-198,2) scale(1,1)"><g><path fill="none" stroke="none"/><text fill="#000000" stroke="none" font-family="Arial" font-size="13px" font-style="normal" font-weight="normal" text-decoration="none" x="860.5" y="747">22 : setMode(int mode)</text></g></g><g transform="translate(-198,2) scale(1,1)"><rect fill="#91ffec" stroke="none" x="1051" y="752" width="13" height="28"/></g><g transform="translate(-198,2) scale(1,1)"><path fill="none" stroke="#000000" d="M 1051 752 L 1064 752 L 1064 780 L 1051 780 L 1051 752 Z Z" stroke-miterlimit="10"/></g><g transform="translate(-198,2) scale(1,1)"><path fill="none" stroke="#000000" d="M 803 792 L 1051 792" stroke-miterlimit="10"/></g><g transform="translate(-198,2) scale(1,1)"><path fill="#000000" stroke="none" d="M 1040.837325142376 796.209517756016 L 1051 792 L 1040.837325142376 787.790482243984"/></g><g transform="translate(-198,2) scale(1,1)"><path fill="none" stroke="#000000" d="M 1040.837325142376 796.209517756016 L 1051 792 L 1040.837325142376 787.790482243984 L 1040.837325142376 796.209517756016" stroke-miterlimit="10"/></g><g transform="translate(-198,2) scale(1,1)"><g><path fill="none" stroke="none"/><text fill="#000000" stroke="none" font-family="Arial" font-size="13px" font-style="normal" font-weight="normal" text-decoration="none" x="837.5" y="787">23 : setOption(String message)</text></g></g><g transform="translate(-198,2) scale(1,1)"><rect fill="#91ffec" stroke="none" x="1051" y="792" width="13" height="28"/></g><g transform="translate(-198,2) scale(1,1)"><path fill="none" stroke="#000000" d="M 1051 792 L 1064 792 L 1064 820 L 1051 820 L 1051 792 Z Z" stroke-miterlimit="10"/></g><g transform="translate(-198,2) scale(1,1)"><path fill="none" stroke="#000000" d="M 546 848 L 790 848" stroke-miterlimit="10"/></g><g transform="translate(-198,2) scale(1,1)"><path fill="#000000" stroke="none" d="M 779.8373251423759 852.209517756016 L 790 848 L 779.8373251423758 843.790482243984"/></g><g transform="translate(-198,2) scale(1,1)"><path fill="none" stroke="#000000" d="M 779.8373251423759 852.209517756016 L 790 848 L 779.8373251423758 843.790482243984 L 779.8373251423759 852.209517756016" stroke-miterlimit="10"/></g><g transform="translate(-198,2) scale(1,1)"><g><path fill="none" stroke="none"/><text fill="#000000" stroke="none" font-family="Arial" font-size="13px" font-style="normal" font-weight="normal" text-decoration="none" x="583.5" y="843">24 : getOption():TheatreZone</text></g></g><g transform="translate(-198,2) scale(1,1)"><rect fill="#c082ff" stroke="none" x="790" y="848" width="13" height="28"/></g><g transform="translate(-198,2) scale(1,1)"><path fill="none" stroke="#000000" d="M 790 848 L 803 848 L 803 876 L 790 876 L 790 848 Z Z" stroke-miterlimit="10"/></g><g transform="translate(-198,2) scale(1,1)"><path fill="none" stroke="#000000" d="M 790 864 L 546 864" stroke-miterlimit="10" stroke-dasharray="3"/></g><g transform="translate(-198,2) scale(1,1)"><path fill="none" stroke="#000000" d="M 556.1626748576241 859.790482243984 L 546 864 L 556.1626748576241 868.209517756016" stroke-miterlimit="10"/></g><g transform="translate(-198,2) scale(1,1)"><g><path fill="none" stroke="none"/><text fill="#000000" stroke="none" font-family="Arial" font-size="13px" font-style="normal" font-weight="normal" text-decoration="none" x="617.5" y="879">25 : TheatreZone</text></g></g><g transform="translate(-198,2) scale(1,1)"><path fill="none" stroke="#000000" d="M 533 872 L 358 872" stroke-miterlimit="10"/></g><g transform="translate(-198,2) scale(1,1)"><path fill="#000000" stroke="none" d="M 368.16267485762415 867.790482243984 L 358 872 L 368.16267485762415 876.209517756016"/></g><g transform="translate(-198,2) scale(1,1)"><path fill="none" stroke="#000000" d="M 368.16267485762415 867.790482243984 L 358 872 L 368.16267485762415 876.209517756016 L 368.16267485762415 867.790482243984" stroke-miterlimit="10"/></g><g transform="translate(-198,2) scale(1,1)"><g><path fill="none" stroke="none"/><text fill="#000000" stroke="none" font-family="Arial" font-size="13px" font-style="normal" font-weight="normal" text-decoration="none" x="364.5" y="887">26 : addInfoToTicket(String)</text></g></g><g transform="translate(-198,2) scale(1,1)"><rect fill="#ffeaad" stroke="none" x="345" y="872" width="13" height="28"/></g><g transform="translate(-198,2) scale(1,1)"><path fill="none" stroke="#000000" d="M 345 872 L 358 872 L 358 900 L 345 900 L 345 872 Z Z" stroke-miterlimit="10"/></g><g transform="translate(-198,2) scale(1,1)"><path fill="none" stroke="#000000" d="M 546 904 L 790 904" stroke-miterlimit="10"/></g><g transform="translate(-198,2) scale(1,1)"><path fill="#000000" stroke="none" d="M 779.8373251423759 908.209517756016 L 790 904 L 779.8373251423758 899.790482243984"/></g><g transform="translate(-198,2) scale(1,1)"><path fill="none" stroke="#000000" d="M 779.8373251423759 908.209517756016 L 790 904 L 779.8373251423758 899.790482243984 L 779.8373251423759 908.209517756016" stroke-miterlimit="10"/></g><g transform="translate(-198,2) scale(1,1)"><g><path fill="none" stroke="none"/><text fill="#000000" stroke="none" font-family="Arial" font-size="13px" font-style="normal" font-weight="normal" text-decoration="none" x="582.5" y="899">27 : showSeats(TheatreZone)</text></g></g><g transform="translate(-198,2) scale(1,1)"><rect fill="#c082ff" stroke="none" x="790" y="904" width="13" height="56"/></g><g transform="translate(-198,2) scale(1,1)"><path fill="none" stroke="#000000" d="M 790 904 L 803 904 L 803 960 L 790 960 L 790 904 Z Z" stroke-miterlimit="10"/></g><g transform="translate(-198,2) scale(1,1)"><path fill="none" stroke="#000000" d="M 803 928 L 1051 928" stroke-miterlimit="10"/></g><g transform="translate(-198,2) scale(1,1)"><path fill="#000000" stroke="none" d="M 1040.837325142376 932.209517756016 L 1051 928 L 1040.837325142376 923.790482243984"/></g><g transform="translate(-198,2) scale(1,1)"><path fill="none" stroke="#000000" d="M 1040.837325142376 932.209517756016 L 1051 928 L 1040.837325142376 923.790482243984 L 1040.837325142376 932.209517756016" stroke-miterlimit="10"/></g><g transform="translate(-198,2) scale(1,1)"><g><path fill="none" stroke="none"/><text fill="#000000" stroke="none" font-family="Arial" font-size="13px" font-style="normal" font-weight="normal" text-decoration="none" x="837.5" y="923">28 : setOption(String message)</text></g></g><g transform="translate(-198,2) scale(1,1)"><rect fill="#91ffec" stroke="none" x="1051" y="928" width="13" height="28"/></g><g transform="translate(-198,2) scale(1,1)"><path fill="none" stroke="#000000" d="M 1051 928 L 1064 928 L 1064 956 L 1051 956 L 1051 928 Z Z" stroke-miterlimit="10"/></g><g transform="translate(-198,2) scale(1,1)"><path fill="none" stroke="#000000" d="M 546 1000 L 790 1000" stroke-miterlimit="10"/></g><g transform="translate(-198,2) scale(1,1)"><path fill="#000000" stroke="none" d="M 779.8373251423759 1004.209517756016 L 790 1000 L 779.8373251423758 995.790482243984"/></g><g transform="translate(-198,2) scale(1,1)"><path fill="none" stroke="#000000" d="M 779.8373251423759 1004.209517756016 L 790 1000 L 779.8373251423758 995.790482243984 L 779.8373251423759 1004.209517756016" stroke-miterlimit="10"/></g><g transform="translate(-198,2) scale(1,1)"><g><path fill="none" stroke="none"/><text fill="#000000" stroke="none" font-family="Arial" font-size="13px" font-style="normal" font-weight="normal" text-decoration="none" x="610.292236328125" y="995">29 : getSeat():String</text></g></g><g transform="translate(-198,2) scale(1,1)"><rect fill="#c082ff" stroke="none" x="790" y="1000" width="13" height="40"/></g><g transform="translate(-198,2) scale(1,1)"><path fill="none" stroke="#000000" d="M 790 1000 L 803 1000 L 803 1040 L 790 1040 L 790 1000 Z Z" stroke-miterlimit="10"/></g><g transform="translate(-198,2) scale(1,1)"><path fill="none" stroke="#000000" d="M 803 1016 L 1051 1016" stroke-miterlimit="10"/></g><g transform="translate(-198,2) scale(1,1)"><path fill="#000000" stroke="none" d="M 1040.837325142376 1020.209517756016 L 1051 1016 L 1040.837325142376 1011.790482243984"/></g><g transform="translate(-198,2) scale(1,1)"><path fill="none" stroke="#000000" d="M 1040.837325142376 1020.209517756016 L 1051 1016 L 1040.837325142376 1011.790482243984 L 1040.837325142376 1020.209517756016" stroke-miterlimit="10"/></g><g transform="translate(-198,2) scale(1,1)"><g><path fill="none" stroke="none"/><text fill="#000000" stroke="none" font-family="Arial" font-size="13px" font-style="normal" font-weight="normal" text-decoration="none" x="803.5" y="1011">30 : markSeat(int row, int column, int state)</text></g></g><g transform="translate(-198,2) scale(1,1)"><rect fill="#91ffec" stroke="none" x="1051" y="1016" width="13" height="28"/></g><g transform="translate(-198,2) scale(1,1)"><path fill="none" stroke="#000000" d="M 1051 1016 L 1064 1016 L 1064 1044 L 1051 1044 L 1051 1016 Z Z" stroke-miterlimit="10"/></g><g transform="translate(-198,2) scale(1,1)"><path fill="none" stroke="#000000" d="M 790 1032 L 546 1032" stroke-miterlimit="10" stroke-dasharray="3"/></g><g transform="translate(-198,2) scale(1,1)"><path fill="none" stroke="#000000" d="M 556.1626748576241 1027.7904822439841 L 546 1032 L 556.1626748576241 1036.2095177560159" stroke-miterlimit="10"/></g><g transform="translate(-198,2) scale(1,1)"><g><path fill="none" stroke="none"/><text fill="#000000" stroke="none" font-family="Arial" font-size="13px" font-style="normal" font-weight="normal" text-decoration="none" x="618.5" y="1047">31 : TheatreSeat</text></g></g><g transform="translate(-198,2) scale(1,1)"><path fill="none" stroke="#000000" d="M 533 1052 L 358 1052" stroke-miterlimit="10"/></g><g transform="translate(-198,2) scale(1,1)"><path fill="#000000" stroke="none" d="M 368.16267485762415 1047.7904822439841 L 358 1052 L 368.16267485762415 1056.2095177560159"/></g><g transform="translate(-198,2) scale(1,1)"><path fill="none" stroke="#000000" d="M 368.16267485762415 1047.7904822439841 L 358 1052 L 368.16267485762415 1056.2095177560159 L 368.16267485762415 1047.7904822439841" stroke-miterlimit="10"/></g><g transform="translate(-198,2) scale(1,1)"><g><path fill="none" stroke="none"/><text fill="#000000" stroke="none" font-family="Arial" font-size="13px" font-style="normal" font-weight="normal" text-decoration="none" x="364.5" y="1067">32 : addInfoToTicket(String)</text></g></g><g transform="translate(-198,2) scale(1,1)"><rect fill="#ffeaad" stroke="none" x="345" y="1052" width="13" height="28"/></g><g transform="translate(-198,2) scale(1,1)"><path fill="none" stroke="#000000" d="M 345 1052 L 358 1052 L 358 1080 L 345 1080 L 345 1052 Z Z" stroke-miterlimit="10"/></g><g transform="translate(-198,2) scale(1,1)"><path fill="none" stroke="#000000" d="M 546 1088 L 728 1088" stroke-miterlimit="10" stroke-dasharray="3"/></g><g transform="translate(-198,2) scale(1,1)"><path fill="none" stroke="#000000" d="M 717.8373251423759 1092.2095177560159 L 728 1088 L 717.8373251423758 1083.7904822439841" stroke-miterlimit="10"/></g><g transform="translate(-198,2) scale(1,1)"><g><path fill="none" stroke="none"/><text fill="#000000" stroke="none" font-family="Arial" font-size="13px" font-style="normal" font-weight="normal" text-decoration="none" x="624.5" y="1083">33 : </text></g></g><g transform="translate(-198,2) scale(1,1)"><g><path fill="none" stroke="none"/><text fill="#000000" stroke="none" font-family="Arial" font-size="13px" font-style="normal" font-weight="normal" text-decoration="none" x="611.5" y="1067.5">«create»</text></g></g><g transform="translate(-198,2) scale(1,1)"><path fill="none" stroke="#000000" d="M 546 1128 L 792 1128" stroke-miterlimit="10"/></g><g transform="translate(-198,2) scale(1,1)"><path fill="#000000" stroke="none" d="M 781.8373251423759 1132.2095177560159 L 792 1128 L 781.8373251423758 1123.7904822439841"/></g><g transform="translate(-198,2) scale(1,1)"><path fill="none" stroke="#000000" d="M 781.8373251423759 1132.2095177560159 L 792 1128 L 781.8373251423758 1123.7904822439841 L 781.8373251423759 1132.2095177560159" stroke-miterlimit="10"/></g><g transform="translate(-198,2) scale(1,1)"><g><path fill="none" stroke="none"/><text fill="#000000" stroke="none" font-family="Arial" font-size="13px" font-style="normal" font-weight="normal" text-decoration="none" x="606.5" y="1123">34 : setCardNumber()</text></g></g><g transform="translate(-198,2) scale(1,1)"><rect fill="#ffa3ff" stroke="none" x="792" y="1128" width="13" height="28"/></g><g transform="translate(-198,2) scale(1,1)"><path fill="none" stroke="#000000" d="M 792 1128 L 805 1128 L 805 1156 L 792 1156 L 792 1128 Z Z" stroke-miterlimit="10"/></g><g transform="translate(-198,2) scale(1,1)"><path fill="none" stroke="#000000" d="M 805 1144 L 1051 1144" stroke-miterlimit="10"/></g><g transform="translate(-198,2) scale(1,1)"><path fill="#000000" stroke="none" d="M 1040.837325142376 1148.2095177560159 L 1051 1144 L 1040.837325142376 1139.7904822439841"/></g><g transform="translate(-198,2) scale(1,1)"><path fill="none" stroke="#000000" d="M 1040.837325142376 1148.2095177560159 L 1051 1144 L 1040.837325142376 1139.7904822439841 L 1040.837325142376 1148.2095177560159" stroke-miterlimit="10"/></g><g transform="translate(-198,2) scale(1,1)"><g><path fill="none" stroke="none"/><text fill="#000000" stroke="none" font-family="Arial" font-size="13px" font-style="normal" font-weight="normal" text-decoration="none" x="850.5" y="1139">35 : getCardNumber():long</text></g></g><g transform="translate(-198,2) scale(1,1)"><rect fill="#91ffec" stroke="none" x="1051" y="1144" width="13" height="28"/></g><g transform="translate(-198,2) scale(1,1)"><path fill="none" stroke="#000000" d="M 1051 1144 L 1064 1144 L 1064 1172 L 1051 1172 L 1051 1144 Z Z" stroke-miterlimit="10"/></g><g transform="translate(-198,2) scale(1,1)"><path fill="none" stroke="#000000" d="M 546 1176 L 792 1176" stroke-miterlimit="10"/></g><g transform="translate(-198,2) scale(1,1)"><path fill="#000000" stroke="none" d="M 781.8373251423759 1180.2095177560159 L 792 1176 L 781.8373251423758 1171.7904822439841"/></g><g transform="translate(-198,2) scale(1,1)"><path fill="none" stroke="#000000" d="M 781.8373251423759 1180.2095177560159 L 792 1176 L 781.8373251423758 1171.7904822439841 L 781.8373251423759 1180.2095177560159" stroke-miterlimit="10"/></g><g transform="translate(-198,2) scale(1,1)"><g><path fill="none" stroke="none"/><text fill="#000000" stroke="none" font-family="Arial" font-size="13px" font-style="normal" font-weight="normal" text-decoration="none" x="594.5" y="1171">36 : setPriceTicket(int, int)</text></g></g><g transform="translate(-198,2) scale(1,1)"><rect fill="#ffa3ff" stroke="none" x="792" y="1176" width="13" height="28"/></g><g transform="translate(-198,2) scale(1,1)"><path fill="none" stroke="#000000" d="M 792 1176 L 805 1176 L 805 1204 L 792 1204 L 792 1176 Z Z" stroke-miterlimit="10"/></g><g transform="translate(-198,2) scale(1,1)"><path fill="none" stroke="#000000" d="M 546 1224 L 792 1224" stroke-miterlimit="10"/></g><g transform="translate(-198,2) scale(1,1)"><path fill="#000000" stroke="none" d="M 781.8373251423759 1228.2095177560159 L 792 1224 L 781.8373251423758 1219.7904822439841"/></g><g transform="translate(-198,2) scale(1,1)"><path fill="none" stroke="#000000" d="M 781.8373251423759 1228.2095177560159 L 792 1224 L 781.8373251423758 1219.7904822439841 L 781.8373251423759 1228.2095177560159" stroke-miterlimit="10"/></g><g transform="translate(-198,2) scale(1,1)"><g><path fill="none" stroke="none"/><text fill="#000000" stroke="none" font-family="Arial" font-size="13px" font-style="normal" font-weight="normal" text-decoration="none" x="622.259521484375" y="1219">37 : doPayment()</text></g></g><g transform="translate(-198,2) scale(1,1)"><rect fill="#ffa3ff" stroke="none" x="792" y="1224" width="13" height="112"/></g><g transform="translate(-198,2) scale(1,1)"><path fill="none" stroke="#000000" d="M 792 1224 L 805 1224 L 805 1336 L 792 1336 L 792 1224 Z Z" stroke-miterlimit="10"/></g><g transform="translate(-198,2) scale(1,1)"><path fill="none" stroke="#000000" d="M 805 1240 L 1168 1240" stroke-miterlimit="10" stroke-dasharray="3"/></g><g transform="translate(-198,2) scale(1,1)"><path fill="none" stroke="#000000" d="M 1157.837325142376 1244.2095177560159 L 1168 1240 L 1157.837325142376 1235.7904822439841" stroke-miterlimit="10"/></g><g transform="translate(-198,2) scale(1,1)"><g><path fill="none" stroke="none"/><text fill="#000000" stroke="none" font-family="Arial" font-size="13px" font-style="normal" font-weight="normal" text-decoration="none" x="862.5" y="1234">38 : UrjcBankServer()</text></g></g><g transform="translate(-198,2) scale(1,1)"><g><path fill="none" stroke="none"/><text fill="#000000" stroke="none" font-family="Arial" font-size="13px" font-style="normal" font-weight="normal" text-decoration="none" x="894.5" y="1218.5">«create»</text></g></g><g transform="translate(-198,2) scale(1,1)"><path fill="none" stroke="#000000" d="M 805 1272 L 1250 1272" stroke-miterlimit="10"/></g><g transform="translate(-198,2) scale(1,1)"><path fill="#000000" stroke="none" d="M 1239.837325142376 1276.2095177560159 L 1250 1272 L 1239.837325142376 1267.7904822439841"/></g><g transform="translate(-198,2) scale(1,1)"><path fill="none" stroke="#000000" d="M 1239.837325142376 1276.2095177560159 L 1250 1272 L 1239.837325142376 1267.7904822439841 L 1239.837325142376 1276.2095177560159" stroke-miterlimit="10"/></g><g transform="translate(-198,2) scale(1,1)"><g><path fill="none" stroke="none"/><text fill="#000000" stroke="none" font-family="Arial" font-size="13px" font-style="normal" font-weight="normal" text-decoration="none" x="831.5" y="1267">39 : comunicationAvailable():bool</text></g></g><g transform="translate(-198,2) scale(1,1)"><rect fill="#91ffec" stroke="none" x="1250" y="1272" width="13" height="28"/></g><g transform="translate(-198,2) scale(1,1)"><path fill="none" stroke="#000000" d="M 1250 1272 L 1263 1272 L 1263 1300 L 1250 1300 L 1250 1272 Z Z" stroke-miterlimit="10"/></g><g transform="translate(-198,2) scale(1,1)"><path fill="none" stroke="#000000" d="M 805 1328 L 1250 1328" stroke-miterlimit="10"/></g><g transform="translate(-198,2) scale(1,1)"><path fill="#000000" stroke="none" d="M 1239.837325142376 1332.2095177560159 L 1250 1328 L 1239.837325142376 1323.7904822439841"/></g><g transform="translate(-198,2) scale(1,1)"><path fill="none" stroke="#000000" d="M 1239.837325142376 1332.2095177560159 L 1250 1328 L 1239.837325142376 1323.7904822439841 L 1239.837325142376 1332.2095177560159" stroke-miterlimit="10"/></g><g transform="translate(-198,2) scale(1,1)"><g><path fill="none" stroke="none"/><text fill="#000000" stroke="none" font-family="Arial" font-size="13px" font-style="normal" font-weight="normal" text-decoration="none" x="824.4365234375" y="1309">40 : doOperation(long cardNumber, int</text><text fill="#000000" stroke="none" font-family="Arial" font-size="13px" font-style="normal" font-weight="normal" text-decoration="none" x="911.155029296875" y="1322">amount)</text></g></g><g transform="translate(-198,2) scale(1,1)"><rect fill="#91ffec" stroke="none" x="1250" y="1328" width="13" height="28"/></g><g transform="translate(-198,2) scale(1,1)"><path fill="none" stroke="#000000" d="M 1250 1328 L 1263 1328 L 1263 1356 L 1250 1356 L 1250 1328 Z Z" stroke-miterlimit="10"/></g><g transform="translate(-198,2) scale(1,1)"><path fill="none" stroke="#000000" d="M 546 1368 L 792 1368" stroke-miterlimit="10"/></g><g transform="translate(-198,2) scale(1,1)"><path fill="#000000" stroke="none" d="M 781.8373251423759 1372.2095177560159 L 792 1368 L 781.8373251423758 1363.7904822439841"/></g><g transform="translate(-198,2) scale(1,1)"><path fill="none" stroke="#000000" d="M 781.8373251423759 1372.2095177560159 L 792 1368 L 781.8373251423758 1363.7904822439841 L 781.8373251423759 1372.2095177560159" stroke-miterlimit="10"/></g><g transform="translate(-198,2) scale(1,1)"><g><path fill="none" stroke="none"/><text fill="#000000" stroke="none" font-family="Arial" font-size="13px" font-style="normal" font-weight="normal" text-decoration="none" x="623.163818359375" y="1363">41 : Message31</text></g></g><g transform="translate(-198,2) scale(1,1)"><rect fill="#ffa3ff" stroke="none" x="792" y="1368" width="13" height="28"/></g><g transform="translate(-198,2) scale(1,1)"><path fill="none" stroke="#000000" d="M 792 1368 L 805 1368 L 805 1396 L 792 1396 L 792 1368 Z Z" stroke-miterlimit="10"/></g><g transform="translate(-198,2) scale(1,1)"><path fill="none" stroke="#000000" d="M 533 1384 L 358 1384" stroke-miterlimit="10"/></g><g transform="translate(-198,2) scale(1,1)"><path fill="#000000" stroke="none" d="M 368.16267485762415 1379.7904822439841 L 358 1384 L 368.16267485762415 1388.2095177560159"/></g><g transform="translate(-198,2) scale(1,1)"><path fill="none" stroke="#000000" d="M 368.16267485762415 1379.7904822439841 L 358 1384 L 368.16267485762415 1388.2095177560159 L 368.16267485762415 1379.7904822439841" stroke-miterlimit="10"/></g><g transform="translate(-198,2) scale(1,1)"><g><path fill="none" stroke="none"/><text fill="#000000" stroke="none" font-family="Arial" font-size="13px" font-style="normal" font-weight="normal" text-decoration="none" x="364.5" y="1399">42 : addInfoToTicket(String)</text></g></g><g transform="translate(-198,2) scale(1,1)"><rect fill="#ffeaad" stroke="none" x="345" y="1384" width="13" height="28"/></g><g transform="translate(-198,2) scale(1,1)"><path fill="none" stroke="#000000" d="M 345 1384 L 358 1384 L 358 1412 L 345 1412 L 345 1384 Z Z" stroke-miterlimit="10"/></g><g transform="translate(-198,2) scale(1,1)"><path fill="none" stroke="#000000" d="M 533 1424 L 358 1424" stroke-miterlimit="10"/></g><g transform="translate(-198,2) scale(1,1)"><path fill="#000000" stroke="none" d="M 368.16267485762415 1419.7904822439841 L 358 1424 L 368.16267485762415 1428.2095177560159"/></g><g transform="translate(-198,2) scale(1,1)"><path fill="none" stroke="#000000" d="M 368.16267485762415 1419.7904822439841 L 358 1424 L 368.16267485762415 1428.2095177560159 L 368.16267485762415 1419.7904822439841" stroke-miterlimit="10"/></g><g transform="translate(-198,2) scale(1,1)"><g><path fill="none" stroke="none"/><text fill="#000000" stroke="none" font-family="Arial" font-size="13px" font-style="normal" font-weight="normal" text-decoration="none" x="364.5" y="1439">43 : getTicket():List&lt;String&gt;</text></g></g><g transform="translate(-198,2) scale(1,1)"><rect fill="#ffeaad" stroke="none" x="345" y="1424" width="13" height="28"/></g><g transform="translate(-198,2) scale(1,1)"><path fill="none" stroke="#000000" d="M 345 1424 L 358 1424 L 358 1452 L 345 1452 L 345 1424 Z Z" stroke-miterlimit="10"/></g><g transform="translate(-198,2) scale(1,1)"><path fill="none" stroke="#000000" d="M 546 1440 L 1051 1440" stroke-miterlimit="10"/></g><g transform="translate(-198,2) scale(1,1)"><path fill="#000000" stroke="none" d="M 1040.837325142376 1444.2095177560159 L 1051 1440 L 1040.837325142376 1435.7904822439841"/></g><g transform="translate(-198,2) scale(1,1)"><path fill="none" stroke="#000000" d="M 1040.837325142376 1444.2095177560159 L 1051 1440 L 1040.837325142376 1435.7904822439841 L 1040.837325142376 1444.2095177560159" stroke-miterlimit="10"/></g><g transform="translate(-198,2) scale(1,1)"><g><path fill="none" stroke="none"/><text fill="#000000" stroke="none" font-family="Arial" font-size="13px" font-style="normal" font-weight="normal" text-decoration="none" x="605.5" y="1434">44 : print(String text):bool</text></g></g><g transform="translate(-198,2) scale(1,1)"><rect fill="#91ffec" stroke="none" x="1051" y="1440" width="13" height="28"/></g><g transform="translate(-198,2) scale(1,1)"><path fill="none" stroke="#000000" d="M 1051 1440 L 1064 1440 L 1064 1468 L 1051 1468 L 1051 1440 Z Z" stroke-miterlimit="10"/></g><g transform="translate(-198,2) scale(1,1)"><path fill="none" stroke="#000000" d="M 546 1496 L 688 1496" stroke-miterlimit="10" stroke-dasharray="3"/></g><g transform="translate(-198,2) scale(1,1)"><path fill="none" stroke="#000000" d="M 677.8373251423759 1500.2095177560159 L 688 1496 L 677.8373251423758 1491.7904822439841" stroke-miterlimit="10"/></g><g transform="translate(-198,2) scale(1,1)"><g><path fill="none" stroke="none"/><text fill="#000000" stroke="none" font-family="Arial" font-size="13px" font-style="normal" font-weight="normal" text-decoration="none" x="604.5" y="1491">45 : </text></g></g><g transform="translate(-198,2) scale(1,1)"><g><path fill="none" stroke="none"/><text fill="#000000" stroke="none" font-family="Arial" font-size="13px" font-style="normal" font-weight="normal" text-decoration="none" x="591.5" y="1475.5">«create»</text></g></g><g transform="translate(-198,2) scale(1,1)"><path fill="none" stroke="#000000" d="M 546 1544 L 795 1544" stroke-miterlimit="10"/></g><g transform="translate(-198,2) scale(1,1)"><path fill="#000000" stroke="none" d="M 784.8373251423759 1548.2095177560159 L 795 1544 L 784.8373251423758 1539.7904822439841"/></g><g transform="translate(-198,2) scale(1,1)"><path fill="none" stroke="#000000" d="M 784.8373251423759 1548.2095177560159 L 795 1544 L 784.8373251423758 1539.7904822439841 L 784.8373251423759 1548.2095177560159" stroke-miterlimit="10"/></g><g transform="translate(-198,2) scale(1,1)"><g><path fill="none" stroke="none"/><text fill="#000000" stroke="none" font-family="Arial" font-size="13px" font-style="normal" font-weight="normal" text-decoration="none" x="606.5" y="1539">46 : saveInformation()</text></g></g><g transform="translate(-198,2) scale(1,1)"><rect fill="#ffd6ad" stroke="none" x="795" y="1544" width="13" height="28"/></g><g transform="translate(-198,2) scale(1,1)"><path fill="none" stroke="#000000" d="M 795 1544 L 808 1544 L 808 1572 L 795 1572 L 795 1544 Z Z" stroke-miterlimit="10"/></g><g transform="translate(-198,2) scale(1,1)"><path fill="none" stroke="#000000" d="M 533 1592 L 354 1592" stroke-miterlimit="10"/></g><g transform="translate(-198,2) scale(1,1)"><path fill="#000000" stroke="none" d="M 364.16267485762415 1587.7904822439841 L 354 1592 L 364.16267485762415 1596.2095177560159"/></g><g transform="translate(-198,2) scale(1,1)"><path fill="none" stroke="#000000" d="M 364.16267485762415 1587.7904822439841 L 354 1592 L 364.16267485762415 1596.2095177560159 L 364.16267485762415 1587.7904822439841" stroke-miterlimit="10"/></g><g transform="translate(-198,2) scale(1,1)"><g><path fill="none" stroke="none"/><text fill="#000000" stroke="none" font-family="Arial" font-size="13px" font-style="normal" font-weight="normal" text-decoration="none" x="382.5" y="1607">47 : Return  to Menu</text></g></g><g transform="translate(-198,2) scale(1,1)"><path fill="none" stroke="#000000" d="M 576 248 L 815.6669921875 248 L 815.6669921875 313 L 576 313 L 576 248" stroke-miterlimit="10"/></g><g transform="translate(-198,2) scale(1,1)"><path fill="#ebffd8" stroke="none" d="M 576 248 L 576 270 L 766.1669921875 270 L 777.1669921875 259 L 777.1669921875 248 L 576 248"/></g><g transform="translate(-198,2) scale(1,1)"><path fill="none" stroke="#000000" d="M 576 248 L 576 270 L 766.1669921875 270 L 777.1669921875 259 L 777.1669921875 248 L 576 248 L 576 248" stroke-miterlimit="10"/></g><g transform="translate(-198,2) scale(1,1)"><g><path fill="none" stroke="none"/><text fill="#000000" stroke="none" font-family="Arial" font-size="13px" font-style="normal" font-weight="normal" text-decoration="none" x="611.578125" y="264">for each TheatreActuation</text></g></g><g transform="translate(-198,2) scale(1,1)"><g><path fill="none" stroke="none"/><text fill="#000000" stroke="none" font-family="Arial" font-size="13px" font-style="normal" font-weight="bold" text-decoration="none" x="579.57177734375" y="264">loop</text></g></g><g transform="translate(-198,2) scale(1,1)"><path fill="none" stroke="#000000" d="M 640 536 L 816.576171875 536 L 816.576171875 601 L 640 601 L 640 536" stroke-miterlimit="10"/></g><g transform="translate(-198,2) scale(1,1)"><path fill="#ebffd8" stroke="none" d="M 640 536 L 640 558 L 758.62255859375 558 L 769.62255859375 547 L 769.62255859375 536 L 640 536"/></g><g transform="translate(-198,2) scale(1,1)"><path fill="none" stroke="#000000" d="M 640 536 L 640 558 L 758.62255859375 558 L 769.62255859375 547 L 769.62255859375 536 L 640 536 L 640 536" stroke-miterlimit="10"/></g><g transform="translate(-198,2) scale(1,1)"><g><path fill="none" stroke="none"/><text fill="#000000" stroke="none" font-family="Arial" font-size="13px" font-style="normal" font-weight="normal" text-decoration="none" x="675.578125" y="552">for each Date</text></g></g><g transform="translate(-198,2) scale(1,1)"><g><path fill="none" stroke="none"/><text fill="#000000" stroke="none" font-family="Arial" font-size="13px" font-style="normal" font-weight="bold" text-decoration="none" x="643.57177734375" y="552">loop</text></g></g><g transform="translate(-198,2) scale(1,1)"><path fill="none" stroke="#000000" d="M 592 760 L 816 760 L 816 825 L 592 825 L 592 760" stroke-miterlimit="10"/></g><g transform="translate(-198,2) scale(1,1)"><path fill="#ebffd8" stroke="none" d="M 592 760 L 592 782 L 757.59521484375 782 L 768.59521484375 771 L 768.59521484375 760 L 592 760"/></g><g transform="translate(-198,2) scale(1,1)"><path fill="none" stroke="#000000" d="M 592 760 L 592 782 L 757.59521484375 782 L 768.59521484375 771 L 768.59521484375 760 L 592 760 L 592 760" stroke-miterlimit="10"/></g><g transform="translate(-198,2) scale(1,1)"><g><path fill="none" stroke="none"/><text fill="#000000" stroke="none" font-family="Arial" font-size="13px" font-style="normal" font-weight="normal" text-decoration="none" x="627.578125" y="776">for each TheatreZone</text></g></g><g transform="translate(-198,2) scale(1,1)"><g><path fill="none" stroke="none"/><text fill="#000000" stroke="none" font-family="Arial" font-size="13px" font-style="normal" font-weight="bold" text-decoration="none" x="595.57177734375" y="776">loop</text></g></g><g transform="translate(-198,2) scale(1,1)"><path fill="none" stroke="#000000" d="M 592 912 L 816 912 L 816 977 L 592 977 L 592 912" stroke-miterlimit="10"/></g><g transform="translate(-198,2) scale(1,1)"><path fill="#ebffd8" stroke="none" d="M 592 912 L 592 934 L 751.0888671875 934 L 762.0888671875 923 L 762.0888671875 912 L 592 912"/></g><g transform="translate(-198,2) scale(1,1)"><path fill="none" stroke="#000000" d="M 592 912 L 592 934 L 751.0888671875 934 L 762.0888671875 923 L 762.0888671875 912 L 592 912 L 592 912" stroke-miterlimit="10"/></g><g transform="translate(-198,2) scale(1,1)"><g><path fill="none" stroke="none"/><text fill="#000000" stroke="none" font-family="Arial" font-size="13px" font-style="normal" font-weight="normal" text-decoration="none" x="623.9599609375" y="928">for each TheatreSeat</text></g></g><g transform="translate(-198,2) scale(1,1)"><g><path fill="none" stroke="none"/><text fill="#000000" stroke="none" font-family="Arial" font-size="13px" font-style="normal" font-weight="bold" text-decoration="none" x="596.279541015625" y="926.5">seq</text></g></g><g transform="translate(-198,2) scale(1,1)"><path fill="none" stroke="#000000" d="M 584 1280 L 816.7021484375 1280 L 816.7021484375 1345 L 584 1345 L 584 1280" stroke-miterlimit="10"/></g><g transform="translate(-198,2) scale(1,1)"><path fill="#ebffd8" stroke="none" d="M 584 1280 L 584 1302 L 799.2021484375 1302 L 810.2021484375 1291 L 810.2021484375 1280 L 584 1280"/></g><g transform="translate(-198,2) scale(1,1)"><path fill="none" stroke="#000000" d="M 584 1280 L 584 1302 L 799.2021484375 1302 L 810.2021484375 1291 L 810.2021484375 1280 L 584 1280 L 584 1280" stroke-miterlimit="10"/></g><g transform="translate(-198,2) scale(1,1)"><g><path fill="none" stroke="none"/><text fill="#000000" stroke="none" font-family="Arial" font-size="13px" font-style="normal" font-weight="normal" text-decoration="none" x="615.9599609375" y="1296">if comunicationAvailable is true</text></g></g><g transform="translate(-198,2) scale(1,1)"><g><path fill="none" stroke="none"/><text fill="#000000" stroke="none" font-family="Arial" font-size="13px" font-style="normal" font-weight="bold" text-decoration="none" x="588.279541015625" y="1294.5">seq</text></g></g></g></svg>